<?xml version="1.0" encoding="UTF-8" standalone="no"?>
<?xml-stylesheet href="styles.css" type="text/css"?>
<!DOCTYPE svg PUBLIC "-//W3C//DTD SVG 1.1//EN"
 "http://www.w3.org/Graphics/SVG/1.1/DTD/svg11.dtd">
<!-- Generated by graphviz version 2.44.0 (0)
 -->
<!-- Title: Adder Pages: 1 -->
<svg width="611pt" height="153pt"
 viewBox="0.00 0.00 611.00 153.00" xmlns="http://www.w3.org/2000/svg" xmlns:xlink="http://www.w3.org/1999/xlink">
<g id="graph0" class="graph" transform="scale(1 1) rotate(0) translate(4 149)">
<title>Adder</title>
<polygon fill="white" stroke="transparent" points="-4,4 -4,-149 607,-149 607,4 -4,4"/>
<g id="clust1" class="cluster">
<title>cluster_Adder</title>
<polygon fill="#fff8dc" stroke="black" points="8,-8 8,-137 595,-137 595,-8 8,-8"/>
<text text-anchor="middle" x="301.5" y="-121.8" font-family="Times,serif" font-size="14.00">Adder</text>
</g>
<!-- cluster_Adder_io_inputx -->
<g id="node1" class="node">
<title>cluster_Adder_io_inputx</title>
<polygon fill="#cccccc" stroke="black" points="98,-106 16,-106 16,-70 98,-70 98,-106"/>
<text text-anchor="middle" x="57" y="-84.3" font-family="Times,serif" font-size="14.00">io_inputx</text>
</g>
<!-- op_add_444 -->
<g id="node5" class="node">
<title>op_add_444</title>
<polygon fill="#d8bfd8" stroke="transparent" points="142,-41 142,-91 234,-91 234,-41 142,-41"/>
<polygon fill="none" stroke="black" points="142,-66 142,-91 165,-91 165,-66 142,-66"/>
<text text-anchor="start" x="147" y="-74.8" font-family="Times,serif" font-size="14.00">●</text>
<polygon fill="none" stroke="black" points="165,-41 165,-91 211,-91 211,-41 165,-41"/>
<text text-anchor="start" x="170" y="-62.3" font-family="Times,serif" font-size="14.00"> add </text>
<polygon fill="none" stroke="black" points="211,-41 211,-91 234,-91 234,-41 211,-41"/>
<text text-anchor="start" x="216" y="-62.3" font-family="Times,serif" font-size="14.00">●</text>
<polygon fill="none" stroke="black" points="142,-41 142,-66 165,-66 165,-41 142,-41"/>
<text text-anchor="start" x="147" y="-49.8" font-family="Times,serif" font-size="14.00">●</text>
</g>
<!-- cluster_Adder_io_inputx&#45;&gt;op_add_444 -->
<g id="edge3" class="edge">
<title>cluster_Adder_io_inputx&#45;&gt;op_add_444:in1</title>
<path fill="none" stroke="black" d="M98.01,-81.9C108.43,-80.67 119.85,-79.62 130.94,-79.2"/>
<polygon fill="black" stroke="black" points="131.07,-82.7 141,-79 130.93,-75.7 131.07,-82.7"/>
</g>
<!-- cluster_Adder_io_inputy -->
<g id="node2" class="node">
<title>cluster_Adder_io_inputy</title>
<polygon fill="#cccccc" stroke="black" points="98,-52 16,-52 16,-16 98,-16 98,-52"/>
<text text-anchor="middle" x="57" y="-30.3" font-family="Times,serif" font-size="14.00">io_inputy</text>
</g>
<!-- cluster_Adder_io_inputy&#45;&gt;op_add_444 -->
<g id="edge1" class="edge">
<title>cluster_Adder_io_inputy&#45;&gt;op_add_444:in2</title>
<path fill="none" stroke="black" d="M98.11,-46.99C108.43,-49.55 119.77,-51.71 130.89,-52.59"/>
<polygon fill="black" stroke="black" points="130.87,-56.09 141,-53 131.15,-49.09 130.87,-56.09"/>
</g>
<!-- cluster_Adder_io_result -->
<g id="node3" class="node">
<title>cluster_Adder_io_result</title>
<polygon fill="#e0ffff" stroke="black" points="587,-71 509,-71 509,-35 587,-35 587,-71"/>
<text text-anchor="middle" x="548" y="-49.3" font-family="Times,serif" font-size="14.00">io_result</text>
</g>
<!-- cluster_Adder__T -->
<g id="node4" class="node">
<title>cluster_Adder__T</title>
<polygon fill="none" stroke="black" points="332,-84 278,-84 278,-48 332,-48 332,-84"/>
<text text-anchor="middle" x="305" y="-62.3" font-family="Times,serif" font-size="14.00">_T</text>
</g>
<!-- op_tail_445 -->
<g id="node6" class="node">
<title>op_tail_445</title>
<polygon fill="#d8bfd8" stroke="transparent" points="376,-28 376,-78 465,-78 465,-28 376,-28"/>
<polygon fill="none" stroke="black" points="376.5,-53 376.5,-78 399.5,-78 399.5,-53 376.5,-53"/>
<text text-anchor="start" x="381.5" y="-61.8" font-family="Times,serif" font-size="14.00">●</text>
<polygon fill="none" stroke="black" points="399.5,-28 399.5,-78 442.5,-78 442.5,-28 399.5,-28"/>
<text text-anchor="start" x="404.5" y="-49.3" font-family="Times,serif" font-size="14.00"> tail </text>
<polygon fill="none" stroke="black" points="442.5,-28 442.5,-78 465.5,-78 465.5,-28 442.5,-28"/>
<text text-anchor="start" x="447.5" y="-49.3" font-family="Times,serif" font-size="14.00">●</text>
<polygon fill="none" stroke="black" points="376.5,-28 376.5,-53 399.5,-53 399.5,-28 376.5,-28"/>
<text text-anchor="start" x="383" y="-36.8" font-family="Times,serif" font-size="14.00">1</text>
</g>
<!-- cluster_Adder__T&#45;&gt;op_tail_445 -->
<g id="edge2" class="edge">
<title>cluster_Adder__T&#45;&gt;op_tail_445:in1</title>
<path fill="none" stroke="black" d="M332.07,-66C342.06,-66 353.79,-66 365.19,-66"/>
<polygon fill="black" stroke="black" points="365.5,-69.5 375.5,-66 365.5,-62.5 365.5,-69.5"/>
</g>
<!-- op_add_444&#45;&gt;cluster_Adder__T -->
<g id="edge4" class="edge">
<title>op_add_444:out&#45;&gt;cluster_Adder__T</title>
<path fill="none" stroke="black" d="M235,-66C245.6,-66 257.12,-66 267.65,-66"/>
<polygon fill="black" stroke="black" points="267.79,-69.5 277.79,-66 267.79,-62.5 267.79,-69.5"/>
</g>
<!-- op_tail_445&#45;&gt;cluster_Adder_io_result -->
<g id="edge5" class="edge">
<title>op_tail_445:out&#45;&gt;cluster_Adder_io_result</title>
<path fill="none" stroke="black" d="M466.5,-53C476.99,-53 488.24,-53 498.91,-53"/>
<polygon fill="black" stroke="black" points="498.92,-56.5 508.92,-53 498.92,-49.5 498.92,-56.5"/>
</g>
</g>
</svg>
