<?xml version="1.0" encoding="UTF-8" standalone="no"?>
<?xml-stylesheet href="styles.css" type="text/css"?>
<!DOCTYPE svg PUBLIC "-//W3C//DTD SVG 1.1//EN"
 "http://www.w3.org/Graphics/SVG/1.1/DTD/svg11.dtd">
<!-- Generated by graphviz version 2.44.0 (0)
 -->
<!-- Title: ALUControl Pages: 1 -->
<svg width="1601pt" height="505pt"
 viewBox="0.00 0.00 1601.00 505.00" xmlns="http://www.w3.org/2000/svg" xmlns:xlink="http://www.w3.org/1999/xlink">
<g id="graph0" class="graph" transform="scale(1 1) rotate(0) translate(4 501)">
<title>ALUControl</title>
<polygon fill="white" stroke="transparent" points="-4,4 -4,-501 1597,-501 1597,4 -4,4"/>
<g id="clust1" class="cluster">
<title>cluster_ALUControl</title>
<polygon fill="#fff8dc" stroke="black" points="8,-8 8,-489 1585,-489 1585,-8 8,-8"/>
<text text-anchor="middle" x="796.5" y="-473.8" font-family="Times,serif" font-size="14.00">ALUControl</text>
</g>
<!-- cluster_ALUControl_io_add -->
<g id="node1" class="node">
<title>cluster_ALUControl_io_add</title>
<polygon fill="#cccccc" stroke="black" points="1300,-458 1238,-458 1238,-422 1300,-422 1300,-458"/>
<text text-anchor="middle" x="1269" y="-436.3" font-family="Times,serif" font-size="14.00">io_add</text>
</g>
<!-- mux_1048216270 -->
<g id="node8" class="node">
<title>mux_1048216270</title>
<polygon fill="#afeeee" stroke="transparent" points="1357,-383 1357,-433 1429,-433 1429,-383 1357,-383"/>
<polygon fill="none" stroke="black" points="1357,-408 1357,-433 1380,-433 1380,-408 1357,-408"/>
<text text-anchor="start" x="1363.5" y="-416.8" font-family="Times,serif" font-size="14.00">2</text>
<polygon fill="none" stroke="black" points="1380,-383 1380,-433 1406,-433 1406,-383 1380,-383"/>
<text text-anchor="start" x="1385" y="-404.3" font-family="Times,serif" font-size="14.00">a?</text>
<polygon fill="none" stroke="black" points="1406,-383 1406,-433 1429,-433 1429,-383 1406,-383"/>
<text text-anchor="start" x="1411" y="-404.3" font-family="Times,serif" font-size="14.00">●</text>
<polygon fill="none" stroke="black" points="1357,-383 1357,-408 1380,-408 1380,-383 1357,-383"/>
<text text-anchor="start" x="1362" y="-391.8" font-family="Times,serif" font-size="14.00">●</text>
</g>
<!-- cluster_ALUControl_io_add&#45;&gt;mux_1048216270 -->
<g id="edge6" class="edge">
<title>cluster_ALUControl_io_add&#45;&gt;mux_1048216270:select</title>
<path fill="none" stroke="black" d="M1300.09,-450.09C1332.8,-459.59 1381.73,-468.97 1391.33,-443.88"/>
<polygon fill="black" stroke="black" points="1394.79,-444.44 1393,-434 1387.88,-443.28 1394.79,-444.44"/>
</g>
<!-- cluster_ALUControl_io_immediate -->
<g id="node2" class="node">
<title>cluster_ALUControl_io_immediate</title>
<polygon fill="#cccccc" stroke="black" points="381,-458 269,-458 269,-422 381,-422 381,-458"/>
<text text-anchor="middle" x="325" y="-436.3" font-family="Times,serif" font-size="14.00">io_immediate</text>
</g>
<!-- op_or_434 -->
<g id="node12" class="node">
<title>op_or_434</title>
<polygon fill="#d8bfd8" stroke="transparent" points="426,-404 426,-454 507,-454 507,-404 426,-404"/>
<polygon fill="none" stroke="black" points="426.5,-429 426.5,-454 449.5,-454 449.5,-429 426.5,-429"/>
<text text-anchor="start" x="431.5" y="-437.8" font-family="Times,serif" font-size="14.00">●</text>
<polygon fill="none" stroke="black" points="449.5,-404 449.5,-454 484.5,-454 484.5,-404 449.5,-404"/>
<text text-anchor="start" x="454.5" y="-425.3" font-family="Times,serif" font-size="14.00"> or </text>
<polygon fill="none" stroke="black" points="484.5,-404 484.5,-454 507.5,-454 507.5,-404 484.5,-404"/>
<text text-anchor="start" x="489.5" y="-425.3" font-family="Times,serif" font-size="14.00">●</text>
<polygon fill="none" stroke="black" points="426.5,-404 426.5,-429 449.5,-429 449.5,-404 426.5,-404"/>
<text text-anchor="start" x="431.5" y="-412.8" font-family="Times,serif" font-size="14.00">●</text>
</g>
<!-- cluster_ALUControl_io_immediate&#45;&gt;op_or_434 -->
<g id="edge13" class="edge">
<title>cluster_ALUControl_io_immediate&#45;&gt;op_or_434:in1</title>
<path fill="none" stroke="black" d="M381.26,-441.51C392.28,-441.72 403.95,-441.9 415.25,-441.97"/>
<polygon fill="black" stroke="black" points="415.49,-445.47 425.5,-442 415.51,-438.47 415.49,-445.47"/>
</g>
<!-- cluster_ALUControl_io_funct7 -->
<g id="node3" class="node">
<title>cluster_ALUControl_io_funct7</title>
<polygon fill="#cccccc" stroke="black" points="224.5,-268 142.5,-268 142.5,-232 224.5,-232 224.5,-268"/>
<text text-anchor="middle" x="183.5" y="-246.3" font-family="Times,serif" font-size="14.00">io_funct7</text>
</g>
<!-- op_eq_435 -->
<g id="node13" class="node">
<title>op_eq_435</title>
<polygon fill="#d8bfd8" stroke="transparent" points="283.5,-330 283.5,-380 366.5,-380 366.5,-330 283.5,-330"/>
<polygon fill="none" stroke="black" points="284,-355 284,-380 307,-380 307,-355 284,-355"/>
<text text-anchor="start" x="289" y="-363.8" font-family="Times,serif" font-size="14.00">●</text>
<polygon fill="none" stroke="black" points="307,-330 307,-380 344,-380 344,-330 307,-330"/>
<text text-anchor="start" x="312" y="-351.3" font-family="Times,serif" font-size="14.00"> eq </text>
<polygon fill="none" stroke="black" points="344,-330 344,-380 367,-380 367,-330 344,-330"/>
<text text-anchor="start" x="349" y="-351.3" font-family="Times,serif" font-size="14.00">●</text>
<polygon fill="none" stroke="black" points="284,-330 284,-355 307,-355 307,-330 284,-330"/>
<text text-anchor="start" x="290.5" y="-338.8" font-family="Times,serif" font-size="14.00">0</text>
</g>
<!-- cluster_ALUControl_io_funct7&#45;&gt;op_eq_435 -->
<g id="edge21" class="edge">
<title>cluster_ALUControl_io_funct7&#45;&gt;op_eq_435:in1</title>
<path fill="none" stroke="black" d="M194.93,-268.18C212.26,-297.4 247.61,-352.82 273.33,-365.41"/>
<polygon fill="black" stroke="black" points="272.44,-368.8 283,-368 274.24,-362.03 272.44,-368.8"/>
</g>
<!-- op_eq_441 -->
<g id="node25" class="node">
<title>op_eq_441</title>
<polygon fill="#d8bfd8" stroke="transparent" points="283.5,-214 283.5,-264 366.5,-264 366.5,-214 283.5,-214"/>
<polygon fill="none" stroke="black" points="284,-239 284,-264 307,-264 307,-239 284,-239"/>
<text text-anchor="start" x="289" y="-247.8" font-family="Times,serif" font-size="14.00">●</text>
<polygon fill="none" stroke="black" points="307,-214 307,-264 344,-264 344,-214 307,-214"/>
<text text-anchor="start" x="312" y="-235.3" font-family="Times,serif" font-size="14.00"> eq </text>
<polygon fill="none" stroke="black" points="344,-214 344,-264 367,-264 367,-214 344,-214"/>
<text text-anchor="start" x="349" y="-235.3" font-family="Times,serif" font-size="14.00">●</text>
<polygon fill="none" stroke="black" points="284,-214 284,-239 307,-239 307,-214 284,-214"/>
<text text-anchor="start" x="290.5" y="-222.8" font-family="Times,serif" font-size="14.00">0</text>
</g>
<!-- cluster_ALUControl_io_funct7&#45;&gt;op_eq_441 -->
<g id="edge23" class="edge">
<title>cluster_ALUControl_io_funct7&#45;&gt;op_eq_441:in1</title>
<path fill="none" stroke="black" d="M224.75,-251.19C239.53,-251.54 256.64,-251.87 272.96,-251.97"/>
<polygon fill="black" stroke="black" points="272.99,-255.47 283,-252 273.01,-248.47 272.99,-255.47"/>
</g>
<!-- cluster_ALUControl_io_funct3 -->
<g id="node4" class="node">
<title>cluster_ALUControl_io_funct3</title>
<polygon fill="#cccccc" stroke="black" points="98,-217 16,-217 16,-181 98,-181 98,-217"/>
<text text-anchor="middle" x="57" y="-195.3" font-family="Times,serif" font-size="14.00">io_funct3</text>
</g>
<!-- op_eq_432 -->
<g id="node7" class="node">
<title>op_eq_432</title>
<polygon fill="#d8bfd8" stroke="transparent" points="142,-354 142,-404 225,-404 225,-354 142,-354"/>
<polygon fill="none" stroke="black" points="142.5,-379 142.5,-404 165.5,-404 165.5,-379 142.5,-379"/>
<text text-anchor="start" x="149" y="-387.8" font-family="Times,serif" font-size="14.00">0</text>
<polygon fill="none" stroke="black" points="165.5,-354 165.5,-404 202.5,-404 202.5,-354 165.5,-354"/>
<text text-anchor="start" x="170.5" y="-375.3" font-family="Times,serif" font-size="14.00"> eq </text>
<polygon fill="none" stroke="black" points="202.5,-354 202.5,-404 225.5,-404 225.5,-354 202.5,-354"/>
<text text-anchor="start" x="207.5" y="-375.3" font-family="Times,serif" font-size="14.00">●</text>
<polygon fill="none" stroke="black" points="142.5,-354 142.5,-379 165.5,-379 165.5,-354 142.5,-354"/>
<text text-anchor="start" x="147.5" y="-362.8" font-family="Times,serif" font-size="14.00">●</text>
</g>
<!-- cluster_ALUControl_io_funct3&#45;&gt;op_eq_432 -->
<g id="edge14" class="edge">
<title>cluster_ALUControl_io_funct3&#45;&gt;op_eq_432:in2</title>
<path fill="none" stroke="black" d="M70.68,-217.02C93.11,-249.15 138.53,-315.57 150.54,-343.12"/>
<polygon fill="black" stroke="black" points="147.27,-344.43 153.5,-353 153.98,-342.42 147.27,-344.43"/>
</g>
<!-- op_eq_436 -->
<g id="node15" class="node">
<title>op_eq_436</title>
<polygon fill="#d8bfd8" stroke="transparent" points="830,-308 830,-358 913,-358 913,-308 830,-308"/>
<polygon fill="none" stroke="black" points="830.5,-333 830.5,-358 853.5,-358 853.5,-333 830.5,-333"/>
<text text-anchor="start" x="837" y="-341.8" font-family="Times,serif" font-size="14.00">1</text>
<polygon fill="none" stroke="black" points="853.5,-308 853.5,-358 890.5,-358 890.5,-308 853.5,-308"/>
<text text-anchor="start" x="858.5" y="-329.3" font-family="Times,serif" font-size="14.00"> eq </text>
<polygon fill="none" stroke="black" points="890.5,-308 890.5,-358 913.5,-358 913.5,-308 890.5,-308"/>
<text text-anchor="start" x="895.5" y="-329.3" font-family="Times,serif" font-size="14.00">●</text>
<polygon fill="none" stroke="black" points="830.5,-308 830.5,-333 853.5,-333 853.5,-308 830.5,-308"/>
<text text-anchor="start" x="835.5" y="-316.8" font-family="Times,serif" font-size="14.00">●</text>
</g>
<!-- cluster_ALUControl_io_funct3&#45;&gt;op_eq_436 -->
<g id="edge17" class="edge">
<title>cluster_ALUControl_io_funct3&#45;&gt;op_eq_436:in2</title>
<path fill="none" stroke="black" d="M67.25,-217.15C79.36,-238.83 102.79,-274.25 134,-291 231.26,-343.2 277.17,-279.52 381,-317 399.09,-323.53 398.6,-335.43 417,-341 516.54,-371.14 547.18,-347.09 651,-341 727.16,-336.54 747.8,-321.44 819.09,-320.1"/>
<polygon fill="black" stroke="black" points="819.53,-323.59 829.5,-320 819.47,-316.59 819.53,-323.59"/>
</g>
<!-- op_eq_437 -->
<g id="node17" class="node">
<title>op_eq_437</title>
<polygon fill="#d8bfd8" stroke="transparent" points="560,-278 560,-328 643,-328 643,-278 560,-278"/>
<polygon fill="none" stroke="black" points="560.5,-303 560.5,-328 583.5,-328 583.5,-303 560.5,-303"/>
<text text-anchor="start" x="567" y="-311.8" font-family="Times,serif" font-size="14.00">2</text>
<polygon fill="none" stroke="black" points="583.5,-278 583.5,-328 620.5,-328 620.5,-278 583.5,-278"/>
<text text-anchor="start" x="588.5" y="-299.3" font-family="Times,serif" font-size="14.00"> eq </text>
<polygon fill="none" stroke="black" points="620.5,-278 620.5,-328 643.5,-328 643.5,-278 620.5,-278"/>
<text text-anchor="start" x="625.5" y="-299.3" font-family="Times,serif" font-size="14.00">●</text>
<polygon fill="none" stroke="black" points="560.5,-278 560.5,-303 583.5,-303 583.5,-278 560.5,-278"/>
<text text-anchor="start" x="565.5" y="-286.8" font-family="Times,serif" font-size="14.00">●</text>
</g>
<!-- cluster_ALUControl_io_funct3&#45;&gt;op_eq_437 -->
<g id="edge25" class="edge">
<title>cluster_ALUControl_io_funct3&#45;&gt;op_eq_437:in2</title>
<path fill="none" stroke="black" d="M69.81,-217.1C83.02,-235.65 106.24,-263.61 134,-277 233.37,-324.96 278.93,-260.1 381,-302 400.01,-309.8 397.62,-324.17 417,-331 458.49,-345.63 475.1,-347.24 516,-331 536.83,-322.73 534.57,-299.23 549.31,-292.08"/>
<polygon fill="black" stroke="black" points="550.4,-295.43 559.5,-290 549,-288.57 550.4,-295.43"/>
</g>
<!-- op_eq_438 -->
<g id="node19" class="node">
<title>op_eq_438</title>
<polygon fill="#d8bfd8" stroke="transparent" points="695,-212 695,-262 778,-262 778,-212 695,-212"/>
<polygon fill="none" stroke="black" points="695.5,-237 695.5,-262 718.5,-262 718.5,-237 695.5,-237"/>
<text text-anchor="start" x="702" y="-245.8" font-family="Times,serif" font-size="14.00">3</text>
<polygon fill="none" stroke="black" points="718.5,-212 718.5,-262 755.5,-262 755.5,-212 718.5,-212"/>
<text text-anchor="start" x="723.5" y="-233.3" font-family="Times,serif" font-size="14.00"> eq </text>
<polygon fill="none" stroke="black" points="755.5,-212 755.5,-262 778.5,-262 778.5,-212 755.5,-212"/>
<text text-anchor="start" x="760.5" y="-233.3" font-family="Times,serif" font-size="14.00">●</text>
<polygon fill="none" stroke="black" points="695.5,-212 695.5,-237 718.5,-237 718.5,-212 695.5,-212"/>
<text text-anchor="start" x="700.5" y="-220.8" font-family="Times,serif" font-size="14.00">●</text>
</g>
<!-- cluster_ALUControl_io_funct3&#45;&gt;op_eq_438 -->
<g id="edge36" class="edge">
<title>cluster_ALUControl_io_funct3&#45;&gt;op_eq_438:in2</title>
<path fill="none" stroke="black" d="M98.24,-198.47C181.94,-197.46 368.12,-195.83 381,-201 401.43,-209.19 396.55,-226.87 417,-235 457.89,-251.26 472.02,-236.35 516,-235 591.88,-232.66 613.14,-224.76 684.14,-224.05"/>
<polygon fill="black" stroke="black" points="684.52,-227.55 694.5,-224 684.48,-220.55 684.52,-227.55"/>
</g>
<!-- op_eq_439 -->
<g id="node21" class="node">
<title>op_eq_439</title>
<polygon fill="#d8bfd8" stroke="transparent" points="425,-172 425,-222 508,-222 508,-172 425,-172"/>
<polygon fill="none" stroke="black" points="425.5,-197 425.5,-222 448.5,-222 448.5,-197 425.5,-197"/>
<text text-anchor="start" x="432" y="-205.8" font-family="Times,serif" font-size="14.00">4</text>
<polygon fill="none" stroke="black" points="448.5,-172 448.5,-222 485.5,-222 485.5,-172 448.5,-172"/>
<text text-anchor="start" x="453.5" y="-193.3" font-family="Times,serif" font-size="14.00"> eq </text>
<polygon fill="none" stroke="black" points="485.5,-172 485.5,-222 508.5,-222 508.5,-172 485.5,-172"/>
<text text-anchor="start" x="490.5" y="-193.3" font-family="Times,serif" font-size="14.00">●</text>
<polygon fill="none" stroke="black" points="425.5,-172 425.5,-197 448.5,-197 448.5,-172 425.5,-172"/>
<text text-anchor="start" x="430.5" y="-180.8" font-family="Times,serif" font-size="14.00">●</text>
</g>
<!-- cluster_ALUControl_io_funct3&#45;&gt;op_eq_439 -->
<g id="edge15" class="edge">
<title>cluster_ALUControl_io_funct3&#45;&gt;op_eq_439:in2</title>
<path fill="none" stroke="black" d="M98.03,-195.95C140.45,-192.86 209.4,-188.22 269,-186 334.56,-183.56 353.49,-183.95 414.36,-184"/>
<polygon fill="black" stroke="black" points="414.5,-187.5 424.5,-184 414.5,-180.5 414.5,-187.5"/>
</g>
<!-- op_eq_440 -->
<g id="node23" class="node">
<title>op_eq_440</title>
<polygon fill="#d8bfd8" stroke="transparent" points="425,-96 425,-146 508,-146 508,-96 425,-96"/>
<polygon fill="none" stroke="black" points="425.5,-121 425.5,-146 448.5,-146 448.5,-121 425.5,-121"/>
<text text-anchor="start" x="432" y="-129.8" font-family="Times,serif" font-size="14.00">5</text>
<polygon fill="none" stroke="black" points="448.5,-96 448.5,-146 485.5,-146 485.5,-96 448.5,-96"/>
<text text-anchor="start" x="453.5" y="-117.3" font-family="Times,serif" font-size="14.00"> eq </text>
<polygon fill="none" stroke="black" points="485.5,-96 485.5,-146 508.5,-146 508.5,-96 485.5,-96"/>
<text text-anchor="start" x="490.5" y="-117.3" font-family="Times,serif" font-size="14.00">●</text>
<polygon fill="none" stroke="black" points="425.5,-96 425.5,-121 448.5,-121 448.5,-96 425.5,-96"/>
<text text-anchor="start" x="430.5" y="-104.8" font-family="Times,serif" font-size="14.00">●</text>
</g>
<!-- cluster_ALUControl_io_funct3&#45;&gt;op_eq_440 -->
<g id="edge4" class="edge">
<title>cluster_ALUControl_io_funct3&#45;&gt;op_eq_440:in2</title>
<path fill="none" stroke="black" d="M98.06,-190.27C133.59,-182.42 186.86,-170.41 233,-159 315.16,-138.68 334.92,-110.32 414.49,-108.13"/>
<polygon fill="black" stroke="black" points="414.55,-111.63 424.5,-108 414.45,-104.63 414.55,-111.63"/>
</g>
<!-- op_eq_442 -->
<g id="node27" class="node">
<title>op_eq_442</title>
<polygon fill="#d8bfd8" stroke="transparent" points="142,-96 142,-146 225,-146 225,-96 142,-96"/>
<polygon fill="none" stroke="black" points="142.5,-121 142.5,-146 165.5,-146 165.5,-121 142.5,-121"/>
<text text-anchor="start" x="149" y="-129.8" font-family="Times,serif" font-size="14.00">6</text>
<polygon fill="none" stroke="black" points="165.5,-96 165.5,-146 202.5,-146 202.5,-96 165.5,-96"/>
<text text-anchor="start" x="170.5" y="-117.3" font-family="Times,serif" font-size="14.00"> eq </text>
<polygon fill="none" stroke="black" points="202.5,-96 202.5,-146 225.5,-146 225.5,-96 202.5,-96"/>
<text text-anchor="start" x="207.5" y="-117.3" font-family="Times,serif" font-size="14.00">●</text>
<polygon fill="none" stroke="black" points="142.5,-96 142.5,-121 165.5,-121 165.5,-96 142.5,-96"/>
<text text-anchor="start" x="147.5" y="-104.8" font-family="Times,serif" font-size="14.00">●</text>
</g>
<!-- cluster_ALUControl_io_funct3&#45;&gt;op_eq_442 -->
<g id="edge22" class="edge">
<title>cluster_ALUControl_io_funct3&#45;&gt;op_eq_442:in2</title>
<path fill="none" stroke="black" d="M65.12,-180.58C75.69,-156.38 97.96,-116.11 131.3,-109.07"/>
<polygon fill="black" stroke="black" points="131.92,-112.52 141.5,-108 131.19,-105.56 131.92,-112.52"/>
</g>
<!-- op_eq_443 -->
<g id="node29" class="node">
<title>op_eq_443</title>
<polygon fill="#d8bfd8" stroke="transparent" points="142,-20 142,-70 225,-70 225,-20 142,-20"/>
<polygon fill="none" stroke="black" points="142.5,-45 142.5,-70 165.5,-70 165.5,-45 142.5,-45"/>
<text text-anchor="start" x="149" y="-53.8" font-family="Times,serif" font-size="14.00">7</text>
<polygon fill="none" stroke="black" points="165.5,-20 165.5,-70 202.5,-70 202.5,-20 165.5,-20"/>
<text text-anchor="start" x="170.5" y="-41.3" font-family="Times,serif" font-size="14.00"> eq </text>
<polygon fill="none" stroke="black" points="202.5,-20 202.5,-70 225.5,-70 225.5,-20 202.5,-20"/>
<text text-anchor="start" x="207.5" y="-41.3" font-family="Times,serif" font-size="14.00">●</text>
<polygon fill="none" stroke="black" points="142.5,-20 142.5,-45 165.5,-45 165.5,-20 142.5,-20"/>
<text text-anchor="start" x="147.5" y="-28.8" font-family="Times,serif" font-size="14.00">●</text>
</g>
<!-- cluster_ALUControl_io_funct3&#45;&gt;op_eq_443 -->
<g id="edge30" class="edge">
<title>cluster_ALUControl_io_funct3&#45;&gt;op_eq_443:in2</title>
<path fill="none" stroke="black" d="M58.77,-180.81C61.53,-139.81 74.1,-42.96 131.49,-32.86"/>
<polygon fill="black" stroke="black" points="131.83,-36.34 141.5,-32 131.24,-29.36 131.83,-36.34"/>
</g>
<!-- cluster_ALUControl_io_operation -->
<g id="node5" class="node">
<title>cluster_ALUControl_io_operation</title>
<polygon fill="#e0ffff" stroke="black" points="1577,-426 1473,-426 1473,-390 1577,-390 1577,-426"/>
<text text-anchor="middle" x="1525" y="-404.3" font-family="Times,serif" font-size="14.00">io_operation</text>
</g>
<!-- cluster_ALUControl__T -->
<g id="node6" class="node">
<title>cluster_ALUControl__T</title>
<polygon fill="none" stroke="black" points="1028,-399 974,-399 974,-363 1028,-363 1028,-399"/>
<text text-anchor="middle" x="1001" y="-377.3" font-family="Times,serif" font-size="14.00">_T</text>
</g>
<!-- mux_889741525 -->
<g id="node9" class="node">
<title>mux_889741525</title>
<polygon fill="#afeeee" stroke="transparent" points="1233,-350 1233,-400 1305,-400 1305,-350 1233,-350"/>
<polygon fill="none" stroke="black" points="1233,-375 1233,-400 1256,-400 1256,-375 1233,-375"/>
<text text-anchor="start" x="1238" y="-383.8" font-family="Times,serif" font-size="14.00">●</text>
<polygon fill="none" stroke="black" points="1256,-350 1256,-400 1282,-400 1282,-350 1256,-350"/>
<text text-anchor="start" x="1261" y="-371.3" font-family="Times,serif" font-size="14.00">a?</text>
<polygon fill="none" stroke="black" points="1282,-350 1282,-400 1305,-400 1305,-350 1282,-350"/>
<text text-anchor="start" x="1287" y="-371.3" font-family="Times,serif" font-size="14.00">●</text>
<polygon fill="none" stroke="black" points="1233,-350 1233,-375 1256,-375 1256,-350 1233,-350"/>
<text text-anchor="start" x="1238" y="-358.8" font-family="Times,serif" font-size="14.00">●</text>
</g>
<!-- cluster_ALUControl__T&#45;&gt;mux_889741525 -->
<g id="edge35" class="edge">
<title>cluster_ALUControl__T&#45;&gt;mux_889741525:select</title>
<path fill="none" stroke="black" d="M1028.09,-382.02C1064.3,-383.63 1131.79,-387.26 1189,-394 1202.85,-395.63 1243.89,-409.88 1261.18,-407.52"/>
<polygon fill="black" stroke="black" points="1263.56,-410.09 1269,-401 1259.08,-404.72 1263.56,-410.09"/>
</g>
<!-- op_eq_432&#45;&gt;cluster_ALUControl__T -->
<g id="edge20" class="edge">
<title>op_eq_432:out&#45;&gt;cluster_ALUControl__T</title>
<path fill="none" stroke="black" d="M226.5,-379C246.39,-379 249.36,-389.85 269,-393 318.15,-400.89 331.24,-394.38 381,-393 397.02,-392.56 401,-391.88 417,-391 498.55,-386.51 518.82,-381 600.5,-381 600.5,-381 600.5,-381 737.5,-381 818.34,-381 913.18,-381 963.81,-381"/>
<polygon fill="black" stroke="black" points="963.92,-384.5 973.92,-381 963.92,-377.5 963.92,-384.5"/>
</g>
<!-- mux_1048216270&#45;&gt;cluster_ALUControl_io_operation -->
<g id="edge10" class="edge">
<title>mux_1048216270:out&#45;&gt;cluster_ALUControl_io_operation</title>
<path fill="none" stroke="black" d="M1430,-408C1440.51,-408 1451.69,-408 1462.52,-408"/>
<polygon fill="black" stroke="black" points="1462.78,-411.5 1472.78,-408 1462.77,-404.5 1462.78,-411.5"/>
</g>
<!-- mux_889741525&#45;&gt;mux_1048216270 -->
<g id="edge1" class="edge">
<title>mux_889741525:out&#45;&gt;mux_1048216270:in2</title>
<path fill="none" stroke="black" d="M1306,-375C1326.01,-375 1330.78,-388.98 1345.79,-393.56"/>
<polygon fill="black" stroke="black" points="1345.61,-397.07 1356,-395 1346.59,-390.14 1345.61,-397.07"/>
</g>
<!-- op_pad_433 -->
<g id="node10" class="node">
<title>op_pad_433</title>
<polygon fill="#d8bfd8" stroke="transparent" points="1089,-408.5 1089,-433.5 1181,-433.5 1181,-408.5 1089,-408.5"/>
<polygon fill="none" stroke="black" points="1089,-408 1089,-433 1112,-433 1112,-408 1089,-408"/>
<text text-anchor="start" x="1094" y="-416.8" font-family="Times,serif" font-size="14.00">●</text>
<polygon fill="none" stroke="black" points="1112,-408 1112,-433 1158,-433 1158,-408 1112,-408"/>
<text text-anchor="start" x="1117" y="-416.8" font-family="Times,serif" font-size="14.00"> pad </text>
<polygon fill="none" stroke="black" points="1158,-408 1158,-433 1181,-433 1181,-408 1158,-408"/>
<text text-anchor="start" x="1163" y="-416.8" font-family="Times,serif" font-size="14.00">●</text>
</g>
<!-- op_pad_433&#45;&gt;mux_889741525 -->
<g id="edge8" class="edge">
<title>op_pad_433:out&#45;&gt;mux_889741525:in1</title>
<path fill="none" stroke="black" d="M1182,-420C1204.47,-420 1205.8,-396.79 1221.99,-389.91"/>
<polygon fill="black" stroke="black" points="1222.83,-393.31 1232,-388 1221.52,-386.43 1222.83,-393.31"/>
</g>
<!-- mux_1559198327 -->
<g id="node11" class="node">
<title>mux_1559198327</title>
<polygon fill="#afeeee" stroke="transparent" points="567,-404 567,-454 636,-454 636,-404 567,-404"/>
<polygon fill="none" stroke="black" points="567.5,-429 567.5,-454 587.5,-454 587.5,-429 567.5,-429"/>
<text text-anchor="start" x="572.5" y="-437.8" font-family="Times,serif" font-size="14.00">2</text>
<polygon fill="none" stroke="black" points="587.5,-404 587.5,-454 613.5,-454 613.5,-404 587.5,-404"/>
<text text-anchor="start" x="592.5" y="-425.3" font-family="Times,serif" font-size="14.00">a?</text>
<polygon fill="none" stroke="black" points="613.5,-404 613.5,-454 636.5,-454 636.5,-404 613.5,-404"/>
<text text-anchor="start" x="618.5" y="-425.3" font-family="Times,serif" font-size="14.00">●</text>
<polygon fill="none" stroke="black" points="567.5,-404 567.5,-429 587.5,-429 587.5,-404 567.5,-404"/>
<text text-anchor="start" x="572.5" y="-412.8" font-family="Times,serif" font-size="14.00">3</text>
</g>
<!-- mux_1559198327&#45;&gt;op_pad_433 -->
<g id="edge9" class="edge">
<title>mux_1559198327:out&#45;&gt;op_pad_433:in1</title>
<path fill="none" stroke="black" d="M637.5,-429C834.34,-429 885.99,-420.3 1077.86,-420.01"/>
<polygon fill="black" stroke="black" points="1078,-423.51 1088,-420 1078,-416.51 1078,-423.51"/>
</g>
<!-- op_or_434&#45;&gt;mux_1559198327 -->
<g id="edge19" class="edge">
<title>op_or_434:out&#45;&gt;mux_1559198327:select</title>
<path fill="none" stroke="black" d="M508.5,-429C533.54,-429 534.68,-410 559,-404 571.73,-400.86 587.34,-392.35 595.29,-394.33"/>
<polygon fill="black" stroke="black" points="592.35,-396.23 600.5,-403 598.35,-392.62 592.35,-396.23"/>
</g>
<!-- op_eq_435&#45;&gt;op_or_434 -->
<g id="edge33" class="edge">
<title>op_eq_435:out&#45;&gt;op_or_434:in2</title>
<path fill="none" stroke="black" d="M356,-381C356,-412.21 384.43,-415.59 415.39,-415.96"/>
<polygon fill="black" stroke="black" points="415.49,-419.46 425.5,-416 415.52,-412.46 415.49,-419.46"/>
</g>
<!-- mux_1065940969 -->
<g id="node14" class="node">
<title>mux_1065940969</title>
<polygon fill="#afeeee" stroke="transparent" points="1099,-308 1099,-358 1171,-358 1171,-308 1099,-308"/>
<polygon fill="none" stroke="black" points="1099,-333 1099,-358 1122,-358 1122,-333 1099,-333"/>
<text text-anchor="start" x="1105.5" y="-341.8" font-family="Times,serif" font-size="14.00">6</text>
<polygon fill="none" stroke="black" points="1122,-308 1122,-358 1148,-358 1148,-308 1122,-308"/>
<text text-anchor="start" x="1127" y="-329.3" font-family="Times,serif" font-size="14.00">a?</text>
<polygon fill="none" stroke="black" points="1148,-308 1148,-358 1171,-358 1171,-308 1148,-308"/>
<text text-anchor="start" x="1153" y="-329.3" font-family="Times,serif" font-size="14.00">●</text>
<polygon fill="none" stroke="black" points="1099,-308 1099,-333 1122,-333 1122,-308 1099,-308"/>
<text text-anchor="start" x="1104" y="-316.8" font-family="Times,serif" font-size="14.00">●</text>
</g>
<!-- mux_1065940969&#45;&gt;mux_889741525 -->
<g id="edge28" class="edge">
<title>mux_1065940969:out&#45;&gt;mux_889741525:in2</title>
<path fill="none" stroke="black" d="M1172,-333C1197.8,-333 1201.71,-355.01 1221.86,-360.68"/>
<polygon fill="black" stroke="black" points="1221.63,-364.18 1232,-362 1222.54,-357.24 1221.63,-364.18"/>
</g>
<!-- op_eq_436&#45;&gt;mux_1065940969 -->
<g id="edge34" class="edge">
<title>op_eq_436:out&#45;&gt;mux_1065940969:select</title>
<path fill="none" stroke="black" d="M914.5,-333C972.67,-333 987.94,-334.32 1045,-323 1066.09,-318.82 1069.8,-311.62 1091,-308 1105.01,-305.61 1121.89,-295.84 1130.07,-298.18"/>
<polygon fill="black" stroke="black" points="1127.07,-299.98 1135,-307 1133.18,-296.56 1127.07,-299.98"/>
</g>
<!-- mux_1663679022 -->
<g id="node16" class="node">
<title>mux_1663679022</title>
<polygon fill="#afeeee" stroke="transparent" points="965,-260 965,-310 1037,-310 1037,-260 965,-260"/>
<polygon fill="none" stroke="black" points="965,-285 965,-310 988,-310 988,-285 965,-285"/>
<text text-anchor="start" x="971.5" y="-293.8" font-family="Times,serif" font-size="14.00">4</text>
<polygon fill="none" stroke="black" points="988,-260 988,-310 1014,-310 1014,-260 988,-260"/>
<text text-anchor="start" x="993" y="-281.3" font-family="Times,serif" font-size="14.00">a?</text>
<polygon fill="none" stroke="black" points="1014,-260 1014,-310 1037,-310 1037,-260 1014,-260"/>
<text text-anchor="start" x="1019" y="-281.3" font-family="Times,serif" font-size="14.00">●</text>
<polygon fill="none" stroke="black" points="965,-260 965,-285 988,-285 988,-260 965,-260"/>
<text text-anchor="start" x="970" y="-268.8" font-family="Times,serif" font-size="14.00">●</text>
</g>
<!-- mux_1663679022&#45;&gt;mux_1065940969 -->
<g id="edge3" class="edge">
<title>mux_1663679022:out&#45;&gt;mux_1065940969:in2</title>
<path fill="none" stroke="black" d="M1038,-285C1065.01,-285 1067.05,-311.8 1087.82,-318.5"/>
<polygon fill="black" stroke="black" points="1087.6,-322 1098,-320 1088.62,-315.08 1087.6,-322"/>
</g>
<!-- op_eq_437&#45;&gt;mux_1663679022 -->
<g id="edge32" class="edge">
<title>op_eq_437:out&#45;&gt;mux_1663679022:select</title>
<path fill="none" stroke="black" d="M644.5,-303C706.26,-303 861.13,-290.15 921,-275 951.76,-267.22 989.94,-233.04 999,-248.91"/>
<polygon fill="black" stroke="black" points="995.63,-249.87 1001,-259 1002.49,-248.51 995.63,-249.87"/>
</g>
<!-- mux_2126511060 -->
<g id="node18" class="node">
<title>mux_2126511060</title>
<polygon fill="#afeeee" stroke="transparent" points="835.5,-212 835.5,-262 907.5,-262 907.5,-212 835.5,-212"/>
<polygon fill="none" stroke="black" points="835.5,-237 835.5,-262 858.5,-262 858.5,-237 835.5,-237"/>
<text text-anchor="start" x="842" y="-245.8" font-family="Times,serif" font-size="14.00">5</text>
<polygon fill="none" stroke="black" points="858.5,-212 858.5,-262 884.5,-262 884.5,-212 858.5,-212"/>
<text text-anchor="start" x="863.5" y="-233.3" font-family="Times,serif" font-size="14.00">a?</text>
<polygon fill="none" stroke="black" points="884.5,-212 884.5,-262 907.5,-262 907.5,-212 884.5,-212"/>
<text text-anchor="start" x="889.5" y="-233.3" font-family="Times,serif" font-size="14.00">●</text>
<polygon fill="none" stroke="black" points="835.5,-212 835.5,-237 858.5,-237 858.5,-212 835.5,-212"/>
<text text-anchor="start" x="840.5" y="-220.8" font-family="Times,serif" font-size="14.00">●</text>
</g>
<!-- mux_2126511060&#45;&gt;mux_1663679022 -->
<g id="edge7" class="edge">
<title>mux_2126511060:out&#45;&gt;mux_1663679022:in2</title>
<path fill="none" stroke="black" d="M908.5,-237C933.79,-237 935.02,-263.32 953.92,-270.31"/>
<polygon fill="black" stroke="black" points="953.56,-273.8 964,-272 954.72,-266.9 953.56,-273.8"/>
</g>
<!-- op_eq_438&#45;&gt;mux_2126511060 -->
<g id="edge5" class="edge">
<title>op_eq_438:out&#45;&gt;mux_2126511060:select</title>
<path fill="none" stroke="black" d="M779.5,-237C803.55,-237 804.2,-217.98 827.5,-212 841.41,-208.43 858.62,-199.01 866.78,-202.01"/>
<polygon fill="black" stroke="black" points="863.75,-203.77 871.5,-211 869.95,-200.52 863.75,-203.77"/>
</g>
<!-- mux_1492200741 -->
<g id="node20" class="node">
<title>mux_1492200741</title>
<polygon fill="#afeeee" stroke="transparent" points="700.5,-136 700.5,-186 772.5,-186 772.5,-136 700.5,-136"/>
<polygon fill="none" stroke="black" points="700.5,-161 700.5,-186 723.5,-186 723.5,-161 700.5,-161"/>
<text text-anchor="start" x="707" y="-169.8" font-family="Times,serif" font-size="14.00">9</text>
<polygon fill="none" stroke="black" points="723.5,-136 723.5,-186 749.5,-186 749.5,-136 723.5,-136"/>
<text text-anchor="start" x="728.5" y="-157.3" font-family="Times,serif" font-size="14.00">a?</text>
<polygon fill="none" stroke="black" points="749.5,-136 749.5,-186 772.5,-186 772.5,-136 749.5,-136"/>
<text text-anchor="start" x="754.5" y="-157.3" font-family="Times,serif" font-size="14.00">●</text>
<polygon fill="none" stroke="black" points="700.5,-136 700.5,-161 723.5,-161 723.5,-136 700.5,-136"/>
<text text-anchor="start" x="705.5" y="-144.8" font-family="Times,serif" font-size="14.00">●</text>
</g>
<!-- mux_1492200741&#45;&gt;mux_2126511060 -->
<g id="edge11" class="edge">
<title>mux_1492200741:out&#45;&gt;mux_2126511060:in2</title>
<path fill="none" stroke="black" d="M761.5,-187C761.5,-199.12 775.17,-193.56 786,-199 804.11,-208.1 808.89,-219.46 824.13,-222.94"/>
<polygon fill="black" stroke="black" points="824.2,-226.46 834.5,-224 824.91,-219.5 824.2,-226.46"/>
</g>
<!-- op_eq_439&#45;&gt;mux_1492200741 -->
<g id="edge27" class="edge">
<title>op_eq_439:out&#45;&gt;mux_1492200741:select</title>
<path fill="none" stroke="black" d="M509.5,-197C520.55,-197 686.06,-199.01 727.26,-191.05"/>
<polygon fill="black" stroke="black" points="728.75,-194.22 736.5,-187 725.94,-187.81 728.75,-194.22"/>
</g>
<!-- mux_303253734 -->
<g id="node22" class="node">
<title>mux_303253734</title>
<polygon fill="#afeeee" stroke="transparent" points="565.5,-103 565.5,-153 637.5,-153 637.5,-103 565.5,-103"/>
<polygon fill="none" stroke="black" points="565.5,-128 565.5,-153 588.5,-153 588.5,-128 565.5,-128"/>
<text text-anchor="start" x="570.5" y="-136.8" font-family="Times,serif" font-size="14.00">●</text>
<polygon fill="none" stroke="black" points="588.5,-103 588.5,-153 614.5,-153 614.5,-103 588.5,-103"/>
<text text-anchor="start" x="593.5" y="-124.3" font-family="Times,serif" font-size="14.00">a?</text>
<polygon fill="none" stroke="black" points="614.5,-103 614.5,-153 637.5,-153 637.5,-103 614.5,-103"/>
<text text-anchor="start" x="619.5" y="-124.3" font-family="Times,serif" font-size="14.00">●</text>
<polygon fill="none" stroke="black" points="565.5,-103 565.5,-128 588.5,-128 588.5,-103 565.5,-103"/>
<text text-anchor="start" x="570.5" y="-111.8" font-family="Times,serif" font-size="14.00">●</text>
</g>
<!-- mux_303253734&#45;&gt;mux_1492200741 -->
<g id="edge16" class="edge">
<title>mux_303253734:out&#45;&gt;mux_1492200741:in2</title>
<path fill="none" stroke="black" d="M638.5,-128C663.24,-128 669.49,-143.04 689.32,-147.04"/>
<polygon fill="black" stroke="black" points="689.21,-150.54 699.5,-148 689.87,-143.57 689.21,-150.54"/>
</g>
<!-- op_eq_440&#45;&gt;mux_303253734 -->
<g id="edge26" class="edge">
<title>op_eq_440:out&#45;&gt;mux_303253734:select</title>
<path fill="none" stroke="black" d="M509.5,-121C532.28,-121 535.13,-107.32 557.5,-103 571.45,-100.31 588.36,-90.67 596.56,-93.11"/>
<polygon fill="black" stroke="black" points="593.58,-94.96 601.5,-102 599.7,-91.56 593.58,-94.96"/>
</g>
<!-- mux_1979329337 -->
<g id="node24" class="node">
<title>mux_1979329337</title>
<polygon fill="#afeeee" stroke="transparent" points="432,-268 432,-318 501,-318 501,-268 432,-268"/>
<polygon fill="none" stroke="black" points="432.5,-293 432.5,-318 452.5,-318 452.5,-293 432.5,-293"/>
<text text-anchor="start" x="437.5" y="-301.8" font-family="Times,serif" font-size="14.00">7</text>
<polygon fill="none" stroke="black" points="452.5,-268 452.5,-318 478.5,-318 478.5,-268 452.5,-268"/>
<text text-anchor="start" x="457.5" y="-289.3" font-family="Times,serif" font-size="14.00">a?</text>
<polygon fill="none" stroke="black" points="478.5,-268 478.5,-318 501.5,-318 501.5,-268 478.5,-268"/>
<text text-anchor="start" x="483.5" y="-289.3" font-family="Times,serif" font-size="14.00">●</text>
<polygon fill="none" stroke="black" points="432.5,-268 432.5,-293 452.5,-293 452.5,-268 432.5,-268"/>
<text text-anchor="start" x="437.5" y="-276.8" font-family="Times,serif" font-size="14.00">8</text>
</g>
<!-- mux_1979329337&#45;&gt;mux_303253734 -->
<g id="edge2" class="edge">
<title>mux_1979329337:out&#45;&gt;mux_303253734:in1</title>
<path fill="none" stroke="black" d="M490.5,-267C490.5,-248.81 504.89,-249.4 516,-235 541.2,-202.34 571.12,-199.25 575.85,-164.2"/>
<polygon fill="black" stroke="black" points="579.36,-164.2 576.5,-154 572.38,-163.76 579.36,-164.2"/>
</g>
<!-- op_eq_441&#45;&gt;mux_1979329337 -->
<g id="edge29" class="edge">
<title>op_eq_441:out&#45;&gt;mux_1979329337:select</title>
<path fill="none" stroke="black" d="M368,-239C372.56,-239 433.49,-253.62 456.65,-262.2"/>
<polygon fill="black" stroke="black" points="455.04,-265.31 465.5,-267 458.38,-259.15 455.04,-265.31"/>
</g>
<!-- mux_1786834451 -->
<g id="node26" class="node">
<title>mux_1786834451</title>
<polygon fill="#afeeee" stroke="transparent" points="430.5,-20 430.5,-70 502.5,-70 502.5,-20 430.5,-20"/>
<polygon fill="none" stroke="black" points="430.5,-45 430.5,-70 453.5,-70 453.5,-45 430.5,-45"/>
<text text-anchor="start" x="437" y="-53.8" font-family="Times,serif" font-size="14.00">1</text>
<polygon fill="none" stroke="black" points="453.5,-20 453.5,-70 479.5,-70 479.5,-20 453.5,-20"/>
<text text-anchor="start" x="458.5" y="-41.3" font-family="Times,serif" font-size="14.00">a?</text>
<polygon fill="none" stroke="black" points="479.5,-20 479.5,-70 502.5,-70 502.5,-20 479.5,-20"/>
<text text-anchor="start" x="484.5" y="-41.3" font-family="Times,serif" font-size="14.00">●</text>
<polygon fill="none" stroke="black" points="430.5,-20 430.5,-45 453.5,-45 453.5,-20 430.5,-20"/>
<text text-anchor="start" x="435.5" y="-28.8" font-family="Times,serif" font-size="14.00">●</text>
</g>
<!-- mux_1786834451&#45;&gt;mux_303253734 -->
<g id="edge31" class="edge">
<title>mux_1786834451:out&#45;&gt;mux_303253734:in2</title>
<path fill="none" stroke="black" d="M491.5,-71C491.5,-83.12 505.47,-76.98 516,-83 535.09,-93.91 538.11,-109.45 554.53,-113.82"/>
<polygon fill="black" stroke="black" points="554.16,-117.3 564.5,-115 554.98,-110.34 554.16,-117.3"/>
</g>
<!-- op_eq_442&#45;&gt;mux_1786834451 -->
<g id="edge18" class="edge">
<title>op_eq_442:out&#45;&gt;mux_1786834451:select</title>
<path fill="none" stroke="black" d="M226.5,-121C229.49,-121 412.62,-85.01 456.93,-73.98"/>
<polygon fill="black" stroke="black" points="457.99,-77.31 466.5,-71 455.91,-70.63 457.99,-77.31"/>
</g>
<!-- mux_1614301806 -->
<g id="node28" class="node">
<title>mux_1614301806</title>
<polygon fill="#afeeee" stroke="transparent" points="286,-20 286,-70 364,-70 364,-20 286,-20"/>
<polygon fill="none" stroke="black" points="286,-45 286,-70 315,-70 315,-45 286,-45"/>
<text text-anchor="start" x="295.5" y="-53.8" font-family="Times,serif" font-size="14.00">0</text>
<polygon fill="none" stroke="black" points="315,-20 315,-70 341,-70 341,-20 315,-20"/>
<text text-anchor="start" x="320" y="-41.3" font-family="Times,serif" font-size="14.00">a?</text>
<polygon fill="none" stroke="black" points="341,-20 341,-70 364,-70 364,-20 341,-20"/>
<text text-anchor="start" x="346" y="-41.3" font-family="Times,serif" font-size="14.00">●</text>
<polygon fill="none" stroke="black" points="286,-20 286,-45 315,-45 315,-20 286,-20"/>
<text text-anchor="start" x="291" y="-28.8" font-family="Times,serif" font-size="14.00">15</text>
</g>
<!-- mux_1614301806&#45;&gt;mux_1786834451 -->
<g id="edge12" class="edge">
<title>mux_1614301806:out&#45;&gt;mux_1786834451:in2</title>
<path fill="none" stroke="black" d="M365,-45C390.47,-45 398.32,-35.14 419.25,-32.59"/>
<polygon fill="black" stroke="black" points="419.72,-36.07 429.5,-32 419.31,-29.08 419.72,-36.07"/>
</g>
<!-- op_eq_443&#45;&gt;mux_1614301806 -->
<g id="edge24" class="edge">
<title>op_eq_443:out&#45;&gt;mux_1614301806:select</title>
<path fill="none" stroke="black" d="M226.5,-45C251.94,-45 253.26,-25.95 278,-20 294.88,-15.94 315.9,-4.05 324.29,-9.64"/>
<polygon fill="black" stroke="black" points="321.06,-10.99 328,-19 327.57,-8.41 321.06,-10.99"/>
</g>
</g>
</svg>
