<?xml version="1.0" encoding="UTF-8" standalone="no"?>
<?xml-stylesheet href="styles.css" type="text/css"?>
<!DOCTYPE svg PUBLIC "-//W3C//DTD SVG 1.1//EN"
 "http://www.w3.org/Graphics/SVG/1.1/DTD/svg11.dtd">
<!-- Generated by graphviz version 2.44.0 (0)
 -->
<!-- Title: BranchControl Pages: 1 -->
<svg width="1311pt" height="777pt"
 viewBox="0.00 0.00 1311.00 777.00" xmlns="http://www.w3.org/2000/svg" xmlns:xlink="http://www.w3.org/1999/xlink">
<g id="graph0" class="graph" transform="scale(1 1) rotate(0) translate(4 773)">
<title>BranchControl</title>
<polygon fill="white" stroke="transparent" points="-4,4 -4,-773 1307,-773 1307,4 -4,4"/>
<g id="clust1" class="cluster">
<title>cluster_BranchControl</title>
<polygon fill="#fff8dc" stroke="black" points="8,-8 8,-761 1295,-761 1295,-8 8,-8"/>
<text text-anchor="middle" x="651.5" y="-745.8" font-family="Times,serif" font-size="14.00">BranchControl</text>
</g>
<!-- cluster_BranchControl_io_branch -->
<g id="node1" class="node">
<title>cluster_BranchControl_io_branch</title>
<polygon fill="#cccccc" stroke="black" points="1031,-261 945,-261 945,-225 1031,-225 1031,-261"/>
<text text-anchor="middle" x="988" y="-239.3" font-family="Times,serif" font-size="14.00">io_branch</text>
</g>
<!-- op_and_17 -->
<g id="node28" class="node">
<title>op_and_17</title>
<polygon fill="#d8bfd8" stroke="transparent" points="1075,-245 1075,-295 1167,-295 1167,-245 1075,-245"/>
<polygon fill="none" stroke="black" points="1075,-270 1075,-295 1098,-295 1098,-270 1075,-270"/>
<text text-anchor="start" x="1080" y="-278.8" font-family="Times,serif" font-size="14.00">●</text>
<polygon fill="none" stroke="black" points="1098,-245 1098,-295 1144,-295 1144,-245 1098,-245"/>
<text text-anchor="start" x="1103" y="-266.3" font-family="Times,serif" font-size="14.00"> and </text>
<polygon fill="none" stroke="black" points="1144,-245 1144,-295 1167,-295 1167,-245 1144,-245"/>
<text text-anchor="start" x="1149" y="-266.3" font-family="Times,serif" font-size="14.00">●</text>
<polygon fill="none" stroke="black" points="1075,-245 1075,-270 1098,-270 1098,-245 1075,-245"/>
<text text-anchor="start" x="1080" y="-253.8" font-family="Times,serif" font-size="14.00">●</text>
</g>
<!-- cluster_BranchControl_io_branch&#45;&gt;op_and_17 -->
<g id="edge36" class="edge">
<title>cluster_BranchControl_io_branch&#45;&gt;op_and_17:in2</title>
<path fill="none" stroke="black" d="M1031.15,-252.72C1041.56,-254.55 1052.91,-256.09 1063.96,-256.71"/>
<polygon fill="black" stroke="black" points="1063.9,-260.21 1074,-257 1064.11,-253.21 1063.9,-260.21"/>
</g>
<!-- cluster_BranchControl_io_funct3 -->
<g id="node2" class="node">
<title>cluster_BranchControl_io_funct3</title>
<polygon fill="#cccccc" stroke="black" points="98,-131 16,-131 16,-95 98,-95 98,-131"/>
<text text-anchor="middle" x="57" y="-109.3" font-family="Times,serif" font-size="14.00">io_funct3</text>
</g>
<!-- op_eq_2 -->
<g id="node7" class="node">
<title>op_eq_2</title>
<polygon fill="#d8bfd8" stroke="transparent" points="156,-20 156,-70 239,-70 239,-20 156,-20"/>
<polygon fill="none" stroke="black" points="156.5,-45 156.5,-70 179.5,-70 179.5,-45 156.5,-45"/>
<text text-anchor="start" x="163" y="-53.8" font-family="Times,serif" font-size="14.00">0</text>
<polygon fill="none" stroke="black" points="179.5,-20 179.5,-70 216.5,-70 216.5,-20 179.5,-20"/>
<text text-anchor="start" x="184.5" y="-41.3" font-family="Times,serif" font-size="14.00"> eq </text>
<polygon fill="none" stroke="black" points="216.5,-20 216.5,-70 239.5,-70 239.5,-20 216.5,-20"/>
<text text-anchor="start" x="221.5" y="-41.3" font-family="Times,serif" font-size="14.00">●</text>
<polygon fill="none" stroke="black" points="156.5,-20 156.5,-45 179.5,-45 179.5,-20 156.5,-20"/>
<text text-anchor="start" x="161.5" y="-28.8" font-family="Times,serif" font-size="14.00">●</text>
</g>
<!-- cluster_BranchControl_io_funct3&#45;&gt;op_eq_2 -->
<g id="edge19" class="edge">
<title>cluster_BranchControl_io_funct3&#45;&gt;op_eq_2:in2</title>
<path fill="none" stroke="black" d="M69,-94.62C83.43,-72.87 110.98,-38.84 145.18,-32.9"/>
<polygon fill="black" stroke="black" points="145.84,-36.35 155.5,-32 145.23,-29.38 145.84,-36.35"/>
</g>
<!-- op_eq_4 -->
<g id="node12" class="node">
<title>op_eq_4</title>
<polygon fill="#d8bfd8" stroke="transparent" points="446,-81 446,-131 529,-131 529,-81 446,-81"/>
<polygon fill="none" stroke="black" points="446.5,-106 446.5,-131 469.5,-131 469.5,-106 446.5,-106"/>
<text text-anchor="start" x="453" y="-114.8" font-family="Times,serif" font-size="14.00">1</text>
<polygon fill="none" stroke="black" points="469.5,-81 469.5,-131 506.5,-131 506.5,-81 469.5,-81"/>
<text text-anchor="start" x="474.5" y="-102.3" font-family="Times,serif" font-size="14.00"> eq </text>
<polygon fill="none" stroke="black" points="506.5,-81 506.5,-131 529.5,-131 529.5,-81 506.5,-81"/>
<text text-anchor="start" x="511.5" y="-102.3" font-family="Times,serif" font-size="14.00">●</text>
<polygon fill="none" stroke="black" points="446.5,-81 446.5,-106 469.5,-106 469.5,-81 446.5,-81"/>
<text text-anchor="start" x="451.5" y="-89.8" font-family="Times,serif" font-size="14.00">●</text>
</g>
<!-- cluster_BranchControl_io_funct3&#45;&gt;op_eq_4 -->
<g id="edge33" class="edge">
<title>cluster_BranchControl_io_funct3&#45;&gt;op_eq_4:in2</title>
<path fill="none" stroke="black" d="M98.13,-109.56C166.59,-103.99 310.66,-93.57 435.41,-93.02"/>
<polygon fill="black" stroke="black" points="435.51,-96.52 445.5,-93 435.49,-89.52 435.51,-96.52"/>
</g>
<!-- op_eq_6 -->
<g id="node15" class="node">
<title>op_eq_6</title>
<polygon fill="#d8bfd8" stroke="transparent" points="446,-157 446,-207 529,-207 529,-157 446,-157"/>
<polygon fill="none" stroke="black" points="446.5,-182 446.5,-207 469.5,-207 469.5,-182 446.5,-182"/>
<text text-anchor="start" x="453" y="-190.8" font-family="Times,serif" font-size="14.00">4</text>
<polygon fill="none" stroke="black" points="469.5,-157 469.5,-207 506.5,-207 506.5,-157 469.5,-157"/>
<text text-anchor="start" x="474.5" y="-178.3" font-family="Times,serif" font-size="14.00"> eq </text>
<polygon fill="none" stroke="black" points="506.5,-157 506.5,-207 529.5,-207 529.5,-157 506.5,-157"/>
<text text-anchor="start" x="511.5" y="-178.3" font-family="Times,serif" font-size="14.00">●</text>
<polygon fill="none" stroke="black" points="446.5,-157 446.5,-182 469.5,-182 469.5,-157 446.5,-157"/>
<text text-anchor="start" x="451.5" y="-165.8" font-family="Times,serif" font-size="14.00">●</text>
</g>
<!-- cluster_BranchControl_io_funct3&#45;&gt;op_eq_6 -->
<g id="edge21" class="edge">
<title>cluster_BranchControl_io_funct3&#45;&gt;op_eq_6:in2</title>
<path fill="none" stroke="black" d="M98.19,-111.03C176.96,-107.75 348.61,-103.65 402,-127 422.97,-136.17 420.28,-160.18 435.62,-167.1"/>
<polygon fill="black" stroke="black" points="435.02,-170.55 445.5,-169 436.34,-163.68 435.02,-170.55"/>
</g>
<!-- op_eq_10 -->
<g id="node20" class="node">
<title>op_eq_10</title>
<polygon fill="#d8bfd8" stroke="transparent" points="308,-140 308,-190 391,-190 391,-140 308,-140"/>
<polygon fill="none" stroke="black" points="308.5,-165 308.5,-190 331.5,-190 331.5,-165 308.5,-165"/>
<text text-anchor="start" x="315" y="-173.8" font-family="Times,serif" font-size="14.00">5</text>
<polygon fill="none" stroke="black" points="331.5,-140 331.5,-190 368.5,-190 368.5,-140 331.5,-140"/>
<text text-anchor="start" x="336.5" y="-161.3" font-family="Times,serif" font-size="14.00"> eq </text>
<polygon fill="none" stroke="black" points="368.5,-140 368.5,-190 391.5,-190 391.5,-140 368.5,-140"/>
<text text-anchor="start" x="373.5" y="-161.3" font-family="Times,serif" font-size="14.00">●</text>
<polygon fill="none" stroke="black" points="308.5,-140 308.5,-165 331.5,-165 331.5,-140 308.5,-140"/>
<text text-anchor="start" x="313.5" y="-148.8" font-family="Times,serif" font-size="14.00">●</text>
</g>
<!-- cluster_BranchControl_io_funct3&#45;&gt;op_eq_10 -->
<g id="edge10" class="edge">
<title>cluster_BranchControl_io_funct3&#45;&gt;op_eq_10:in2</title>
<path fill="none" stroke="black" d="M98.14,-118.4C139.15,-124.03 204.63,-133.39 261,-143 277.86,-145.88 284.12,-150.02 297.17,-151.47"/>
<polygon fill="black" stroke="black" points="297.33,-154.99 307.5,-152 297.69,-147.99 297.33,-154.99"/>
</g>
<!-- op_eq_14 -->
<g id="node25" class="node">
<title>op_eq_14</title>
<polygon fill="#d8bfd8" stroke="transparent" points="156,-156 156,-206 239,-206 239,-156 156,-156"/>
<polygon fill="none" stroke="black" points="156.5,-181 156.5,-206 179.5,-206 179.5,-181 156.5,-181"/>
<text text-anchor="start" x="163" y="-189.8" font-family="Times,serif" font-size="14.00">6</text>
<polygon fill="none" stroke="black" points="179.5,-156 179.5,-206 216.5,-206 216.5,-156 179.5,-156"/>
<text text-anchor="start" x="184.5" y="-177.3" font-family="Times,serif" font-size="14.00"> eq </text>
<polygon fill="none" stroke="black" points="216.5,-156 216.5,-206 239.5,-206 239.5,-156 216.5,-156"/>
<text text-anchor="start" x="221.5" y="-177.3" font-family="Times,serif" font-size="14.00">●</text>
<polygon fill="none" stroke="black" points="156.5,-156 156.5,-181 179.5,-181 179.5,-156 156.5,-156"/>
<text text-anchor="start" x="161.5" y="-164.8" font-family="Times,serif" font-size="14.00">●</text>
</g>
<!-- cluster_BranchControl_io_funct3&#45;&gt;op_eq_14 -->
<g id="edge15" class="edge">
<title>cluster_BranchControl_io_funct3&#45;&gt;op_eq_14:in2</title>
<path fill="none" stroke="black" d="M76.43,-131.01C92.84,-145.29 118.38,-163.48 145.47,-167.28"/>
<polygon fill="black" stroke="black" points="145.28,-170.78 155.5,-168 145.78,-163.8 145.28,-170.78"/>
</g>
<!-- cluster_BranchControl_io_inputx -->
<g id="node3" class="node">
<title>cluster_BranchControl_io_inputx</title>
<polygon fill="#cccccc" stroke="black" points="98,-573 16,-573 16,-537 98,-537 98,-573"/>
<text text-anchor="middle" x="57" y="-551.3" font-family="Times,serif" font-size="14.00">io_inputx</text>
</g>
<!-- op_eq_3 -->
<g id="node10" class="node">
<title>op_eq_3</title>
<polygon fill="#d8bfd8" stroke="transparent" points="156,-622 156,-672 239,-672 239,-622 156,-622"/>
<polygon fill="none" stroke="black" points="156.5,-647 156.5,-672 179.5,-672 179.5,-647 156.5,-647"/>
<text text-anchor="start" x="161.5" y="-655.8" font-family="Times,serif" font-size="14.00">●</text>
<polygon fill="none" stroke="black" points="179.5,-622 179.5,-672 216.5,-672 216.5,-622 179.5,-622"/>
<text text-anchor="start" x="184.5" y="-643.3" font-family="Times,serif" font-size="14.00"> eq </text>
<polygon fill="none" stroke="black" points="216.5,-622 216.5,-672 239.5,-672 239.5,-622 216.5,-622"/>
<text text-anchor="start" x="221.5" y="-643.3" font-family="Times,serif" font-size="14.00">●</text>
<polygon fill="none" stroke="black" points="156.5,-622 156.5,-647 179.5,-647 179.5,-622 156.5,-622"/>
<text text-anchor="start" x="161.5" y="-630.8" font-family="Times,serif" font-size="14.00">●</text>
</g>
<!-- cluster_BranchControl_io_inputx&#45;&gt;op_eq_3 -->
<g id="edge37" class="edge">
<title>cluster_BranchControl_io_inputx&#45;&gt;op_eq_3:in1</title>
<path fill="none" stroke="black" d="M65.08,-573.29C77.11,-601.14 104.28,-651.74 145.35,-659.1"/>
<polygon fill="black" stroke="black" points="145.23,-662.6 155.5,-660 145.85,-655.63 145.23,-662.6"/>
</g>
<!-- op_neq_5 -->
<g id="node13" class="node">
<title>op_neq_5</title>
<polygon fill="#d8bfd8" stroke="transparent" points="151.5,-492 151.5,-542 243.5,-542 243.5,-492 151.5,-492"/>
<polygon fill="none" stroke="black" points="151.5,-517 151.5,-542 174.5,-542 174.5,-517 151.5,-517"/>
<text text-anchor="start" x="156.5" y="-525.8" font-family="Times,serif" font-size="14.00">●</text>
<polygon fill="none" stroke="black" points="174.5,-492 174.5,-542 220.5,-542 220.5,-492 174.5,-492"/>
<text text-anchor="start" x="179.5" y="-513.3" font-family="Times,serif" font-size="14.00"> neq </text>
<polygon fill="none" stroke="black" points="220.5,-492 220.5,-542 243.5,-542 243.5,-492 220.5,-492"/>
<text text-anchor="start" x="225.5" y="-513.3" font-family="Times,serif" font-size="14.00">●</text>
<polygon fill="none" stroke="black" points="151.5,-492 151.5,-517 174.5,-517 174.5,-492 151.5,-492"/>
<text text-anchor="start" x="156.5" y="-500.8" font-family="Times,serif" font-size="14.00">●</text>
</g>
<!-- cluster_BranchControl_io_inputx&#45;&gt;op_neq_5 -->
<g id="edge25" class="edge">
<title>cluster_BranchControl_io_inputx&#45;&gt;op_neq_5:in1</title>
<path fill="none" stroke="black" d="M98.35,-539.17C111.21,-535.17 125.83,-531.67 140.15,-530.46"/>
<polygon fill="black" stroke="black" points="140.66,-533.94 150.5,-530 140.36,-526.94 140.66,-533.94"/>
</g>
<!-- op_asSInt_8 -->
<g id="node17" class="node">
<title>op_asSInt_8</title>
<polygon fill="#d8bfd8" stroke="transparent" points="142,-699.5 142,-724.5 253,-724.5 253,-699.5 142,-699.5"/>
<polygon fill="none" stroke="black" points="142.5,-699 142.5,-724 165.5,-724 165.5,-699 142.5,-699"/>
<text text-anchor="start" x="147.5" y="-707.8" font-family="Times,serif" font-size="14.00">●</text>
<polygon fill="none" stroke="black" points="165.5,-699 165.5,-724 230.5,-724 230.5,-699 165.5,-699"/>
<text text-anchor="start" x="170.5" y="-707.8" font-family="Times,serif" font-size="14.00"> asSInt </text>
<polygon fill="none" stroke="black" points="230.5,-699 230.5,-724 253.5,-724 253.5,-699 230.5,-699"/>
<text text-anchor="start" x="235.5" y="-707.8" font-family="Times,serif" font-size="14.00">●</text>
</g>
<!-- cluster_BranchControl_io_inputx&#45;&gt;op_asSInt_8 -->
<g id="edge34" class="edge">
<title>cluster_BranchControl_io_inputx&#45;&gt;op_asSInt_8:in1</title>
<path fill="none" stroke="black" d="M65.39,-573.07C76.99,-599.84 101.54,-650.57 134,-685 137.68,-688.91 142.75,-689.47 146.8,-690.53"/>
<polygon fill="black" stroke="black" points="144.22,-692.89 153.5,-698 149.43,-688.22 144.22,-692.89"/>
</g>
<!-- op_asSInt_12 -->
<g id="node22" class="node">
<title>op_asSInt_12</title>
<polygon fill="#d8bfd8" stroke="transparent" points="142,-569.5 142,-594.5 253,-594.5 253,-569.5 142,-569.5"/>
<polygon fill="none" stroke="black" points="142.5,-569 142.5,-594 165.5,-594 165.5,-569 142.5,-569"/>
<text text-anchor="start" x="147.5" y="-577.8" font-family="Times,serif" font-size="14.00">●</text>
<polygon fill="none" stroke="black" points="165.5,-569 165.5,-594 230.5,-594 230.5,-569 165.5,-569"/>
<text text-anchor="start" x="170.5" y="-577.8" font-family="Times,serif" font-size="14.00"> asSInt </text>
<polygon fill="none" stroke="black" points="230.5,-569 230.5,-594 253.5,-594 253.5,-569 230.5,-569"/>
<text text-anchor="start" x="235.5" y="-577.8" font-family="Times,serif" font-size="14.00">●</text>
</g>
<!-- cluster_BranchControl_io_inputx&#45;&gt;op_asSInt_12 -->
<g id="edge28" class="edge">
<title>cluster_BranchControl_io_inputx&#45;&gt;op_asSInt_12:in1</title>
<path fill="none" stroke="black" d="M98.42,-572.92C108.71,-576.36 120.04,-579.27 131.26,-580.44"/>
<polygon fill="black" stroke="black" points="131.32,-583.95 141.5,-581 131.7,-576.96 131.32,-583.95"/>
</g>
<!-- op_lt_15 -->
<g id="node26" class="node">
<title>op_lt_15</title>
<polygon fill="#d8bfd8" stroke="transparent" points="159.5,-416 159.5,-466 235.5,-466 235.5,-416 159.5,-416"/>
<polygon fill="none" stroke="black" points="159.5,-441 159.5,-466 182.5,-466 182.5,-441 159.5,-441"/>
<text text-anchor="start" x="164.5" y="-449.8" font-family="Times,serif" font-size="14.00">●</text>
<polygon fill="none" stroke="black" points="182.5,-416 182.5,-466 212.5,-466 212.5,-416 182.5,-416"/>
<text text-anchor="start" x="187.5" y="-437.3" font-family="Times,serif" font-size="14.00"> lt </text>
<polygon fill="none" stroke="black" points="212.5,-416 212.5,-466 235.5,-466 235.5,-416 212.5,-416"/>
<text text-anchor="start" x="217.5" y="-437.3" font-family="Times,serif" font-size="14.00">●</text>
<polygon fill="none" stroke="black" points="159.5,-416 159.5,-441 182.5,-441 182.5,-416 159.5,-416"/>
<text text-anchor="start" x="164.5" y="-424.8" font-family="Times,serif" font-size="14.00">●</text>
</g>
<!-- cluster_BranchControl_io_inputx&#45;&gt;op_lt_15 -->
<g id="edge27" class="edge">
<title>cluster_BranchControl_io_inputx&#45;&gt;op_lt_15:in1</title>
<path fill="none" stroke="black" d="M65.89,-536.94C78.9,-510.05 107.55,-461.86 148.43,-454.86"/>
<polygon fill="black" stroke="black" points="148.83,-458.34 158.5,-454 148.24,-451.36 148.83,-458.34"/>
</g>
<!-- op_gte_16 -->
<g id="node27" class="node">
<title>op_gte_16</title>
<polygon fill="#d8bfd8" stroke="transparent" points="153,-340 153,-390 242,-390 242,-340 153,-340"/>
<polygon fill="none" stroke="black" points="153.5,-365 153.5,-390 176.5,-390 176.5,-365 153.5,-365"/>
<text text-anchor="start" x="158.5" y="-373.8" font-family="Times,serif" font-size="14.00">●</text>
<polygon fill="none" stroke="black" points="176.5,-340 176.5,-390 219.5,-390 219.5,-340 176.5,-340"/>
<text text-anchor="start" x="181.5" y="-361.3" font-family="Times,serif" font-size="14.00"> gte </text>
<polygon fill="none" stroke="black" points="219.5,-340 219.5,-390 242.5,-390 242.5,-340 219.5,-340"/>
<text text-anchor="start" x="224.5" y="-361.3" font-family="Times,serif" font-size="14.00">●</text>
<polygon fill="none" stroke="black" points="153.5,-340 153.5,-365 176.5,-365 176.5,-340 153.5,-340"/>
<text text-anchor="start" x="158.5" y="-348.8" font-family="Times,serif" font-size="14.00">●</text>
</g>
<!-- cluster_BranchControl_io_inputx&#45;&gt;op_gte_16 -->
<g id="edge32" class="edge">
<title>cluster_BranchControl_io_inputx&#45;&gt;op_gte_16:in1</title>
<path fill="none" stroke="black" d="M62.44,-536.95C71.04,-505.55 92.86,-440.64 134,-403 140.72,-396.85 150.95,-399.39 157.68,-398.61"/>
<polygon fill="black" stroke="black" points="160.43,-400.78 164.5,-391 155.22,-396.11 160.43,-400.78"/>
</g>
<!-- cluster_BranchControl_io_inputy -->
<g id="node4" class="node">
<title>cluster_BranchControl_io_inputy</title>
<polygon fill="#cccccc" stroke="black" points="98,-408 16,-408 16,-372 98,-372 98,-408"/>
<text text-anchor="middle" x="57" y="-386.3" font-family="Times,serif" font-size="14.00">io_inputy</text>
</g>
<!-- cluster_BranchControl_io_inputy&#45;&gt;op_eq_3 -->
<g id="edge31" class="edge">
<title>cluster_BranchControl_io_inputy&#45;&gt;op_eq_3:in2</title>
<path fill="none" stroke="black" d="M63.35,-408.28C78.11,-458.2 119.24,-594.09 134,-609 141.3,-616.38 153.45,-612.43 160.93,-613.31"/>
<polygon fill="black" stroke="black" points="158.34,-615.67 167.5,-621 163.67,-611.12 158.34,-615.67"/>
</g>
<!-- cluster_BranchControl_io_inputy&#45;&gt;op_neq_5 -->
<g id="edge8" class="edge">
<title>cluster_BranchControl_io_inputy&#45;&gt;op_neq_5:in2</title>
<path fill="none" stroke="black" d="M69.72,-408.24C83.19,-427.96 106.94,-459.21 134,-479 140.76,-483.94 149.87,-482.21 155.95,-483.22"/>
<polygon fill="black" stroke="black" points="153.38,-485.61 162.5,-491 158.73,-481.1 153.38,-485.61"/>
</g>
<!-- op_asSInt_9 -->
<g id="node18" class="node">
<title>op_asSInt_9</title>
<polygon fill="#d8bfd8" stroke="transparent" points="142,-287.5 142,-312.5 253,-312.5 253,-287.5 142,-287.5"/>
<polygon fill="none" stroke="black" points="142.5,-287 142.5,-312 165.5,-312 165.5,-287 142.5,-287"/>
<text text-anchor="start" x="147.5" y="-295.8" font-family="Times,serif" font-size="14.00">●</text>
<polygon fill="none" stroke="black" points="165.5,-287 165.5,-312 230.5,-312 230.5,-287 165.5,-287"/>
<text text-anchor="start" x="170.5" y="-295.8" font-family="Times,serif" font-size="14.00"> asSInt </text>
<polygon fill="none" stroke="black" points="230.5,-287 230.5,-312 253.5,-312 253.5,-287 230.5,-287"/>
<text text-anchor="start" x="235.5" y="-295.8" font-family="Times,serif" font-size="14.00">●</text>
</g>
<!-- cluster_BranchControl_io_inputy&#45;&gt;op_asSInt_9 -->
<g id="edge12" class="edge">
<title>cluster_BranchControl_io_inputy&#45;&gt;op_asSInt_9:in1</title>
<path fill="none" stroke="black" d="M65.12,-371.58C75.69,-347.38 97.96,-307.11 131.3,-300.07"/>
<polygon fill="black" stroke="black" points="131.92,-303.52 141.5,-299 131.19,-296.56 131.92,-303.52"/>
</g>
<!-- op_asSInt_13 -->
<g id="node23" class="node">
<title>op_asSInt_13</title>
<polygon fill="#d8bfd8" stroke="transparent" points="142,-233.5 142,-258.5 253,-258.5 253,-233.5 142,-233.5"/>
<polygon fill="none" stroke="black" points="142.5,-233 142.5,-258 165.5,-258 165.5,-233 142.5,-233"/>
<text text-anchor="start" x="147.5" y="-241.8" font-family="Times,serif" font-size="14.00">●</text>
<polygon fill="none" stroke="black" points="165.5,-233 165.5,-258 230.5,-258 230.5,-233 165.5,-233"/>
<text text-anchor="start" x="170.5" y="-241.8" font-family="Times,serif" font-size="14.00"> asSInt </text>
<polygon fill="none" stroke="black" points="230.5,-233 230.5,-258 253.5,-258 253.5,-233 230.5,-233"/>
<text text-anchor="start" x="235.5" y="-241.8" font-family="Times,serif" font-size="14.00">●</text>
</g>
<!-- cluster_BranchControl_io_inputy&#45;&gt;op_asSInt_13 -->
<g id="edge41" class="edge">
<title>cluster_BranchControl_io_inputy&#45;&gt;op_asSInt_13:in1</title>
<path fill="none" stroke="black" d="M67,-371.9C79.68,-347.57 104.57,-303.84 134,-273 137.91,-268.9 143.17,-268.22 147.24,-266.88"/>
<polygon fill="black" stroke="black" points="150.02,-269.01 153.5,-259 144.54,-264.65 150.02,-269.01"/>
</g>
<!-- cluster_BranchControl_io_inputy&#45;&gt;op_lt_15 -->
<g id="edge14" class="edge">
<title>cluster_BranchControl_io_inputy&#45;&gt;op_lt_15:in2</title>
<path fill="none" stroke="black" d="M88.56,-408.11C105.28,-416.56 126.9,-425.24 148.35,-427.46"/>
<polygon fill="black" stroke="black" points="148.33,-430.96 158.5,-428 148.7,-423.97 148.33,-430.96"/>
</g>
<!-- cluster_BranchControl_io_inputy&#45;&gt;op_gte_16 -->
<g id="edge18" class="edge">
<title>cluster_BranchControl_io_inputy&#45;&gt;op_gte_16:in2</title>
<path fill="none" stroke="black" d="M86.61,-371.89C102.14,-363.52 122.24,-354.91 142.34,-352.6"/>
<polygon fill="black" stroke="black" points="142.72,-356.08 152.5,-352 142.31,-349.1 142.72,-356.08"/>
</g>
<!-- cluster_BranchControl_io_taken -->
<g id="node5" class="node">
<title>cluster_BranchControl_io_taken</title>
<polygon fill="#e0ffff" stroke="black" points="1287,-288 1211,-288 1211,-252 1287,-252 1287,-288"/>
<text text-anchor="middle" x="1249" y="-266.3" font-family="Times,serif" font-size="14.00">io_taken</text>
</g>
<!-- cluster_BranchControl__T -->
<g id="node6" class="node">
<title>cluster_BranchControl__T</title>
<polygon fill="none" stroke="black" points="644,-108 590,-108 590,-72 644,-72 644,-108"/>
<text text-anchor="middle" x="617" y="-86.3" font-family="Times,serif" font-size="14.00">_T</text>
</g>
<!-- mux_1070828517 -->
<g id="node9" class="node">
<title>mux_1070828517</title>
<polygon fill="#afeeee" stroke="transparent" points="829,-272 829,-322 901,-322 901,-272 829,-272"/>
<polygon fill="none" stroke="black" points="829,-297 829,-322 852,-322 852,-297 829,-297"/>
<text text-anchor="start" x="834" y="-305.8" font-family="Times,serif" font-size="14.00">●</text>
<polygon fill="none" stroke="black" points="852,-272 852,-322 878,-322 878,-272 852,-272"/>
<text text-anchor="start" x="857" y="-293.3" font-family="Times,serif" font-size="14.00">a?</text>
<polygon fill="none" stroke="black" points="878,-272 878,-322 901,-322 901,-272 878,-272"/>
<text text-anchor="start" x="883" y="-293.3" font-family="Times,serif" font-size="14.00">●</text>
<polygon fill="none" stroke="black" points="829,-272 829,-297 852,-297 852,-272 829,-272"/>
<text text-anchor="start" x="834" y="-280.8" font-family="Times,serif" font-size="14.00">●</text>
</g>
<!-- cluster_BranchControl__T&#45;&gt;mux_1070828517 -->
<g id="edge38" class="edge">
<title>cluster_BranchControl__T&#45;&gt;mux_1070828517:select</title>
<path fill="none" stroke="black" d="M644.43,-95.95C706.16,-111.5 855.29,-159.42 864.55,-261"/>
<polygon fill="black" stroke="black" points="861.05,-261.17 865,-271 868.04,-260.85 861.05,-261.17"/>
</g>
<!-- op_eq_2&#45;&gt;cluster_BranchControl__T -->
<g id="edge5" class="edge">
<title>op_eq_2:out&#45;&gt;cluster_BranchControl__T</title>
<path fill="none" stroke="black" d="M240.5,-45C372.67,-45 406.83,-45.05 537,-68 551.3,-70.52 566.75,-74.53 580.16,-78.43"/>
<polygon fill="black" stroke="black" points="579.38,-81.85 589.96,-81.37 581.39,-75.15 579.38,-81.85"/>
</g>
<!-- cluster_BranchControl_check -->
<g id="node8" class="node">
<title>cluster_BranchControl_check</title>
<polygon fill="none" stroke="black" points="1016.5,-315 959.5,-315 959.5,-279 1016.5,-279 1016.5,-315"/>
<text text-anchor="middle" x="988" y="-293.3" font-family="Times,serif" font-size="14.00">check</text>
</g>
<!-- cluster_BranchControl_check&#45;&gt;op_and_17 -->
<g id="edge16" class="edge">
<title>cluster_BranchControl_check&#45;&gt;op_and_17:in1</title>
<path fill="none" stroke="black" d="M1016.76,-290.08C1030.44,-287.16 1047.48,-284.22 1063.9,-283.3"/>
<polygon fill="black" stroke="black" points="1064.11,-286.79 1074,-283 1063.9,-279.8 1064.11,-286.79"/>
</g>
<!-- mux_1070828517&#45;&gt;cluster_BranchControl_check -->
<g id="edge2" class="edge">
<title>mux_1070828517:out&#45;&gt;cluster_BranchControl_check</title>
<path fill="none" stroke="black" d="M902,-297C917.44,-297 934.45,-297 949.18,-297"/>
<polygon fill="black" stroke="black" points="949.44,-300.5 959.44,-297 949.44,-293.5 949.44,-300.5"/>
</g>
<!-- op_eq_3&#45;&gt;mux_1070828517 -->
<g id="edge35" class="edge">
<title>op_eq_3:out&#45;&gt;mux_1070828517:in1</title>
<path fill="none" stroke="black" d="M228.5,-621C228.5,-613.71 479.21,-573 486.5,-573 486.5,-573 486.5,-573 618,-573 763.11,-573 836.52,-476.29 839.88,-333.37"/>
<polygon fill="black" stroke="black" points="843.38,-333.04 840,-323 836.38,-332.96 843.38,-333.04"/>
</g>
<!-- mux_1336027400 -->
<g id="node11" class="node">
<title>mux_1336027400</title>
<polygon fill="#afeeee" stroke="transparent" points="705,-259 705,-309 777,-309 777,-259 705,-259"/>
<polygon fill="none" stroke="black" points="705,-284 705,-309 728,-309 728,-284 705,-284"/>
<text text-anchor="start" x="710" y="-292.8" font-family="Times,serif" font-size="14.00">●</text>
<polygon fill="none" stroke="black" points="728,-259 728,-309 754,-309 754,-259 728,-259"/>
<text text-anchor="start" x="733" y="-280.3" font-family="Times,serif" font-size="14.00">a?</text>
<polygon fill="none" stroke="black" points="754,-259 754,-309 777,-309 777,-259 754,-259"/>
<text text-anchor="start" x="759" y="-280.3" font-family="Times,serif" font-size="14.00">●</text>
<polygon fill="none" stroke="black" points="705,-259 705,-284 728,-284 728,-259 705,-259"/>
<text text-anchor="start" x="710" y="-267.8" font-family="Times,serif" font-size="14.00">●</text>
</g>
<!-- mux_1336027400&#45;&gt;mux_1070828517 -->
<g id="edge20" class="edge">
<title>mux_1336027400:out&#45;&gt;mux_1070828517:in2</title>
<path fill="none" stroke="black" d="M778,-284C796.4,-284 803.38,-284 817.85,-284"/>
<polygon fill="black" stroke="black" points="818,-287.5 828,-284 818,-280.5 818,-287.5"/>
</g>
<!-- op_eq_4&#45;&gt;mux_1336027400 -->
<g id="edge6" class="edge">
<title>op_eq_4:out&#45;&gt;mux_1336027400:select</title>
<path fill="none" stroke="black" d="M518.5,-132C518.5,-135.14 691.91,-228.17 732.55,-252.37"/>
<polygon fill="black" stroke="black" points="730.74,-255.37 741,-258 734.62,-249.54 730.74,-255.37"/>
</g>
<!-- op_neq_5&#45;&gt;mux_1336027400 -->
<g id="edge29" class="edge">
<title>op_neq_5:out&#45;&gt;mux_1336027400:in1</title>
<path fill="none" stroke="black" d="M244.5,-517C469.9,-517 708.66,-538.2 715.83,-320.22"/>
<polygon fill="black" stroke="black" points="719.34,-320.06 716,-310 712.34,-319.94 719.34,-320.06"/>
</g>
<!-- mux_1821976734 -->
<g id="node14" class="node">
<title>mux_1821976734</title>
<polygon fill="#afeeee" stroke="transparent" points="581,-246 581,-296 653,-296 653,-246 581,-246"/>
<polygon fill="none" stroke="black" points="581,-271 581,-296 604,-296 604,-271 581,-271"/>
<text text-anchor="start" x="586" y="-279.8" font-family="Times,serif" font-size="14.00">●</text>
<polygon fill="none" stroke="black" points="604,-246 604,-296 630,-296 630,-246 604,-246"/>
<text text-anchor="start" x="609" y="-267.3" font-family="Times,serif" font-size="14.00">a?</text>
<polygon fill="none" stroke="black" points="630,-246 630,-296 653,-296 653,-246 630,-246"/>
<text text-anchor="start" x="635" y="-267.3" font-family="Times,serif" font-size="14.00">●</text>
<polygon fill="none" stroke="black" points="581,-246 581,-271 604,-271 604,-246 581,-246"/>
<text text-anchor="start" x="586" y="-254.8" font-family="Times,serif" font-size="14.00">●</text>
</g>
<!-- mux_1821976734&#45;&gt;mux_1336027400 -->
<g id="edge22" class="edge">
<title>mux_1821976734:out&#45;&gt;mux_1336027400:in2</title>
<path fill="none" stroke="black" d="M654,-271C672.4,-271 679.38,-271 693.85,-271"/>
<polygon fill="black" stroke="black" points="694,-274.5 704,-271 694,-267.5 694,-274.5"/>
</g>
<!-- op_eq_6&#45;&gt;mux_1821976734 -->
<g id="edge11" class="edge">
<title>op_eq_6:out&#45;&gt;mux_1821976734:select</title>
<path fill="none" stroke="black" d="M518.5,-208C518.5,-217.64 585.41,-228.58 608.94,-238.68"/>
<polygon fill="black" stroke="black" points="606.97,-241.58 617,-245 611.29,-236.07 606.97,-241.58"/>
</g>
<!-- op_lt_7 -->
<g id="node16" class="node">
<title>op_lt_7</title>
<polygon fill="#d8bfd8" stroke="transparent" points="311.5,-370 311.5,-420 387.5,-420 387.5,-370 311.5,-370"/>
<polygon fill="none" stroke="black" points="311.5,-395 311.5,-420 334.5,-420 334.5,-395 311.5,-395"/>
<text text-anchor="start" x="316.5" y="-403.8" font-family="Times,serif" font-size="14.00">●</text>
<polygon fill="none" stroke="black" points="334.5,-370 334.5,-420 364.5,-420 364.5,-370 334.5,-370"/>
<text text-anchor="start" x="339.5" y="-391.3" font-family="Times,serif" font-size="14.00"> lt </text>
<polygon fill="none" stroke="black" points="364.5,-370 364.5,-420 387.5,-420 387.5,-370 364.5,-370"/>
<text text-anchor="start" x="369.5" y="-391.3" font-family="Times,serif" font-size="14.00">●</text>
<polygon fill="none" stroke="black" points="311.5,-370 311.5,-395 334.5,-395 334.5,-370 311.5,-370"/>
<text text-anchor="start" x="316.5" y="-378.8" font-family="Times,serif" font-size="14.00">●</text>
</g>
<!-- op_lt_7&#45;&gt;mux_1821976734 -->
<g id="edge13" class="edge">
<title>op_lt_7:out&#45;&gt;mux_1821976734:in1</title>
<path fill="none" stroke="black" d="M388.5,-395C434.52,-395 518.99,-297.85 569.97,-285.32"/>
<polygon fill="black" stroke="black" points="570.54,-288.78 580,-284 569.63,-281.84 570.54,-288.78"/>
</g>
<!-- op_asSInt_8&#45;&gt;op_lt_7 -->
<g id="edge24" class="edge">
<title>op_asSInt_8:out&#45;&gt;op_lt_7:in1</title>
<path fill="none" stroke="black" d="M242.5,-698C242.5,-687.95 255.38,-693.33 261,-685 292.92,-637.7 319.55,-497.17 322.27,-431.28"/>
<polygon fill="black" stroke="black" points="325.78,-431.08 322.5,-421 318.78,-430.92 325.78,-431.08"/>
</g>
<!-- op_asSInt_9&#45;&gt;op_lt_7 -->
<g id="edge9" class="edge">
<title>op_asSInt_9:out&#45;&gt;op_lt_7:in2</title>
<path fill="none" stroke="black" d="M254.5,-299C295.18,-299 271.1,-368.35 300.65,-380.27"/>
<polygon fill="black" stroke="black" points="300.04,-383.71 310.5,-382 301.26,-376.82 300.04,-383.71"/>
</g>
<!-- mux_436008336 -->
<g id="node19" class="node">
<title>mux_436008336</title>
<polygon fill="#afeeee" stroke="transparent" points="451.5,-233 451.5,-283 523.5,-283 523.5,-233 451.5,-233"/>
<polygon fill="none" stroke="black" points="451.5,-258 451.5,-283 474.5,-283 474.5,-258 451.5,-258"/>
<text text-anchor="start" x="456.5" y="-266.8" font-family="Times,serif" font-size="14.00">●</text>
<polygon fill="none" stroke="black" points="474.5,-233 474.5,-283 500.5,-283 500.5,-233 474.5,-233"/>
<text text-anchor="start" x="479.5" y="-254.3" font-family="Times,serif" font-size="14.00">a?</text>
<polygon fill="none" stroke="black" points="500.5,-233 500.5,-283 523.5,-283 523.5,-233 500.5,-233"/>
<text text-anchor="start" x="505.5" y="-254.3" font-family="Times,serif" font-size="14.00">●</text>
<polygon fill="none" stroke="black" points="451.5,-233 451.5,-258 474.5,-258 474.5,-233 451.5,-233"/>
<text text-anchor="start" x="456.5" y="-241.8" font-family="Times,serif" font-size="14.00">●</text>
</g>
<!-- mux_436008336&#45;&gt;mux_1821976734 -->
<g id="edge3" class="edge">
<title>mux_436008336:out&#45;&gt;mux_1821976734:in2</title>
<path fill="none" stroke="black" d="M524.5,-258C545.31,-258 552.95,-258 569.65,-258"/>
<polygon fill="black" stroke="black" points="570,-261.5 580,-258 570,-254.5 570,-261.5"/>
</g>
<!-- op_eq_10&#45;&gt;mux_436008336 -->
<g id="edge40" class="edge">
<title>op_eq_10:out&#45;&gt;mux_436008336:select</title>
<path fill="none" stroke="black" d="M380.5,-191C380.5,-194.58 434.64,-218.76 438,-220 454.6,-226.11 475.47,-216.18 483.81,-222.34"/>
<polygon fill="black" stroke="black" points="480.66,-223.9 487.5,-232 487.2,-221.41 480.66,-223.9"/>
</g>
<!-- op_gte_11 -->
<g id="node21" class="node">
<title>op_gte_11</title>
<polygon fill="#d8bfd8" stroke="transparent" points="305,-294 305,-344 394,-344 394,-294 305,-294"/>
<polygon fill="none" stroke="black" points="305.5,-319 305.5,-344 328.5,-344 328.5,-319 305.5,-319"/>
<text text-anchor="start" x="310.5" y="-327.8" font-family="Times,serif" font-size="14.00">●</text>
<polygon fill="none" stroke="black" points="328.5,-294 328.5,-344 371.5,-344 371.5,-294 328.5,-294"/>
<text text-anchor="start" x="333.5" y="-315.3" font-family="Times,serif" font-size="14.00"> gte </text>
<polygon fill="none" stroke="black" points="371.5,-294 371.5,-344 394.5,-344 394.5,-294 371.5,-294"/>
<text text-anchor="start" x="376.5" y="-315.3" font-family="Times,serif" font-size="14.00">●</text>
<polygon fill="none" stroke="black" points="305.5,-294 305.5,-319 328.5,-319 328.5,-294 305.5,-294"/>
<text text-anchor="start" x="310.5" y="-302.8" font-family="Times,serif" font-size="14.00">●</text>
</g>
<!-- op_gte_11&#45;&gt;mux_436008336 -->
<g id="edge39" class="edge">
<title>op_gte_11:out&#45;&gt;mux_436008336:in1</title>
<path fill="none" stroke="black" d="M383.5,-293C383.5,-286.73 421.44,-276.39 440.58,-272.52"/>
<polygon fill="black" stroke="black" points="441.15,-275.98 450.5,-271 440.08,-269.06 441.15,-275.98"/>
</g>
<!-- op_asSInt_12&#45;&gt;op_gte_11 -->
<g id="edge17" class="edge">
<title>op_asSInt_12:out&#45;&gt;op_gte_11:in1</title>
<path fill="none" stroke="black" d="M242.5,-568C242.5,-557.95 255.59,-563.47 261,-555 309.2,-479.65 246.53,-430.85 297,-357 299.87,-352.8 304.75,-352.34 308.9,-351.67"/>
<polygon fill="black" stroke="black" points="311.29,-354.23 316.5,-345 306.67,-348.96 311.29,-354.23"/>
</g>
<!-- op_asSInt_13&#45;&gt;op_gte_11 -->
<g id="edge4" class="edge">
<title>op_asSInt_13:out&#45;&gt;op_gte_11:in2</title>
<path fill="none" stroke="black" d="M254.5,-245C285.58,-245 273.29,-292.96 294.55,-303.83"/>
<polygon fill="black" stroke="black" points="293.98,-307.29 304.5,-306 295.48,-300.45 293.98,-307.29"/>
</g>
<!-- mux_853913551 -->
<g id="node24" class="node">
<title>mux_853913551</title>
<polygon fill="#afeeee" stroke="transparent" points="313.5,-218 313.5,-268 385.5,-268 385.5,-218 313.5,-218"/>
<polygon fill="none" stroke="black" points="313.5,-243 313.5,-268 336.5,-268 336.5,-243 313.5,-243"/>
<text text-anchor="start" x="318.5" y="-251.8" font-family="Times,serif" font-size="14.00">●</text>
<polygon fill="none" stroke="black" points="336.5,-218 336.5,-268 362.5,-268 362.5,-218 336.5,-218"/>
<text text-anchor="start" x="341.5" y="-239.3" font-family="Times,serif" font-size="14.00">a?</text>
<polygon fill="none" stroke="black" points="362.5,-218 362.5,-268 385.5,-268 385.5,-218 362.5,-218"/>
<text text-anchor="start" x="367.5" y="-239.3" font-family="Times,serif" font-size="14.00">●</text>
<polygon fill="none" stroke="black" points="313.5,-218 313.5,-243 336.5,-243 336.5,-218 313.5,-218"/>
<text text-anchor="start" x="318.5" y="-226.8" font-family="Times,serif" font-size="14.00">●</text>
</g>
<!-- mux_853913551&#45;&gt;mux_436008336 -->
<g id="edge26" class="edge">
<title>mux_853913551:out&#45;&gt;mux_436008336:in2</title>
<path fill="none" stroke="black" d="M386.5,-243C411.29,-243 419.86,-244.52 440.47,-244.91"/>
<polygon fill="black" stroke="black" points="440.47,-248.41 450.5,-245 440.53,-241.41 440.47,-248.41"/>
</g>
<!-- op_eq_14&#45;&gt;mux_853913551 -->
<g id="edge23" class="edge">
<title>op_eq_14:out&#45;&gt;mux_853913551:select</title>
<path fill="none" stroke="black" d="M240.5,-181C267.45,-181 271.39,-194.63 297,-203 315.65,-209.1 338.65,-198.59 346.62,-207.38"/>
<polygon fill="black" stroke="black" points="343.28,-208.42 349.5,-217 349.99,-206.42 343.28,-208.42"/>
</g>
<!-- op_lt_15&#45;&gt;mux_853913551 -->
<g id="edge1" class="edge">
<title>op_lt_15:out&#45;&gt;mux_853913551:in1</title>
<path fill="none" stroke="black" d="M224.5,-415C224.5,-397.92 249.11,-415.26 261,-403 300.36,-362.42 259.59,-323.39 297,-281 302.24,-275.06 310.95,-276.65 317.17,-276.12"/>
<polygon fill="black" stroke="black" points="319.76,-278.48 324.5,-269 314.89,-273.46 319.76,-278.48"/>
</g>
<!-- op_gte_16&#45;&gt;mux_853913551 -->
<g id="edge30" class="edge">
<title>op_gte_16:out&#45;&gt;mux_853913551:in2</title>
<path fill="none" stroke="black" d="M231.5,-339C231.5,-324.85 250.5,-336.49 261,-327 294.39,-296.84 268.5,-239.85 302.5,-231.13"/>
<polygon fill="black" stroke="black" points="302.96,-234.6 312.5,-230 302.17,-227.65 302.96,-234.6"/>
</g>
<!-- op_and_17&#45;&gt;cluster_BranchControl_io_taken -->
<g id="edge7" class="edge">
<title>op_and_17:out&#45;&gt;cluster_BranchControl_io_taken</title>
<path fill="none" stroke="black" d="M1168,-270C1178.63,-270 1190.06,-270 1200.85,-270"/>
<polygon fill="black" stroke="black" points="1200.96,-273.5 1210.96,-270 1200.96,-266.5 1200.96,-273.5"/>
</g>
</g>
</svg>
