<?xml version="1.0" encoding="UTF-8" standalone="no"?>
<?xml-stylesheet href="styles.css" type="text/css"?>
<!DOCTYPE svg PUBLIC "-//W3C//DTD SVG 1.1//EN"
 "http://www.w3.org/Graphics/SVG/1.1/DTD/svg11.dtd">
<!-- Generated by graphviz version 2.44.0 (0)
 -->
<!-- Title: ForwardingUnit Pages: 1 -->
<svg width="990pt" height="597pt"
 viewBox="0.00 0.00 990.00 597.00" xmlns="http://www.w3.org/2000/svg" xmlns:xlink="http://www.w3.org/1999/xlink">
<g id="graph0" class="graph" transform="scale(1 1) rotate(0) translate(4 593)">
<title>ForwardingUnit</title>
<polygon fill="white" stroke="transparent" points="-4,4 -4,-593 986,-593 986,4 -4,4"/>
<g id="clust1" class="cluster">
<title>cluster_ForwardingUnit</title>
<polygon fill="#fff8dc" stroke="black" points="8,-8 8,-581 974,-581 974,-8 8,-8"/>
<text text-anchor="middle" x="491" y="-565.8" font-family="Times,serif" font-size="14.00">ForwardingUnit</text>
</g>
<!-- cluster_ForwardingUnit_io_rs1 -->
<g id="node1" class="node">
<title>cluster_ForwardingUnit_io_rs1</title>
<polygon fill="#cccccc" stroke="black" points="99.5,-294 40.5,-294 40.5,-258 99.5,-258 99.5,-294"/>
<text text-anchor="middle" x="70" y="-272.3" font-family="Times,serif" font-size="14.00">io_rs1</text>
</g>
<!-- op_eq_345 -->
<g id="node10" class="node">
<title>op_eq_345</title>
<polygon fill="#d8bfd8" stroke="transparent" points="172.5,-324 172.5,-374 255.5,-374 255.5,-324 172.5,-324"/>
<polygon fill="none" stroke="black" points="173,-349 173,-374 196,-374 196,-349 173,-349"/>
<text text-anchor="start" x="178" y="-357.8" font-family="Times,serif" font-size="14.00">●</text>
<polygon fill="none" stroke="black" points="196,-324 196,-374 233,-374 233,-324 196,-324"/>
<text text-anchor="start" x="201" y="-345.3" font-family="Times,serif" font-size="14.00"> eq </text>
<polygon fill="none" stroke="black" points="233,-324 233,-374 256,-374 256,-324 233,-324"/>
<text text-anchor="start" x="238" y="-345.3" font-family="Times,serif" font-size="14.00">●</text>
<polygon fill="none" stroke="black" points="173,-324 173,-349 196,-349 196,-324 173,-324"/>
<text text-anchor="start" x="178" y="-332.8" font-family="Times,serif" font-size="14.00">●</text>
</g>
<!-- cluster_ForwardingUnit_io_rs1&#45;&gt;op_eq_345 -->
<g id="edge33" class="edge">
<title>cluster_ForwardingUnit_io_rs1&#45;&gt;op_eq_345:in1</title>
<path fill="none" stroke="black" d="M81.46,-294.24C96.14,-317.41 125.23,-355.14 161.97,-361.17"/>
<polygon fill="black" stroke="black" points="161.75,-364.67 172,-362 162.32,-357.69 161.75,-364.67"/>
</g>
<!-- op_eq_351 -->
<g id="node18" class="node">
<title>op_eq_351</title>
<polygon fill="#d8bfd8" stroke="transparent" points="172.5,-172 172.5,-222 255.5,-222 255.5,-172 172.5,-172"/>
<polygon fill="none" stroke="black" points="173,-197 173,-222 196,-222 196,-197 173,-197"/>
<text text-anchor="start" x="178" y="-205.8" font-family="Times,serif" font-size="14.00">●</text>
<polygon fill="none" stroke="black" points="196,-172 196,-222 233,-222 233,-172 196,-172"/>
<text text-anchor="start" x="201" y="-193.3" font-family="Times,serif" font-size="14.00"> eq </text>
<polygon fill="none" stroke="black" points="233,-172 233,-222 256,-222 256,-172 233,-172"/>
<text text-anchor="start" x="238" y="-193.3" font-family="Times,serif" font-size="14.00">●</text>
<polygon fill="none" stroke="black" points="173,-172 173,-197 196,-197 196,-172 173,-172"/>
<text text-anchor="start" x="178" y="-180.8" font-family="Times,serif" font-size="14.00">●</text>
</g>
<!-- cluster_ForwardingUnit_io_rs1&#45;&gt;op_eq_351 -->
<g id="edge5" class="edge">
<title>cluster_ForwardingUnit_io_rs1&#45;&gt;op_eq_351:in1</title>
<path fill="none" stroke="black" d="M86.12,-257.97C102.53,-240.33 130.6,-215.47 161.78,-210.78"/>
<polygon fill="black" stroke="black" points="162.29,-214.25 172,-210 161.76,-207.27 162.29,-214.25"/>
</g>
<!-- cluster_ForwardingUnit_io_rs2 -->
<g id="node2" class="node">
<title>cluster_ForwardingUnit_io_rs2</title>
<polygon fill="#cccccc" stroke="black" points="99.5,-529 40.5,-529 40.5,-493 99.5,-493 99.5,-529"/>
<text text-anchor="middle" x="70" y="-507.3" font-family="Times,serif" font-size="14.00">io_rs2</text>
</g>
<!-- op_eq_355 -->
<g id="node23" class="node">
<title>op_eq_355</title>
<polygon fill="#d8bfd8" stroke="transparent" points="172.5,-496 172.5,-546 255.5,-546 255.5,-496 172.5,-496"/>
<polygon fill="none" stroke="black" points="173,-521 173,-546 196,-546 196,-521 173,-521"/>
<text text-anchor="start" x="178" y="-529.8" font-family="Times,serif" font-size="14.00">●</text>
<polygon fill="none" stroke="black" points="196,-496 196,-546 233,-546 233,-496 196,-496"/>
<text text-anchor="start" x="201" y="-517.3" font-family="Times,serif" font-size="14.00"> eq </text>
<polygon fill="none" stroke="black" points="233,-496 233,-546 256,-546 256,-496 233,-496"/>
<text text-anchor="start" x="238" y="-517.3" font-family="Times,serif" font-size="14.00">●</text>
<polygon fill="none" stroke="black" points="173,-496 173,-521 196,-521 196,-496 173,-496"/>
<text text-anchor="start" x="178" y="-504.8" font-family="Times,serif" font-size="14.00">●</text>
</g>
<!-- cluster_ForwardingUnit_io_rs2&#45;&gt;op_eq_355 -->
<g id="edge7" class="edge">
<title>cluster_ForwardingUnit_io_rs2&#45;&gt;op_eq_355:in1</title>
<path fill="none" stroke="black" d="M99.78,-521.16C117.12,-526.5 140.03,-532.23 162,-533.66"/>
<polygon fill="black" stroke="black" points="161.89,-537.16 172,-534 162.12,-530.17 161.89,-537.16"/>
</g>
<!-- op_eq_359 -->
<g id="node28" class="node">
<title>op_eq_359</title>
<polygon fill="#d8bfd8" stroke="transparent" points="172.5,-248 172.5,-298 255.5,-298 255.5,-248 172.5,-248"/>
<polygon fill="none" stroke="black" points="173,-273 173,-298 196,-298 196,-273 173,-273"/>
<text text-anchor="start" x="178" y="-281.8" font-family="Times,serif" font-size="14.00">●</text>
<polygon fill="none" stroke="black" points="196,-248 196,-298 233,-298 233,-248 196,-248"/>
<text text-anchor="start" x="201" y="-269.3" font-family="Times,serif" font-size="14.00"> eq </text>
<polygon fill="none" stroke="black" points="233,-248 233,-298 256,-298 256,-248 233,-248"/>
<text text-anchor="start" x="238" y="-269.3" font-family="Times,serif" font-size="14.00">●</text>
<polygon fill="none" stroke="black" points="173,-248 173,-273 196,-273 196,-248 173,-248"/>
<text text-anchor="start" x="178" y="-256.8" font-family="Times,serif" font-size="14.00">●</text>
</g>
<!-- cluster_ForwardingUnit_io_rs2&#45;&gt;op_eq_359 -->
<g id="edge9" class="edge">
<title>cluster_ForwardingUnit_io_rs2&#45;&gt;op_eq_359:in1</title>
<path fill="none" stroke="black" d="M88.78,-492.79C100.32,-480.06 114.86,-462.15 124,-444 151.56,-389.31 121.22,-358.4 160,-311 164.25,-305.81 171.31,-306.43 176.68,-305.85"/>
<polygon fill="black" stroke="black" points="179.09,-308.39 184,-299 174.31,-303.28 179.09,-308.39"/>
</g>
<!-- cluster_ForwardingUnit_io_exmemrd -->
<g id="node3" class="node">
<title>cluster_ForwardingUnit_io_exmemrd</title>
<polygon fill="#cccccc" stroke="black" points="122,-435 18,-435 18,-399 122,-399 122,-435"/>
<text text-anchor="middle" x="70" y="-413.3" font-family="Times,serif" font-size="14.00">io_exmemrd</text>
</g>
<!-- cluster_ForwardingUnit_io_exmemrd&#45;&gt;op_eq_345 -->
<g id="edge20" class="edge">
<title>cluster_ForwardingUnit_io_exmemrd&#45;&gt;op_eq_345:in2</title>
<path fill="none" stroke="black" d="M82.55,-398.62C97.74,-376.78 126.66,-342.55 161.9,-336.82"/>
<polygon fill="black" stroke="black" points="162.32,-340.3 172,-336 161.75,-333.32 162.32,-340.3"/>
</g>
<!-- op_neq_348 -->
<g id="node14" class="node">
<title>op_neq_348</title>
<polygon fill="#d8bfd8" stroke="transparent" points="313.5,-362 313.5,-412 405.5,-412 405.5,-362 313.5,-362"/>
<polygon fill="none" stroke="black" points="313.5,-387 313.5,-412 336.5,-412 336.5,-387 313.5,-387"/>
<text text-anchor="start" x="318.5" y="-395.8" font-family="Times,serif" font-size="14.00">●</text>
<polygon fill="none" stroke="black" points="336.5,-362 336.5,-412 382.5,-412 382.5,-362 336.5,-362"/>
<text text-anchor="start" x="341.5" y="-383.3" font-family="Times,serif" font-size="14.00"> neq </text>
<polygon fill="none" stroke="black" points="382.5,-362 382.5,-412 405.5,-412 405.5,-362 382.5,-362"/>
<text text-anchor="start" x="387.5" y="-383.3" font-family="Times,serif" font-size="14.00">●</text>
<polygon fill="none" stroke="black" points="313.5,-362 313.5,-387 336.5,-387 336.5,-362 313.5,-362"/>
<text text-anchor="start" x="320" y="-370.8" font-family="Times,serif" font-size="14.00">0</text>
</g>
<!-- cluster_ForwardingUnit_io_exmemrd&#45;&gt;op_neq_348 -->
<g id="edge12" class="edge">
<title>cluster_ForwardingUnit_io_exmemrd&#45;&gt;op_neq_348:in1</title>
<path fill="none" stroke="black" d="M122.24,-410.66C134.59,-409.29 147.75,-407.97 160,-407 224.07,-401.94 242.72,-400.18 302.18,-400.01"/>
<polygon fill="black" stroke="black" points="302.5,-403.51 312.5,-400 302.5,-396.51 302.5,-403.51"/>
</g>
<!-- cluster_ForwardingUnit_io_exmemrd&#45;&gt;op_eq_355 -->
<g id="edge24" class="edge">
<title>cluster_ForwardingUnit_io_exmemrd&#45;&gt;op_eq_355:in2</title>
<path fill="none" stroke="black" d="M86.05,-435.42C105.46,-458.37 139.41,-495.79 162.14,-505.59"/>
<polygon fill="black" stroke="black" points="161.45,-509.02 172,-508 163.12,-502.22 161.45,-509.02"/>
</g>
<!-- op_neq_356 -->
<g id="node24" class="node">
<title>op_neq_356</title>
<polygon fill="#d8bfd8" stroke="transparent" points="168,-420 168,-470 260,-470 260,-420 168,-420"/>
<polygon fill="none" stroke="black" points="168,-445 168,-470 191,-470 191,-445 168,-445"/>
<text text-anchor="start" x="173" y="-453.8" font-family="Times,serif" font-size="14.00">●</text>
<polygon fill="none" stroke="black" points="191,-420 191,-470 237,-470 237,-420 191,-420"/>
<text text-anchor="start" x="196" y="-441.3" font-family="Times,serif" font-size="14.00"> neq </text>
<polygon fill="none" stroke="black" points="237,-420 237,-470 260,-470 260,-420 237,-420"/>
<text text-anchor="start" x="242" y="-441.3" font-family="Times,serif" font-size="14.00">●</text>
<polygon fill="none" stroke="black" points="168,-420 168,-445 191,-445 191,-420 168,-420"/>
<text text-anchor="start" x="174.5" y="-428.8" font-family="Times,serif" font-size="14.00">0</text>
</g>
<!-- cluster_ForwardingUnit_io_exmemrd&#45;&gt;op_neq_356 -->
<g id="edge3" class="edge">
<title>cluster_ForwardingUnit_io_exmemrd&#45;&gt;op_neq_356:in1</title>
<path fill="none" stroke="black" d="M97.45,-435.1C113.58,-444.63 135.23,-454.85 157.01,-457.4"/>
<polygon fill="black" stroke="black" points="156.81,-460.89 167,-458 157.23,-453.91 156.81,-460.89"/>
</g>
<!-- cluster_ForwardingUnit_io_exmemrw -->
<g id="node4" class="node">
<title>cluster_ForwardingUnit_io_exmemrw</title>
<polygon fill="#cccccc" stroke="black" points="558.5,-327 451.5,-327 451.5,-291 558.5,-291 558.5,-327"/>
<text text-anchor="middle" x="505" y="-305.3" font-family="Times,serif" font-size="14.00">io_exmemrw</text>
</g>
<!-- op_and_346 -->
<g id="node12" class="node">
<title>op_and_346</title>
<polygon fill="#d8bfd8" stroke="transparent" points="603,-296 603,-346 695,-346 695,-296 603,-296"/>
<polygon fill="none" stroke="black" points="603,-321 603,-346 626,-346 626,-321 603,-321"/>
<text text-anchor="start" x="608" y="-329.8" font-family="Times,serif" font-size="14.00">●</text>
<polygon fill="none" stroke="black" points="626,-296 626,-346 672,-346 672,-296 626,-296"/>
<text text-anchor="start" x="631" y="-317.3" font-family="Times,serif" font-size="14.00"> and </text>
<polygon fill="none" stroke="black" points="672,-296 672,-346 695,-346 695,-296 672,-296"/>
<text text-anchor="start" x="677" y="-317.3" font-family="Times,serif" font-size="14.00">●</text>
<polygon fill="none" stroke="black" points="603,-296 603,-321 626,-321 626,-296 603,-296"/>
<text text-anchor="start" x="608" y="-304.8" font-family="Times,serif" font-size="14.00">●</text>
</g>
<!-- cluster_ForwardingUnit_io_exmemrw&#45;&gt;op_and_346 -->
<g id="edge15" class="edge">
<title>cluster_ForwardingUnit_io_exmemrw&#45;&gt;op_and_346:in2</title>
<path fill="none" stroke="black" d="M558.81,-308.25C569.56,-308.14 580.96,-308.05 592,-308.02"/>
<polygon fill="black" stroke="black" points="592.01,-311.52 602,-308 591.99,-304.52 592.01,-311.52"/>
</g>
<!-- op_and_353 -->
<g id="node21" class="node">
<title>op_and_353</title>
<polygon fill="#d8bfd8" stroke="transparent" points="603,-372 603,-422 695,-422 695,-372 603,-372"/>
<polygon fill="none" stroke="black" points="603,-397 603,-422 626,-422 626,-397 603,-397"/>
<text text-anchor="start" x="608" y="-405.8" font-family="Times,serif" font-size="14.00">●</text>
<polygon fill="none" stroke="black" points="626,-372 626,-422 672,-422 672,-372 626,-372"/>
<text text-anchor="start" x="631" y="-393.3" font-family="Times,serif" font-size="14.00"> and </text>
<polygon fill="none" stroke="black" points="672,-372 672,-422 695,-422 695,-372 672,-372"/>
<text text-anchor="start" x="677" y="-393.3" font-family="Times,serif" font-size="14.00">●</text>
<polygon fill="none" stroke="black" points="603,-372 603,-397 626,-397 626,-372 603,-372"/>
<text text-anchor="start" x="608" y="-380.8" font-family="Times,serif" font-size="14.00">●</text>
</g>
<!-- cluster_ForwardingUnit_io_exmemrw&#45;&gt;op_and_353 -->
<g id="edge26" class="edge">
<title>cluster_ForwardingUnit_io_exmemrw&#45;&gt;op_and_353:in2</title>
<path fill="none" stroke="black" d="M545.5,-327.03C550.21,-329.79 554.83,-332.79 559,-336 578.51,-351.01 575.09,-375.67 591.92,-382.31"/>
<polygon fill="black" stroke="black" points="591.56,-385.8 602,-384 592.72,-378.89 591.56,-385.8"/>
</g>
<!-- cluster_ForwardingUnit_io_memwbrd -->
<g id="node5" class="node">
<title>cluster_ForwardingUnit_io_memwbrd</title>
<polygon fill="#cccccc" stroke="black" points="124,-177 16,-177 16,-141 124,-141 124,-177"/>
<text text-anchor="middle" x="70" y="-155.3" font-family="Times,serif" font-size="14.00">io_memwbrd</text>
</g>
<!-- cluster_ForwardingUnit_io_memwbrd&#45;&gt;op_eq_351 -->
<g id="edge22" class="edge">
<title>cluster_ForwardingUnit_io_memwbrd&#45;&gt;op_eq_351:in2</title>
<path fill="none" stroke="black" d="M123.34,-177.04C135.55,-180.15 148.78,-182.68 161.71,-183.62"/>
<polygon fill="black" stroke="black" points="161.88,-187.12 172,-184 162.14,-180.13 161.88,-187.12"/>
</g>
<!-- op_neq_352 -->
<g id="node19" class="node">
<title>op_neq_352</title>
<polygon fill="#d8bfd8" stroke="transparent" points="168,-20 168,-70 260,-70 260,-20 168,-20"/>
<polygon fill="none" stroke="black" points="168,-45 168,-70 191,-70 191,-45 168,-45"/>
<text text-anchor="start" x="173" y="-53.8" font-family="Times,serif" font-size="14.00">●</text>
<polygon fill="none" stroke="black" points="191,-20 191,-70 237,-70 237,-20 191,-20"/>
<text text-anchor="start" x="196" y="-41.3" font-family="Times,serif" font-size="14.00"> neq </text>
<polygon fill="none" stroke="black" points="237,-20 237,-70 260,-70 260,-20 237,-20"/>
<text text-anchor="start" x="242" y="-41.3" font-family="Times,serif" font-size="14.00">●</text>
<polygon fill="none" stroke="black" points="168,-20 168,-45 191,-45 191,-20 168,-20"/>
<text text-anchor="start" x="174.5" y="-28.8" font-family="Times,serif" font-size="14.00">0</text>
</g>
<!-- cluster_ForwardingUnit_io_memwbrd&#45;&gt;op_neq_352 -->
<g id="edge37" class="edge">
<title>cluster_ForwardingUnit_io_memwbrd&#45;&gt;op_neq_352:in1</title>
<path fill="none" stroke="black" d="M78.3,-140.94C90.39,-114.1 117.23,-66.07 156.92,-58.9"/>
<polygon fill="black" stroke="black" points="157.35,-62.38 167,-58 156.73,-55.41 157.35,-62.38"/>
</g>
<!-- cluster_ForwardingUnit_io_memwbrd&#45;&gt;op_eq_359 -->
<g id="edge27" class="edge">
<title>cluster_ForwardingUnit_io_memwbrd&#45;&gt;op_eq_359:in2</title>
<path fill="none" stroke="black" d="M78.95,-177.06C92.06,-203.95 120.9,-252.14 161.91,-259.14"/>
<polygon fill="black" stroke="black" points="161.74,-262.64 172,-260 162.33,-255.67 161.74,-262.64"/>
</g>
<!-- op_neq_360 -->
<g id="node29" class="node">
<title>op_neq_360</title>
<polygon fill="#d8bfd8" stroke="transparent" points="168,-96 168,-146 260,-146 260,-96 168,-96"/>
<polygon fill="none" stroke="black" points="168,-121 168,-146 191,-146 191,-121 168,-121"/>
<text text-anchor="start" x="173" y="-129.8" font-family="Times,serif" font-size="14.00">●</text>
<polygon fill="none" stroke="black" points="191,-96 191,-146 237,-146 237,-96 191,-96"/>
<text text-anchor="start" x="196" y="-117.3" font-family="Times,serif" font-size="14.00"> neq </text>
<polygon fill="none" stroke="black" points="237,-96 237,-146 260,-146 260,-96 237,-96"/>
<text text-anchor="start" x="242" y="-117.3" font-family="Times,serif" font-size="14.00">●</text>
<polygon fill="none" stroke="black" points="168,-96 168,-121 191,-121 191,-96 168,-96"/>
<text text-anchor="start" x="174.5" y="-104.8" font-family="Times,serif" font-size="14.00">0</text>
</g>
<!-- cluster_ForwardingUnit_io_memwbrd&#45;&gt;op_neq_360 -->
<g id="edge18" class="edge">
<title>cluster_ForwardingUnit_io_memwbrd&#45;&gt;op_neq_360:in1</title>
<path fill="none" stroke="black" d="M120.69,-140.96C132.18,-137.88 144.63,-135.37 156.83,-134.41"/>
<polygon fill="black" stroke="black" points="157.15,-137.9 167,-134 156.87,-130.91 157.15,-137.9"/>
</g>
<!-- cluster_ForwardingUnit_io_memwbrw -->
<g id="node6" class="node">
<title>cluster_ForwardingUnit_io_memwbrw</title>
<polygon fill="#cccccc" stroke="black" points="415,-134 304,-134 304,-98 415,-98 415,-134"/>
<text text-anchor="middle" x="359.5" y="-112.3" font-family="Times,serif" font-size="14.00">io_memwbrw</text>
</g>
<!-- op_and_349 -->
<g id="node16" class="node">
<title>op_and_349</title>
<polygon fill="#d8bfd8" stroke="transparent" points="459,-143 459,-193 551,-193 551,-143 459,-143"/>
<polygon fill="none" stroke="black" points="459,-168 459,-193 482,-193 482,-168 459,-168"/>
<text text-anchor="start" x="464" y="-176.8" font-family="Times,serif" font-size="14.00">●</text>
<polygon fill="none" stroke="black" points="482,-143 482,-193 528,-193 528,-143 482,-143"/>
<text text-anchor="start" x="487" y="-164.3" font-family="Times,serif" font-size="14.00"> and </text>
<polygon fill="none" stroke="black" points="528,-143 528,-193 551,-193 551,-143 528,-143"/>
<text text-anchor="start" x="533" y="-164.3" font-family="Times,serif" font-size="14.00">●</text>
<polygon fill="none" stroke="black" points="459,-143 459,-168 482,-168 482,-143 459,-143"/>
<text text-anchor="start" x="464" y="-151.8" font-family="Times,serif" font-size="14.00">●</text>
</g>
<!-- cluster_ForwardingUnit_io_memwbrw&#45;&gt;op_and_349 -->
<g id="edge8" class="edge">
<title>cluster_ForwardingUnit_io_memwbrw&#45;&gt;op_and_349:in2</title>
<path fill="none" stroke="black" d="M397.5,-134.13C414.63,-142.01 434.15,-150.18 447.76,-153.48"/>
<polygon fill="black" stroke="black" points="447.6,-157 458,-155 448.62,-150.07 447.6,-157"/>
</g>
<!-- op_and_357 -->
<g id="node26" class="node">
<title>op_and_357</title>
<polygon fill="#d8bfd8" stroke="transparent" points="459,-219 459,-269 551,-269 551,-219 459,-219"/>
<polygon fill="none" stroke="black" points="459,-244 459,-269 482,-269 482,-244 459,-244"/>
<text text-anchor="start" x="464" y="-252.8" font-family="Times,serif" font-size="14.00">●</text>
<polygon fill="none" stroke="black" points="482,-219 482,-269 528,-269 528,-219 482,-219"/>
<text text-anchor="start" x="487" y="-240.3" font-family="Times,serif" font-size="14.00"> and </text>
<polygon fill="none" stroke="black" points="528,-219 528,-269 551,-269 551,-219 528,-219"/>
<text text-anchor="start" x="533" y="-240.3" font-family="Times,serif" font-size="14.00">●</text>
<polygon fill="none" stroke="black" points="459,-219 459,-244 482,-244 482,-219 459,-219"/>
<text text-anchor="start" x="464" y="-227.8" font-family="Times,serif" font-size="14.00">●</text>
</g>
<!-- cluster_ForwardingUnit_io_memwbrw&#45;&gt;op_and_357 -->
<g id="edge31" class="edge">
<title>cluster_ForwardingUnit_io_memwbrw&#45;&gt;op_and_357:in2</title>
<path fill="none" stroke="black" d="M403.49,-134.15C407.62,-136.79 411.54,-139.74 415,-143 438.47,-165.12 428.71,-182.7 451,-206 454.34,-209.5 458.91,-210.08 462.72,-210.88"/>
<polygon fill="black" stroke="black" points="460.4,-213.51 470,-218 465.3,-208.51 460.4,-213.51"/>
</g>
<!-- cluster_ForwardingUnit_io_forwardA -->
<g id="node7" class="node">
<title>cluster_ForwardingUnit_io_forwardA</title>
<polygon fill="#e0ffff" stroke="black" points="965.5,-200 863.5,-200 863.5,-164 965.5,-164 965.5,-200"/>
<text text-anchor="middle" x="914.5" y="-178.3" font-family="Times,serif" font-size="14.00">io_forwardA</text>
</g>
<!-- cluster_ForwardingUnit_io_forwardB -->
<g id="node8" class="node">
<title>cluster_ForwardingUnit_io_forwardB</title>
<polygon fill="#e0ffff" stroke="black" points="966,-276 863,-276 863,-240 966,-240 966,-276"/>
<text text-anchor="middle" x="914.5" y="-254.3" font-family="Times,serif" font-size="14.00">io_forwardB</text>
</g>
<!-- cluster_ForwardingUnit__T -->
<g id="node9" class="node">
<title>cluster_ForwardingUnit__T</title>
<polygon fill="none" stroke="black" points="386.5,-340 332.5,-340 332.5,-304 386.5,-304 386.5,-340"/>
<text text-anchor="middle" x="359.5" y="-318.3" font-family="Times,serif" font-size="14.00">_T</text>
</g>
<!-- op_and_347 -->
<g id="node13" class="node">
<title>op_and_347</title>
<polygon fill="#d8bfd8" stroke="transparent" points="459,-349 459,-399 551,-399 551,-349 459,-349"/>
<polygon fill="none" stroke="black" points="459,-374 459,-399 482,-399 482,-374 459,-374"/>
<text text-anchor="start" x="464" y="-382.8" font-family="Times,serif" font-size="14.00">●</text>
<polygon fill="none" stroke="black" points="482,-349 482,-399 528,-399 528,-349 482,-349"/>
<text text-anchor="start" x="487" y="-370.3" font-family="Times,serif" font-size="14.00"> and </text>
<polygon fill="none" stroke="black" points="528,-349 528,-399 551,-399 551,-349 528,-349"/>
<text text-anchor="start" x="533" y="-370.3" font-family="Times,serif" font-size="14.00">●</text>
<polygon fill="none" stroke="black" points="459,-349 459,-374 482,-374 482,-349 459,-349"/>
<text text-anchor="start" x="464" y="-357.8" font-family="Times,serif" font-size="14.00">●</text>
</g>
<!-- cluster_ForwardingUnit__T&#45;&gt;op_and_347 -->
<g id="edge28" class="edge">
<title>cluster_ForwardingUnit__T&#45;&gt;op_and_347:in1</title>
<path fill="none" stroke="black" d="M386.51,-333.16C395.8,-337.59 406.15,-343.05 415,-349 432.86,-361.01 433.04,-379.8 447.98,-385.39"/>
<polygon fill="black" stroke="black" points="447.57,-388.87 458,-387 448.68,-381.95 447.57,-388.87"/>
</g>
<!-- op_eq_345&#45;&gt;cluster_ForwardingUnit__T -->
<g id="edge6" class="edge">
<title>op_eq_345:out&#45;&gt;cluster_ForwardingUnit__T</title>
<path fill="none" stroke="black" d="M257,-349C279.36,-349 303.59,-342.8 322.76,-336.35"/>
<polygon fill="black" stroke="black" points="324.03,-339.61 332.29,-332.98 321.7,-333.01 324.03,-339.61"/>
</g>
<!-- mux_521785226 -->
<g id="node11" class="node">
<title>mux_521785226</title>
<polygon fill="#afeeee" stroke="transparent" points="747,-157 747,-207 819,-207 819,-157 747,-157"/>
<polygon fill="none" stroke="black" points="747,-182 747,-207 770,-207 770,-182 747,-182"/>
<text text-anchor="start" x="753.5" y="-190.8" font-family="Times,serif" font-size="14.00">1</text>
<polygon fill="none" stroke="black" points="770,-157 770,-207 796,-207 796,-157 770,-157"/>
<text text-anchor="start" x="775" y="-178.3" font-family="Times,serif" font-size="14.00">a?</text>
<polygon fill="none" stroke="black" points="796,-157 796,-207 819,-207 819,-157 796,-157"/>
<text text-anchor="start" x="801" y="-178.3" font-family="Times,serif" font-size="14.00">●</text>
<polygon fill="none" stroke="black" points="747,-157 747,-182 770,-182 770,-157 747,-157"/>
<text text-anchor="start" x="752" y="-165.8" font-family="Times,serif" font-size="14.00">●</text>
</g>
<!-- mux_521785226&#45;&gt;cluster_ForwardingUnit_io_forwardA -->
<g id="edge23" class="edge">
<title>mux_521785226:out&#45;&gt;cluster_ForwardingUnit_io_forwardA</title>
<path fill="none" stroke="black" d="M820,-182C830.58,-182 841.83,-182 852.73,-182"/>
<polygon fill="black" stroke="black" points="853.03,-185.5 863.03,-182 853.03,-178.5 853.03,-185.5"/>
</g>
<!-- op_and_346&#45;&gt;mux_521785226 -->
<g id="edge32" class="edge">
<title>op_and_346:out&#45;&gt;mux_521785226:select</title>
<path fill="none" stroke="black" d="M684,-295C684,-285.01 696.1,-290.22 703,-283 725.29,-259.7 713.5,-239.75 739,-220 750.89,-210.79 769.37,-219.81 778.11,-216.78"/>
<polygon fill="black" stroke="black" points="781.19,-218.44 783,-208 775.07,-215.03 781.19,-218.44"/>
</g>
<!-- op_and_347&#45;&gt;op_and_346 -->
<g id="edge25" class="edge">
<title>op_and_347:out&#45;&gt;op_and_346:in1</title>
<path fill="none" stroke="black" d="M552,-374C576.46,-374 574.79,-344.46 591.9,-336.15"/>
<polygon fill="black" stroke="black" points="592.95,-339.51 602,-334 591.49,-332.66 592.95,-339.51"/>
</g>
<!-- op_neq_348&#45;&gt;op_and_347 -->
<g id="edge21" class="edge">
<title>op_neq_348:out&#45;&gt;op_and_347:in2</title>
<path fill="none" stroke="black" d="M406.5,-387C428.33,-387 431.73,-368.15 448.1,-362.55"/>
<polygon fill="black" stroke="black" points="448.66,-366 458,-361 447.58,-359.09 448.66,-366"/>
</g>
<!-- mux_502205802 -->
<g id="node15" class="node">
<title>mux_502205802</title>
<polygon fill="#afeeee" stroke="transparent" points="614.5,-144 614.5,-194 683.5,-194 683.5,-144 614.5,-144"/>
<polygon fill="none" stroke="black" points="615,-169 615,-194 635,-194 635,-169 615,-169"/>
<text text-anchor="start" x="620" y="-177.8" font-family="Times,serif" font-size="14.00">2</text>
<polygon fill="none" stroke="black" points="635,-144 635,-194 661,-194 661,-144 635,-144"/>
<text text-anchor="start" x="640" y="-165.3" font-family="Times,serif" font-size="14.00">a?</text>
<polygon fill="none" stroke="black" points="661,-144 661,-194 684,-194 684,-144 661,-144"/>
<text text-anchor="start" x="666" y="-165.3" font-family="Times,serif" font-size="14.00">●</text>
<polygon fill="none" stroke="black" points="615,-144 615,-169 635,-169 635,-144 615,-144"/>
<text text-anchor="start" x="620" y="-152.8" font-family="Times,serif" font-size="14.00">0</text>
</g>
<!-- mux_502205802&#45;&gt;mux_521785226 -->
<g id="edge30" class="edge">
<title>mux_502205802:out&#45;&gt;mux_521785226:in2</title>
<path fill="none" stroke="black" d="M685,-169C708.4,-169 716.66,-169 735.92,-169"/>
<polygon fill="black" stroke="black" points="736,-172.5 746,-169 736,-165.5 736,-172.5"/>
</g>
<!-- op_and_349&#45;&gt;mux_502205802 -->
<g id="edge34" class="edge">
<title>op_and_349:out&#45;&gt;mux_502205802:select</title>
<path fill="none" stroke="black" d="M552,-168C578.47,-168 580.67,-149.76 606.5,-144 619.3,-141.14 634.88,-132.52 642.81,-134.4"/>
<polygon fill="black" stroke="black" points="639.84,-136.25 648,-143 645.83,-132.63 639.84,-136.25"/>
</g>
<!-- op_and_350 -->
<g id="node17" class="node">
<title>op_and_350</title>
<polygon fill="#d8bfd8" stroke="transparent" points="313.5,-156 313.5,-206 405.5,-206 405.5,-156 313.5,-156"/>
<polygon fill="none" stroke="black" points="313.5,-181 313.5,-206 336.5,-206 336.5,-181 313.5,-181"/>
<text text-anchor="start" x="318.5" y="-189.8" font-family="Times,serif" font-size="14.00">●</text>
<polygon fill="none" stroke="black" points="336.5,-156 336.5,-206 382.5,-206 382.5,-156 336.5,-156"/>
<text text-anchor="start" x="341.5" y="-177.3" font-family="Times,serif" font-size="14.00"> and </text>
<polygon fill="none" stroke="black" points="382.5,-156 382.5,-206 405.5,-206 405.5,-156 382.5,-156"/>
<text text-anchor="start" x="387.5" y="-177.3" font-family="Times,serif" font-size="14.00">●</text>
<polygon fill="none" stroke="black" points="313.5,-156 313.5,-181 336.5,-181 336.5,-156 313.5,-156"/>
<text text-anchor="start" x="318.5" y="-164.8" font-family="Times,serif" font-size="14.00">●</text>
</g>
<!-- op_and_350&#45;&gt;op_and_349 -->
<g id="edge19" class="edge">
<title>op_and_350:out&#45;&gt;op_and_349:in1</title>
<path fill="none" stroke="black" d="M406.5,-181C425.63,-181 432.77,-181 447.97,-181"/>
<polygon fill="black" stroke="black" points="448,-184.5 458,-181 448,-177.5 448,-184.5"/>
</g>
<!-- op_eq_351&#45;&gt;op_and_350 -->
<g id="edge11" class="edge">
<title>op_eq_351:out&#45;&gt;op_and_350:in1</title>
<path fill="none" stroke="black" d="M257,-197C277.84,-197 285.44,-194.86 302.14,-194.2"/>
<polygon fill="black" stroke="black" points="302.57,-197.69 312.5,-194 302.44,-190.69 302.57,-197.69"/>
</g>
<!-- op_neq_352&#45;&gt;op_and_350 -->
<g id="edge29" class="edge">
<title>op_neq_352:out&#45;&gt;op_and_350:in2</title>
<path fill="none" stroke="black" d="M249,-71C249,-80.99 261.02,-75.86 268,-83 289.74,-105.24 281.89,-121.13 304,-143 307.87,-146.83 313.2,-147.09 317.45,-147.9"/>
<polygon fill="black" stroke="black" points="314.97,-150.37 324.5,-155 319.94,-145.44 314.97,-150.37"/>
</g>
<!-- mux_53686506 -->
<g id="node20" class="node">
<title>mux_53686506</title>
<polygon fill="#afeeee" stroke="transparent" points="747,-233 747,-283 819,-283 819,-233 747,-233"/>
<polygon fill="none" stroke="black" points="747,-258 747,-283 770,-283 770,-258 747,-258"/>
<text text-anchor="start" x="753.5" y="-266.8" font-family="Times,serif" font-size="14.00">1</text>
<polygon fill="none" stroke="black" points="770,-233 770,-283 796,-283 796,-233 770,-233"/>
<text text-anchor="start" x="775" y="-254.3" font-family="Times,serif" font-size="14.00">a?</text>
<polygon fill="none" stroke="black" points="796,-233 796,-283 819,-283 819,-233 796,-233"/>
<text text-anchor="start" x="801" y="-254.3" font-family="Times,serif" font-size="14.00">●</text>
<polygon fill="none" stroke="black" points="747,-233 747,-258 770,-258 770,-233 747,-233"/>
<text text-anchor="start" x="752" y="-241.8" font-family="Times,serif" font-size="14.00">●</text>
</g>
<!-- mux_53686506&#45;&gt;cluster_ForwardingUnit_io_forwardB -->
<g id="edge13" class="edge">
<title>mux_53686506:out&#45;&gt;cluster_ForwardingUnit_io_forwardB</title>
<path fill="none" stroke="black" d="M820,-258C830.46,-258 841.57,-258 852.35,-258"/>
<polygon fill="black" stroke="black" points="852.55,-261.5 862.55,-258 852.55,-254.5 852.55,-261.5"/>
</g>
<!-- op_and_353&#45;&gt;mux_53686506 -->
<g id="edge10" class="edge">
<title>op_and_353:out&#45;&gt;mux_53686506:select</title>
<path fill="none" stroke="black" d="M684,-371C684,-361.01 695.1,-365.11 703,-359 738.69,-331.4 776.86,-332.39 782.33,-294.02"/>
<polygon fill="black" stroke="black" points="785.83,-294.21 783,-284 778.84,-293.75 785.83,-294.21"/>
</g>
<!-- op_and_354 -->
<g id="node22" class="node">
<title>op_and_354</title>
<polygon fill="#d8bfd8" stroke="transparent" points="313.5,-438 313.5,-488 405.5,-488 405.5,-438 313.5,-438"/>
<polygon fill="none" stroke="black" points="313.5,-463 313.5,-488 336.5,-488 336.5,-463 313.5,-463"/>
<text text-anchor="start" x="318.5" y="-471.8" font-family="Times,serif" font-size="14.00">●</text>
<polygon fill="none" stroke="black" points="336.5,-438 336.5,-488 382.5,-488 382.5,-438 336.5,-438"/>
<text text-anchor="start" x="341.5" y="-459.3" font-family="Times,serif" font-size="14.00"> and </text>
<polygon fill="none" stroke="black" points="382.5,-438 382.5,-488 405.5,-488 405.5,-438 382.5,-438"/>
<text text-anchor="start" x="387.5" y="-459.3" font-family="Times,serif" font-size="14.00">●</text>
<polygon fill="none" stroke="black" points="313.5,-438 313.5,-463 336.5,-463 336.5,-438 313.5,-438"/>
<text text-anchor="start" x="318.5" y="-446.8" font-family="Times,serif" font-size="14.00">●</text>
</g>
<!-- op_and_354&#45;&gt;op_and_353 -->
<g id="edge1" class="edge">
<title>op_and_354:out&#45;&gt;op_and_353:in1</title>
<path fill="none" stroke="black" d="M406.5,-463C493.01,-463 510.65,-414.06 591.78,-410.24"/>
<polygon fill="black" stroke="black" points="592.08,-413.73 602,-410 591.92,-406.73 592.08,-413.73"/>
</g>
<!-- op_eq_355&#45;&gt;op_and_354 -->
<g id="edge14" class="edge">
<title>op_eq_355:out&#45;&gt;op_and_354:in1</title>
<path fill="none" stroke="black" d="M257,-521C284.91,-521 282.1,-486.24 302.57,-477.82"/>
<polygon fill="black" stroke="black" points="303.29,-481.25 312.5,-476 302.03,-474.36 303.29,-481.25"/>
</g>
<!-- op_neq_356&#45;&gt;op_and_354 -->
<g id="edge35" class="edge">
<title>op_neq_356:out&#45;&gt;op_and_354:in2</title>
<path fill="none" stroke="black" d="M261,-445C280.22,-445 287.23,-448.49 302.44,-449.64"/>
<polygon fill="black" stroke="black" points="302.38,-453.14 312.5,-450 302.63,-446.14 302.38,-453.14"/>
</g>
<!-- mux_944330222 -->
<g id="node25" class="node">
<title>mux_944330222</title>
<polygon fill="#afeeee" stroke="transparent" points="614.5,-220 614.5,-270 683.5,-270 683.5,-220 614.5,-220"/>
<polygon fill="none" stroke="black" points="615,-245 615,-270 635,-270 635,-245 615,-245"/>
<text text-anchor="start" x="620" y="-253.8" font-family="Times,serif" font-size="14.00">2</text>
<polygon fill="none" stroke="black" points="635,-220 635,-270 661,-270 661,-220 635,-220"/>
<text text-anchor="start" x="640" y="-241.3" font-family="Times,serif" font-size="14.00">a?</text>
<polygon fill="none" stroke="black" points="661,-220 661,-270 684,-270 684,-220 661,-220"/>
<text text-anchor="start" x="666" y="-241.3" font-family="Times,serif" font-size="14.00">●</text>
<polygon fill="none" stroke="black" points="615,-220 615,-245 635,-245 635,-220 615,-220"/>
<text text-anchor="start" x="620" y="-228.8" font-family="Times,serif" font-size="14.00">0</text>
</g>
<!-- mux_944330222&#45;&gt;mux_53686506 -->
<g id="edge17" class="edge">
<title>mux_944330222:out&#45;&gt;mux_53686506:in2</title>
<path fill="none" stroke="black" d="M685,-245C708.4,-245 716.66,-245 735.92,-245"/>
<polygon fill="black" stroke="black" points="736,-248.5 746,-245 736,-241.5 736,-248.5"/>
</g>
<!-- op_and_357&#45;&gt;mux_944330222 -->
<g id="edge36" class="edge">
<title>op_and_357:out&#45;&gt;mux_944330222:select</title>
<path fill="none" stroke="black" d="M552,-244C578.47,-244 580.67,-225.76 606.5,-220 619.3,-217.14 634.88,-208.52 642.81,-210.4"/>
<polygon fill="black" stroke="black" points="639.84,-212.25 648,-219 645.83,-208.63 639.84,-212.25"/>
</g>
<!-- op_and_358 -->
<g id="node27" class="node">
<title>op_and_358</title>
<polygon fill="#d8bfd8" stroke="transparent" points="313.5,-232 313.5,-282 405.5,-282 405.5,-232 313.5,-232"/>
<polygon fill="none" stroke="black" points="313.5,-257 313.5,-282 336.5,-282 336.5,-257 313.5,-257"/>
<text text-anchor="start" x="318.5" y="-265.8" font-family="Times,serif" font-size="14.00">●</text>
<polygon fill="none" stroke="black" points="336.5,-232 336.5,-282 382.5,-282 382.5,-232 336.5,-232"/>
<text text-anchor="start" x="341.5" y="-253.3" font-family="Times,serif" font-size="14.00"> and </text>
<polygon fill="none" stroke="black" points="382.5,-232 382.5,-282 405.5,-282 405.5,-232 382.5,-232"/>
<text text-anchor="start" x="387.5" y="-253.3" font-family="Times,serif" font-size="14.00">●</text>
<polygon fill="none" stroke="black" points="313.5,-232 313.5,-257 336.5,-257 336.5,-232 313.5,-232"/>
<text text-anchor="start" x="318.5" y="-240.8" font-family="Times,serif" font-size="14.00">●</text>
</g>
<!-- op_and_358&#45;&gt;op_and_357 -->
<g id="edge4" class="edge">
<title>op_and_358:out&#45;&gt;op_and_357:in1</title>
<path fill="none" stroke="black" d="M406.5,-257C425.63,-257 432.77,-257 447.97,-257"/>
<polygon fill="black" stroke="black" points="448,-260.5 458,-257 448,-253.5 448,-260.5"/>
</g>
<!-- op_eq_359&#45;&gt;op_and_358 -->
<g id="edge16" class="edge">
<title>op_eq_359:out&#45;&gt;op_and_358:in1</title>
<path fill="none" stroke="black" d="M257,-273C277.84,-273 285.44,-270.86 302.14,-270.2"/>
<polygon fill="black" stroke="black" points="302.57,-273.69 312.5,-270 302.44,-266.69 302.57,-273.69"/>
</g>
<!-- op_neq_360&#45;&gt;op_and_358 -->
<g id="edge2" class="edge">
<title>op_neq_360:out&#45;&gt;op_and_358:in2</title>
<path fill="none" stroke="black" d="M249,-147C249,-156.99 261.02,-151.86 268,-159 289.74,-181.24 281.89,-197.13 304,-219 307.87,-222.83 313.2,-223.09 317.45,-223.9"/>
<polygon fill="black" stroke="black" points="314.97,-226.37 324.5,-231 319.94,-221.44 314.97,-226.37"/>
</g>
</g>
</svg>
