<?xml version="1.0" encoding="UTF-8" standalone="no"?>
<?xml-stylesheet href="styles.css" type="text/css"?>
<!DOCTYPE svg PUBLIC "-//W3C//DTD SVG 1.1//EN"
 "http://www.w3.org/Graphics/SVG/1.1/DTD/svg11.dtd">
<!-- Generated by graphviz version 2.44.0 (0)
 -->
<!-- Title: HazardUnit Pages: 1 -->
<svg width="1163pt" height="401pt"
 viewBox="0.00 0.00 1163.00 401.00" xmlns="http://www.w3.org/2000/svg" xmlns:xlink="http://www.w3.org/1999/xlink">
<g id="graph0" class="graph" transform="scale(1 1) rotate(0) translate(4 397)">
<title>HazardUnit</title>
<polygon fill="white" stroke="transparent" points="-4,4 -4,-397 1159,-397 1159,4 -4,4"/>
<g id="clust1" class="cluster">
<title>cluster_HazardUnit</title>
<polygon fill="#fff8dc" stroke="black" points="8,-8 8,-385 1147,-385 1147,-8 8,-8"/>
<text text-anchor="middle" x="577.5" y="-369.8" font-family="Times,serif" font-size="14.00">HazardUnit</text>
</g>
<!-- cluster_HazardUnit_io_rs1 -->
<g id="node1" class="node">
<title>cluster_HazardUnit_io_rs1</title>
<polygon fill="#cccccc" stroke="black" points="90,-283 31,-283 31,-247 90,-247 90,-283"/>
<text text-anchor="middle" x="60.5" y="-261.3" font-family="Times,serif" font-size="14.00">io_rs1</text>
</g>
<!-- op_eq_361 -->
<g id="node12" class="node">
<title>op_eq_361</title>
<polygon fill="#d8bfd8" stroke="transparent" points="149,-253 149,-303 232,-303 232,-253 149,-253"/>
<polygon fill="none" stroke="black" points="149.5,-278 149.5,-303 172.5,-303 172.5,-278 149.5,-278"/>
<text text-anchor="start" x="154.5" y="-286.8" font-family="Times,serif" font-size="14.00">●</text>
<polygon fill="none" stroke="black" points="172.5,-253 172.5,-303 209.5,-303 209.5,-253 172.5,-253"/>
<text text-anchor="start" x="177.5" y="-274.3" font-family="Times,serif" font-size="14.00"> eq </text>
<polygon fill="none" stroke="black" points="209.5,-253 209.5,-303 232.5,-303 232.5,-253 209.5,-253"/>
<text text-anchor="start" x="214.5" y="-274.3" font-family="Times,serif" font-size="14.00">●</text>
<polygon fill="none" stroke="black" points="149.5,-253 149.5,-278 172.5,-278 172.5,-253 149.5,-253"/>
<text text-anchor="start" x="154.5" y="-261.8" font-family="Times,serif" font-size="14.00">●</text>
</g>
<!-- cluster_HazardUnit_io_rs1&#45;&gt;op_eq_361 -->
<g id="edge32" class="edge">
<title>cluster_HazardUnit_io_rs1&#45;&gt;op_eq_361:in2</title>
<path fill="none" stroke="black" d="M90.1,-265C104.16,-265 121.62,-265 138.27,-265"/>
<polygon fill="black" stroke="black" points="138.5,-268.5 148.5,-265 138.5,-261.5 138.5,-268.5"/>
</g>
<!-- cluster_HazardUnit_io_rs2 -->
<g id="node2" class="node">
<title>cluster_HazardUnit_io_rs2</title>
<polygon fill="#cccccc" stroke="black" points="90,-131 31,-131 31,-95 90,-95 90,-131"/>
<text text-anchor="middle" x="60.5" y="-109.3" font-family="Times,serif" font-size="14.00">io_rs2</text>
</g>
<!-- op_eq_364 -->
<g id="node17" class="node">
<title>op_eq_364</title>
<polygon fill="#d8bfd8" stroke="transparent" points="149,-101 149,-151 232,-151 232,-101 149,-101"/>
<polygon fill="none" stroke="black" points="149.5,-126 149.5,-151 172.5,-151 172.5,-126 149.5,-126"/>
<text text-anchor="start" x="154.5" y="-134.8" font-family="Times,serif" font-size="14.00">●</text>
<polygon fill="none" stroke="black" points="172.5,-101 172.5,-151 209.5,-151 209.5,-101 172.5,-101"/>
<text text-anchor="start" x="177.5" y="-122.3" font-family="Times,serif" font-size="14.00"> eq </text>
<polygon fill="none" stroke="black" points="209.5,-101 209.5,-151 232.5,-151 232.5,-101 209.5,-101"/>
<text text-anchor="start" x="214.5" y="-122.3" font-family="Times,serif" font-size="14.00">●</text>
<polygon fill="none" stroke="black" points="149.5,-101 149.5,-126 172.5,-126 172.5,-101 149.5,-101"/>
<text text-anchor="start" x="154.5" y="-109.8" font-family="Times,serif" font-size="14.00">●</text>
</g>
<!-- cluster_HazardUnit_io_rs2&#45;&gt;op_eq_364 -->
<g id="edge18" class="edge">
<title>cluster_HazardUnit_io_rs2&#45;&gt;op_eq_364:in2</title>
<path fill="none" stroke="black" d="M90.1,-113C104.16,-113 121.62,-113 138.27,-113"/>
<polygon fill="black" stroke="black" points="138.5,-116.5 148.5,-113 138.5,-109.5 138.5,-116.5"/>
</g>
<!-- op_eq_367 -->
<g id="node21" class="node">
<title>op_eq_367</title>
<polygon fill="#d8bfd8" stroke="transparent" points="149,-25 149,-75 232,-75 232,-25 149,-25"/>
<polygon fill="none" stroke="black" points="149.5,-50 149.5,-75 172.5,-75 172.5,-50 149.5,-50"/>
<text text-anchor="start" x="154.5" y="-58.8" font-family="Times,serif" font-size="14.00">●</text>
<polygon fill="none" stroke="black" points="172.5,-25 172.5,-75 209.5,-75 209.5,-25 172.5,-25"/>
<text text-anchor="start" x="177.5" y="-46.3" font-family="Times,serif" font-size="14.00"> eq </text>
<polygon fill="none" stroke="black" points="209.5,-25 209.5,-75 232.5,-75 232.5,-25 209.5,-25"/>
<text text-anchor="start" x="214.5" y="-46.3" font-family="Times,serif" font-size="14.00">●</text>
<polygon fill="none" stroke="black" points="149.5,-25 149.5,-50 172.5,-50 172.5,-25 149.5,-25"/>
<text text-anchor="start" x="154.5" y="-33.8" font-family="Times,serif" font-size="14.00">●</text>
</g>
<!-- cluster_HazardUnit_io_rs2&#45;&gt;op_eq_367 -->
<g id="edge16" class="edge">
<title>cluster_HazardUnit_io_rs2&#45;&gt;op_eq_367:in2</title>
<path fill="none" stroke="black" d="M71.58,-94.99C84.26,-74.71 108.11,-43.81 138.43,-37.97"/>
<polygon fill="black" stroke="black" points="138.88,-41.44 148.5,-37 138.21,-34.48 138.88,-41.44"/>
</g>
<!-- op_eq_371 -->
<g id="node25" class="node">
<title>op_eq_371</title>
<polygon fill="#d8bfd8" stroke="transparent" points="149,-177 149,-227 232,-227 232,-177 149,-177"/>
<polygon fill="none" stroke="black" points="149.5,-202 149.5,-227 172.5,-227 172.5,-202 149.5,-202"/>
<text text-anchor="start" x="154.5" y="-210.8" font-family="Times,serif" font-size="14.00">●</text>
<polygon fill="none" stroke="black" points="172.5,-177 172.5,-227 209.5,-227 209.5,-177 172.5,-177"/>
<text text-anchor="start" x="177.5" y="-198.3" font-family="Times,serif" font-size="14.00"> eq </text>
<polygon fill="none" stroke="black" points="209.5,-177 209.5,-227 232.5,-227 232.5,-177 209.5,-177"/>
<text text-anchor="start" x="214.5" y="-198.3" font-family="Times,serif" font-size="14.00">●</text>
<polygon fill="none" stroke="black" points="149.5,-177 149.5,-202 172.5,-202 172.5,-177 149.5,-177"/>
<text text-anchor="start" x="154.5" y="-185.8" font-family="Times,serif" font-size="14.00">●</text>
</g>
<!-- cluster_HazardUnit_io_rs2&#45;&gt;op_eq_371 -->
<g id="edge2" class="edge">
<title>cluster_HazardUnit_io_rs2&#45;&gt;op_eq_371:in2</title>
<path fill="none" stroke="black" d="M76.85,-131.01C93.48,-149.8 120.11,-177.7 138.65,-186.35"/>
<polygon fill="black" stroke="black" points="137.93,-189.78 148.5,-189 139.76,-183.02 137.93,-189.78"/>
</g>
<!-- cluster_HazardUnit_io_idex_memread -->
<g id="node3" class="node">
<title>cluster_HazardUnit_io_idex_memread</title>
<polygon fill="#cccccc" stroke="black" points="506,-222 366,-222 366,-186 506,-186 506,-222"/>
<text text-anchor="middle" x="436" y="-200.3" font-family="Times,serif" font-size="14.00">io_idex_memread</text>
</g>
<!-- op_and_362 -->
<g id="node15" class="node">
<title>op_and_362</title>
<polygon fill="#d8bfd8" stroke="transparent" points="563,-127 563,-177 655,-177 655,-127 563,-127"/>
<polygon fill="none" stroke="black" points="563,-152 563,-177 586,-177 586,-152 563,-152"/>
<text text-anchor="start" x="568" y="-160.8" font-family="Times,serif" font-size="14.00">●</text>
<polygon fill="none" stroke="black" points="586,-127 586,-177 632,-177 632,-127 586,-127"/>
<text text-anchor="start" x="591" y="-148.3" font-family="Times,serif" font-size="14.00"> and </text>
<polygon fill="none" stroke="black" points="632,-127 632,-177 655,-177 655,-127 632,-127"/>
<text text-anchor="start" x="637" y="-148.3" font-family="Times,serif" font-size="14.00">●</text>
<polygon fill="none" stroke="black" points="563,-127 563,-152 586,-152 586,-127 563,-127"/>
<text text-anchor="start" x="568" y="-135.8" font-family="Times,serif" font-size="14.00">●</text>
</g>
<!-- cluster_HazardUnit_io_idex_memread&#45;&gt;op_and_362 -->
<g id="edge3" class="edge">
<title>cluster_HazardUnit_io_idex_memread&#45;&gt;op_and_362:in1</title>
<path fill="none" stroke="black" d="M484.41,-185.98C507.63,-177.68 534.25,-169.02 551.61,-166.06"/>
<polygon fill="black" stroke="black" points="552.41,-169.5 562,-165 551.7,-162.53 552.41,-169.5"/>
</g>
<!-- op_and_365 -->
<g id="node19" class="node">
<title>op_and_365</title>
<polygon fill="#d8bfd8" stroke="transparent" points="563,-51 563,-101 655,-101 655,-51 563,-51"/>
<polygon fill="none" stroke="black" points="563,-76 563,-101 586,-101 586,-76 563,-76"/>
<text text-anchor="start" x="568" y="-84.8" font-family="Times,serif" font-size="14.00">●</text>
<polygon fill="none" stroke="black" points="586,-51 586,-101 632,-101 632,-51 586,-51"/>
<text text-anchor="start" x="591" y="-72.3" font-family="Times,serif" font-size="14.00"> and </text>
<polygon fill="none" stroke="black" points="632,-51 632,-101 655,-101 655,-51 632,-51"/>
<text text-anchor="start" x="637" y="-72.3" font-family="Times,serif" font-size="14.00">●</text>
<polygon fill="none" stroke="black" points="563,-51 563,-76 586,-76 586,-51 563,-51"/>
<text text-anchor="start" x="568" y="-59.8" font-family="Times,serif" font-size="14.00">●</text>
</g>
<!-- cluster_HazardUnit_io_idex_memread&#45;&gt;op_and_365 -->
<g id="edge27" class="edge">
<title>cluster_HazardUnit_io_idex_memread&#45;&gt;op_and_365:in1</title>
<path fill="none" stroke="black" d="M493.16,-185.95C497.74,-183.33 502.11,-180.36 506,-177 538.21,-149.19 519.41,-98.28 551.97,-90.12"/>
<polygon fill="black" stroke="black" points="552.45,-93.59 562,-89 551.67,-86.63 552.45,-93.59"/>
</g>
<!-- op_and_369 -->
<g id="node23" class="node">
<title>op_and_369</title>
<polygon fill="#d8bfd8" stroke="transparent" points="563,-260 563,-310 655,-310 655,-260 563,-260"/>
<polygon fill="none" stroke="black" points="563,-285 563,-310 586,-310 586,-285 563,-285"/>
<text text-anchor="start" x="568" y="-293.8" font-family="Times,serif" font-size="14.00">●</text>
<polygon fill="none" stroke="black" points="586,-260 586,-310 632,-310 632,-260 586,-260"/>
<text text-anchor="start" x="591" y="-281.3" font-family="Times,serif" font-size="14.00"> and </text>
<polygon fill="none" stroke="black" points="632,-260 632,-310 655,-310 655,-260 632,-260"/>
<text text-anchor="start" x="637" y="-281.3" font-family="Times,serif" font-size="14.00">●</text>
<polygon fill="none" stroke="black" points="563,-260 563,-285 586,-285 586,-260 563,-260"/>
<text text-anchor="start" x="568" y="-268.8" font-family="Times,serif" font-size="14.00">●</text>
</g>
<!-- cluster_HazardUnit_io_idex_memread&#45;&gt;op_and_369 -->
<g id="edge28" class="edge">
<title>cluster_HazardUnit_io_idex_memread&#45;&gt;op_and_369:in1</title>
<path fill="none" stroke="black" d="M491.13,-222.08C496.35,-224.73 501.41,-227.69 506,-231 534.42,-251.46 525.55,-289.55 552.06,-296.79"/>
<polygon fill="black" stroke="black" points="551.65,-300.27 562,-298 552.49,-293.32 551.65,-300.27"/>
</g>
<!-- cluster_HazardUnit_io_idex_rd -->
<g id="node4" class="node">
<title>cluster_HazardUnit_io_idex_rd</title>
<polygon fill="#cccccc" stroke="black" points="105,-207 16,-207 16,-171 105,-171 105,-207"/>
<text text-anchor="middle" x="60.5" y="-185.3" font-family="Times,serif" font-size="14.00">io_idex_rd</text>
</g>
<!-- cluster_HazardUnit_io_idex_rd&#45;&gt;op_eq_361 -->
<g id="edge6" class="edge">
<title>cluster_HazardUnit_io_idex_rd&#45;&gt;op_eq_361:in1</title>
<path fill="none" stroke="black" d="M77.78,-207C86.02,-216.2 96.14,-227.62 105,-238 122.24,-258.19 119.33,-283.42 138.43,-289.59"/>
<polygon fill="black" stroke="black" points="138.11,-293.08 148.5,-291 139.08,-286.15 138.11,-293.08"/>
</g>
<!-- cluster_HazardUnit_io_idex_rd&#45;&gt;op_eq_364 -->
<g id="edge1" class="edge">
<title>cluster_HazardUnit_io_idex_rd&#45;&gt;op_eq_364:in1</title>
<path fill="none" stroke="black" d="M79.8,-170.95C94.19,-158.47 115.55,-143.49 138.32,-139.83"/>
<polygon fill="black" stroke="black" points="138.82,-143.3 148.5,-139 138.25,-136.33 138.82,-143.3"/>
</g>
<!-- cluster_HazardUnit_io_idex_rd&#45;&gt;op_eq_367 -->
<g id="edge25" class="edge">
<title>cluster_HazardUnit_io_idex_rd&#45;&gt;op_eq_367:in1</title>
<path fill="none" stroke="black" d="M78.57,-170.84C86.82,-161.79 96.71,-150.56 105,-140 122.36,-117.89 120.6,-107.33 141,-88 144.69,-84.5 149.57,-84.04 153.52,-83.19"/>
<polygon fill="black" stroke="black" points="156.05,-85.61 160.5,-76 151.02,-80.74 156.05,-85.61"/>
</g>
<!-- cluster_HazardUnit_io_idex_rd&#45;&gt;op_eq_371 -->
<g id="edge13" class="edge">
<title>cluster_HazardUnit_io_idex_rd&#45;&gt;op_eq_371:in1</title>
<path fill="none" stroke="black" d="M104.12,-207.06C114.87,-210.49 126.67,-213.36 138.33,-214.49"/>
<polygon fill="black" stroke="black" points="138.34,-217.99 148.5,-215 138.69,-211 138.34,-217.99"/>
</g>
<!-- cluster_HazardUnit_io_exmem_taken -->
<g id="node5" class="node">
<title>cluster_HazardUnit_io_exmem_taken</title>
<polygon fill="#cccccc" stroke="black" points="676,-238 542,-238 542,-202 676,-202 676,-238"/>
<text text-anchor="middle" x="609" y="-216.3" font-family="Times,serif" font-size="14.00">io_exmem_taken</text>
</g>
<!-- cluster_HazardUnit_io_exmem_bubble -->
<g id="node9" class="node">
<title>cluster_HazardUnit_io_exmem_bubble</title>
<polygon fill="#e0ffff" stroke="black" points="855,-278 712,-278 712,-242 855,-242 855,-278"/>
<text text-anchor="middle" x="783.5" y="-256.3" font-family="Times,serif" font-size="14.00">io_exmem_bubble</text>
</g>
<!-- cluster_HazardUnit_io_exmem_taken&#45;&gt;cluster_HazardUnit_io_exmem_bubble -->
<g id="edge20" class="edge">
<title>cluster_HazardUnit_io_exmem_taken&#45;&gt;cluster_HazardUnit_io_exmem_bubble</title>
<path fill="none" stroke="black" d="M676.2,-235.35C684.69,-237.32 693.46,-239.35 702.14,-241.37"/>
<polygon fill="black" stroke="black" points="701.36,-244.78 711.89,-243.63 702.94,-237.96 701.36,-244.78"/>
</g>
<!-- cluster_HazardUnit_io_ifid_flush -->
<g id="node10" class="node">
<title>cluster_HazardUnit_io_ifid_flush</title>
<polygon fill="#e0ffff" stroke="black" points="833.5,-204 733.5,-204 733.5,-168 833.5,-168 833.5,-204"/>
<text text-anchor="middle" x="783.5" y="-182.3" font-family="Times,serif" font-size="14.00">io_ifid_flush</text>
</g>
<!-- cluster_HazardUnit_io_exmem_taken&#45;&gt;cluster_HazardUnit_io_ifid_flush -->
<g id="edge22" class="edge">
<title>cluster_HazardUnit_io_exmem_taken&#45;&gt;cluster_HazardUnit_io_ifid_flush</title>
<path fill="none" stroke="black" d="M676.2,-206.95C691.79,-203.88 708.3,-200.62 723.54,-197.62"/>
<polygon fill="black" stroke="black" points="724.22,-201.05 733.36,-195.69 722.87,-194.19 724.22,-201.05"/>
</g>
<!-- mux_1762780776 -->
<g id="node13" class="node">
<title>mux_1762780776</title>
<polygon fill="#afeeee" stroke="transparent" points="916,-153 916,-203 988,-203 988,-153 916,-153"/>
<polygon fill="none" stroke="black" points="916,-178 916,-203 939,-203 939,-178 916,-178"/>
<text text-anchor="start" x="922.5" y="-186.8" font-family="Times,serif" font-size="14.00">1</text>
<polygon fill="none" stroke="black" points="939,-153 939,-203 965,-203 965,-153 939,-153"/>
<text text-anchor="start" x="944" y="-174.3" font-family="Times,serif" font-size="14.00">a?</text>
<polygon fill="none" stroke="black" points="965,-153 965,-203 988,-203 988,-153 965,-153"/>
<text text-anchor="start" x="970" y="-174.3" font-family="Times,serif" font-size="14.00">●</text>
<polygon fill="none" stroke="black" points="916,-153 916,-178 939,-178 939,-153 916,-153"/>
<text text-anchor="start" x="921" y="-161.8" font-family="Times,serif" font-size="14.00">●</text>
</g>
<!-- cluster_HazardUnit_io_exmem_taken&#45;&gt;mux_1762780776 -->
<g id="edge31" class="edge">
<title>cluster_HazardUnit_io_exmem_taken&#45;&gt;mux_1762780776:select</title>
<path fill="none" stroke="black" d="M676.35,-223.42C764.54,-227.18 913.06,-230.47 945.58,-212.13"/>
<polygon fill="black" stroke="black" points="948.55,-214.02 952,-204 943.06,-209.68 948.55,-214.02"/>
</g>
<!-- mux_2021097234 -->
<g id="node18" class="node">
<title>mux_2021097234</title>
<polygon fill="#afeeee" stroke="transparent" points="747.5,-20 747.5,-70 819.5,-70 819.5,-20 747.5,-20"/>
<polygon fill="none" stroke="black" points="747.5,-45 747.5,-70 770.5,-70 770.5,-45 747.5,-45"/>
<text text-anchor="start" x="754" y="-53.8" font-family="Times,serif" font-size="14.00">0</text>
<polygon fill="none" stroke="black" points="770.5,-20 770.5,-70 796.5,-70 796.5,-20 770.5,-20"/>
<text text-anchor="start" x="775.5" y="-41.3" font-family="Times,serif" font-size="14.00">a?</text>
<polygon fill="none" stroke="black" points="796.5,-20 796.5,-70 819.5,-70 819.5,-20 796.5,-20"/>
<text text-anchor="start" x="801.5" y="-41.3" font-family="Times,serif" font-size="14.00">●</text>
<polygon fill="none" stroke="black" points="747.5,-20 747.5,-45 770.5,-45 770.5,-20 747.5,-20"/>
<text text-anchor="start" x="752.5" y="-28.8" font-family="Times,serif" font-size="14.00">●</text>
</g>
<!-- cluster_HazardUnit_io_exmem_taken&#45;&gt;mux_2021097234 -->
<g id="edge26" class="edge">
<title>cluster_HazardUnit_io_exmem_taken&#45;&gt;mux_2021097234:select</title>
<path fill="none" stroke="black" d="M661.57,-201.86C666.9,-198.5 671.87,-194.58 676,-190 709.62,-152.76 673.83,-115.56 712,-83 721.58,-74.83 759.83,-81.94 776.11,-77.75"/>
<polygon fill="black" stroke="black" points="778.48,-80.33 783.5,-71 773.76,-75.16 778.48,-80.33"/>
</g>
<!-- op_or_368 -->
<g id="node22" class="node">
<title>op_or_368</title>
<polygon fill="#d8bfd8" stroke="transparent" points="743,-300 743,-350 824,-350 824,-300 743,-300"/>
<polygon fill="none" stroke="black" points="743.5,-325 743.5,-350 766.5,-350 766.5,-325 743.5,-325"/>
<text text-anchor="start" x="748.5" y="-333.8" font-family="Times,serif" font-size="14.00">●</text>
<polygon fill="none" stroke="black" points="766.5,-300 766.5,-350 801.5,-350 801.5,-300 766.5,-300"/>
<text text-anchor="start" x="771.5" y="-321.3" font-family="Times,serif" font-size="14.00"> or </text>
<polygon fill="none" stroke="black" points="801.5,-300 801.5,-350 824.5,-350 824.5,-300 801.5,-300"/>
<text text-anchor="start" x="806.5" y="-321.3" font-family="Times,serif" font-size="14.00">●</text>
<polygon fill="none" stroke="black" points="743.5,-300 743.5,-325 766.5,-325 766.5,-300 743.5,-300"/>
<text text-anchor="start" x="748.5" y="-308.8" font-family="Times,serif" font-size="14.00">●</text>
</g>
<!-- cluster_HazardUnit_io_exmem_taken&#45;&gt;op_or_368 -->
<g id="edge5" class="edge">
<title>cluster_HazardUnit_io_exmem_taken&#45;&gt;op_or_368:in1</title>
<path fill="none" stroke="black" d="M662.33,-238.16C667.16,-240.78 671.81,-243.72 676,-247 712.52,-275.58 695.48,-329.24 732.5,-337.04"/>
<polygon fill="black" stroke="black" points="732.21,-340.53 742.5,-338 732.88,-333.56 732.21,-340.53"/>
</g>
<!-- cluster_HazardUnit_io_pcwrite -->
<g id="node6" class="node">
<title>cluster_HazardUnit_io_pcwrite</title>
<polygon fill="#e0ffff" stroke="black" points="1139,-196 1049,-196 1049,-160 1139,-160 1139,-196"/>
<text text-anchor="middle" x="1094" y="-174.3" font-family="Times,serif" font-size="14.00">io_pcwrite</text>
</g>
<!-- cluster_HazardUnit_io_ifid_bubble -->
<g id="node7" class="node">
<title>cluster_HazardUnit_io_ifid_bubble</title>
<polygon fill="#e0ffff" stroke="black" points="1009,-63 895,-63 895,-27 1009,-27 1009,-63"/>
<text text-anchor="middle" x="952" y="-41.3" font-family="Times,serif" font-size="14.00">io_ifid_bubble</text>
</g>
<!-- cluster_HazardUnit_io_idex_bubble -->
<g id="node8" class="node">
<title>cluster_HazardUnit_io_idex_bubble</title>
<polygon fill="#e0ffff" stroke="black" points="1013,-343 891,-343 891,-307 1013,-307 1013,-343"/>
<text text-anchor="middle" x="952" y="-321.3" font-family="Times,serif" font-size="14.00">io_idex_bubble</text>
</g>
<!-- cluster_HazardUnit__T -->
<g id="node11" class="node">
<title>cluster_HazardUnit__T</title>
<polygon fill="none" stroke="black" points="330,-209 276,-209 276,-173 330,-173 330,-209"/>
<text text-anchor="middle" x="303" y="-187.3" font-family="Times,serif" font-size="14.00">_T</text>
</g>
<!-- op_or_363 -->
<g id="node16" class="node">
<title>op_or_363</title>
<polygon fill="#d8bfd8" stroke="transparent" points="395.5,-114 395.5,-164 476.5,-164 476.5,-114 395.5,-114"/>
<polygon fill="none" stroke="black" points="396,-139 396,-164 419,-164 419,-139 396,-139"/>
<text text-anchor="start" x="401" y="-147.8" font-family="Times,serif" font-size="14.00">●</text>
<polygon fill="none" stroke="black" points="419,-114 419,-164 454,-164 454,-114 419,-114"/>
<text text-anchor="start" x="424" y="-135.3" font-family="Times,serif" font-size="14.00"> or </text>
<polygon fill="none" stroke="black" points="454,-114 454,-164 477,-164 477,-114 454,-114"/>
<text text-anchor="start" x="459" y="-135.3" font-family="Times,serif" font-size="14.00">●</text>
<polygon fill="none" stroke="black" points="396,-114 396,-139 419,-139 419,-114 396,-114"/>
<text text-anchor="start" x="401" y="-122.8" font-family="Times,serif" font-size="14.00">●</text>
</g>
<!-- cluster_HazardUnit__T&#45;&gt;op_or_363 -->
<g id="edge30" class="edge">
<title>cluster_HazardUnit__T&#45;&gt;op_or_363:in1</title>
<path fill="none" stroke="black" d="M330.22,-173.1C345.22,-164.33 364.98,-155.12 384.91,-152.65"/>
<polygon fill="black" stroke="black" points="385.24,-156.13 395,-152 384.8,-149.15 385.24,-156.13"/>
</g>
<!-- op_or_366 -->
<g id="node20" class="node">
<title>op_or_366</title>
<polygon fill="#d8bfd8" stroke="transparent" points="395.5,-38 395.5,-88 476.5,-88 476.5,-38 395.5,-38"/>
<polygon fill="none" stroke="black" points="396,-63 396,-88 419,-88 419,-63 396,-63"/>
<text text-anchor="start" x="401" y="-71.8" font-family="Times,serif" font-size="14.00">●</text>
<polygon fill="none" stroke="black" points="419,-38 419,-88 454,-88 454,-38 419,-38"/>
<text text-anchor="start" x="424" y="-59.3" font-family="Times,serif" font-size="14.00"> or </text>
<polygon fill="none" stroke="black" points="454,-38 454,-88 477,-88 477,-38 454,-38"/>
<text text-anchor="start" x="459" y="-59.3" font-family="Times,serif" font-size="14.00">●</text>
<polygon fill="none" stroke="black" points="396,-38 396,-63 419,-63 419,-38 396,-38"/>
<text text-anchor="start" x="401" y="-46.8" font-family="Times,serif" font-size="14.00">●</text>
</g>
<!-- cluster_HazardUnit__T&#45;&gt;op_or_366 -->
<g id="edge17" class="edge">
<title>cluster_HazardUnit__T&#45;&gt;op_or_366:in1</title>
<path fill="none" stroke="black" d="M311.96,-172.66C321.76,-152.21 340.33,-119.57 366,-101 377.06,-93 393.4,-100.11 401.72,-97.69"/>
<polygon fill="black" stroke="black" points="404.8,-99.36 407,-89 398.82,-95.73 404.8,-99.36"/>
</g>
<!-- op_or_370 -->
<g id="node24" class="node">
<title>op_or_370</title>
<polygon fill="#d8bfd8" stroke="transparent" points="395.5,-244 395.5,-294 476.5,-294 476.5,-244 395.5,-244"/>
<polygon fill="none" stroke="black" points="396,-269 396,-294 419,-294 419,-269 396,-269"/>
<text text-anchor="start" x="401" y="-277.8" font-family="Times,serif" font-size="14.00">●</text>
<polygon fill="none" stroke="black" points="419,-244 419,-294 454,-294 454,-244 419,-244"/>
<text text-anchor="start" x="424" y="-265.3" font-family="Times,serif" font-size="14.00"> or </text>
<polygon fill="none" stroke="black" points="454,-244 454,-294 477,-294 477,-244 454,-244"/>
<text text-anchor="start" x="459" y="-265.3" font-family="Times,serif" font-size="14.00">●</text>
<polygon fill="none" stroke="black" points="396,-244 396,-269 419,-269 419,-244 396,-244"/>
<text text-anchor="start" x="401" y="-252.8" font-family="Times,serif" font-size="14.00">●</text>
</g>
<!-- cluster_HazardUnit__T&#45;&gt;op_or_370 -->
<g id="edge9" class="edge">
<title>cluster_HazardUnit__T&#45;&gt;op_or_370:in1</title>
<path fill="none" stroke="black" d="M319.87,-209.42C338.59,-230.81 369.25,-264.77 385.81,-277.22"/>
<polygon fill="black" stroke="black" points="384.51,-280.5 395,-282 387.74,-274.28 384.51,-280.5"/>
</g>
<!-- op_eq_361&#45;&gt;cluster_HazardUnit__T -->
<g id="edge11" class="edge">
<title>op_eq_361:out&#45;&gt;cluster_HazardUnit__T</title>
<path fill="none" stroke="black" d="M221.5,-252C221.5,-242.2 232.04,-245.71 240,-240 250.63,-232.38 261.93,-223.64 271.94,-215.67"/>
<polygon fill="black" stroke="black" points="274.4,-218.19 280,-209.2 270.01,-212.74 274.4,-218.19"/>
</g>
<!-- mux_1762780776&#45;&gt;cluster_HazardUnit_io_pcwrite -->
<g id="edge7" class="edge">
<title>mux_1762780776:out&#45;&gt;cluster_HazardUnit_io_pcwrite</title>
<path fill="none" stroke="black" d="M989,-178C1005.14,-178 1022.7,-178 1038.71,-178"/>
<polygon fill="black" stroke="black" points="1038.97,-181.5 1048.97,-178 1038.97,-174.5 1038.97,-181.5"/>
</g>
<!-- mux_576862898 -->
<g id="node14" class="node">
<title>mux_576862898</title>
<polygon fill="#afeeee" stroke="transparent" points="749,-96 749,-146 818,-146 818,-96 749,-96"/>
<polygon fill="none" stroke="black" points="749.5,-121 749.5,-146 769.5,-146 769.5,-121 749.5,-121"/>
<text text-anchor="start" x="754.5" y="-129.8" font-family="Times,serif" font-size="14.00">2</text>
<polygon fill="none" stroke="black" points="769.5,-96 769.5,-146 795.5,-146 795.5,-96 769.5,-96"/>
<text text-anchor="start" x="774.5" y="-117.3" font-family="Times,serif" font-size="14.00">a?</text>
<polygon fill="none" stroke="black" points="795.5,-96 795.5,-146 818.5,-146 818.5,-96 795.5,-96"/>
<text text-anchor="start" x="800.5" y="-117.3" font-family="Times,serif" font-size="14.00">●</text>
<polygon fill="none" stroke="black" points="749.5,-96 749.5,-121 769.5,-121 769.5,-96 749.5,-96"/>
<text text-anchor="start" x="754.5" y="-104.8" font-family="Times,serif" font-size="14.00">0</text>
</g>
<!-- mux_576862898&#45;&gt;mux_1762780776 -->
<g id="edge10" class="edge">
<title>mux_576862898:out&#45;&gt;mux_1762780776:in2</title>
<path fill="none" stroke="black" d="M819.5,-121C862.58,-121 867.68,-158.39 904.82,-164.24"/>
<polygon fill="black" stroke="black" points="904.77,-167.74 915,-165 905.29,-160.76 904.77,-167.74"/>
</g>
<!-- op_and_362&#45;&gt;mux_576862898 -->
<g id="edge8" class="edge">
<title>op_and_362:out&#45;&gt;mux_576862898:select</title>
<path fill="none" stroke="black" d="M656,-152C667.7,-152 747.5,-158.28 773.98,-152.28"/>
<polygon fill="black" stroke="black" points="775.85,-155.25 782.5,-147 772.16,-149.3 775.85,-155.25"/>
</g>
<!-- op_or_363&#45;&gt;op_and_362 -->
<g id="edge23" class="edge">
<title>op_or_363:out&#45;&gt;op_and_362:in2</title>
<path fill="none" stroke="black" d="M478,-139C511.69,-139 522.58,-139 551.81,-139"/>
<polygon fill="black" stroke="black" points="552,-142.5 562,-139 552,-135.5 552,-142.5"/>
</g>
<!-- op_eq_364&#45;&gt;op_or_363 -->
<g id="edge15" class="edge">
<title>op_eq_364:out&#45;&gt;op_or_363:in2</title>
<path fill="none" stroke="black" d="M233.5,-126C301.77,-126 321.34,-126 384.86,-126"/>
<polygon fill="black" stroke="black" points="385,-129.5 395,-126 385,-122.5 385,-129.5"/>
</g>
<!-- mux_2021097234&#45;&gt;cluster_HazardUnit_io_ifid_bubble -->
<g id="edge19" class="edge">
<title>mux_2021097234:out&#45;&gt;cluster_HazardUnit_io_ifid_bubble</title>
<path fill="none" stroke="black" d="M820.5,-45C841.34,-45 864.04,-45 884.59,-45"/>
<polygon fill="black" stroke="black" points="884.79,-48.5 894.79,-45 884.79,-41.5 884.79,-48.5"/>
</g>
<!-- op_and_365&#45;&gt;mux_2021097234 -->
<g id="edge21" class="edge">
<title>op_and_365:out&#45;&gt;mux_2021097234:in2</title>
<path fill="none" stroke="black" d="M656,-76C697.06,-76 701.31,-38.92 736.33,-32.84"/>
<polygon fill="black" stroke="black" points="736.82,-36.31 746.5,-32 736.25,-29.33 736.82,-36.31"/>
</g>
<!-- op_or_366&#45;&gt;op_and_365 -->
<g id="edge12" class="edge">
<title>op_or_366:out&#45;&gt;op_and_365:in2</title>
<path fill="none" stroke="black" d="M478,-63C511.69,-63 522.58,-63 551.81,-63"/>
<polygon fill="black" stroke="black" points="552,-66.5 562,-63 552,-59.5 552,-66.5"/>
</g>
<!-- op_eq_367&#45;&gt;op_or_366 -->
<g id="edge4" class="edge">
<title>op_eq_367:out&#45;&gt;op_or_366:in2</title>
<path fill="none" stroke="black" d="M233.5,-50C301.77,-50 321.34,-50 384.86,-50"/>
<polygon fill="black" stroke="black" points="385,-53.5 395,-50 385,-46.5 385,-53.5"/>
</g>
<!-- op_or_368&#45;&gt;cluster_HazardUnit_io_idex_bubble -->
<g id="edge24" class="edge">
<title>op_or_368:out&#45;&gt;cluster_HazardUnit_io_idex_bubble</title>
<path fill="none" stroke="black" d="M825.5,-325C843.43,-325 862.81,-325 880.84,-325"/>
<polygon fill="black" stroke="black" points="880.99,-328.5 890.99,-325 880.99,-321.5 880.99,-328.5"/>
</g>
<!-- op_and_369&#45;&gt;op_or_368 -->
<g id="edge29" class="edge">
<title>op_and_369:out&#45;&gt;op_or_368:in2</title>
<path fill="none" stroke="black" d="M656,-285C692.66,-285 700.88,-307.37 732.43,-311.39"/>
<polygon fill="black" stroke="black" points="732.31,-314.88 742.5,-312 732.73,-307.9 732.31,-314.88"/>
</g>
<!-- op_or_370&#45;&gt;op_and_369 -->
<g id="edge14" class="edge">
<title>op_or_370:out&#45;&gt;op_and_369:in2</title>
<path fill="none" stroke="black" d="M478,-269C511.71,-269 522.56,-271.44 551.81,-271.92"/>
<polygon fill="black" stroke="black" points="551.97,-275.42 562,-272 552.03,-268.42 551.97,-275.42"/>
</g>
<!-- op_eq_371&#45;&gt;op_or_370 -->
<g id="edge33" class="edge">
<title>op_eq_371:out&#45;&gt;op_or_370:in2</title>
<path fill="none" stroke="black" d="M233.5,-202C253.68,-202 256.94,-211.37 276,-218 325.06,-235.06 337.89,-253.46 384.8,-255.76"/>
<polygon fill="black" stroke="black" points="384.92,-259.26 395,-256 385.09,-252.27 384.92,-259.26"/>
</g>
</g>
</svg>
