<?xml version="1.0" encoding="UTF-8" standalone="no"?>
<?xml-stylesheet href="styles.css" type="text/css"?>
<!DOCTYPE svg PUBLIC "-//W3C//DTD SVG 1.1//EN"
 "http://www.w3.org/Graphics/SVG/1.1/DTD/svg11.dtd">
<!-- Generated by graphviz version 2.44.0 (0)
 -->
<!-- Title: Top Pages: 1 -->
<svg width="502pt" height="754pt"
 viewBox="0.00 0.00 502.00 754.00" xmlns="http://www.w3.org/2000/svg" xmlns:xlink="http://www.w3.org/1999/xlink">
<g id="graph0" class="graph" transform="scale(1 1) rotate(0) translate(4 750)">
<title>Top</title>
<polygon fill="white" stroke="transparent" points="-4,4 -4,-750 498,-750 498,4 -4,4"/>
<g id="clust1" class="cluster">
<title>cluster_Top</title>
<polygon fill="#fff8dc" stroke="black" points="8,-8 8,-738 486,-738 486,-8 8,-8"/>
<text text-anchor="middle" x="247" y="-722.8" font-family="Times,serif" font-size="14.00">Top</text>
</g>
<g id="clust2" class="cluster">
<title>cluster_Top_cpu</title>
<g id="a_clust2"><a xlink:href="PipelinedCPU.dot.svg" xlink:title="cpu">
<polygon fill="#add8e6" stroke="black" points="98,-82 98,-697 278,-697 278,-82 98,-82"/>
<text text-anchor="middle" x="188" y="-681.8" font-family="Times,serif" font-size="14.00">cpu</text>
</a>
</g>
</g>
<g id="clust13" class="cluster">
<title>cluster_Top_mem</title>
<g id="a_clust13"><a xlink:href="DualPortedMemory.dot.svg" xlink:title="mem">
<polygon fill="#add8e6" stroke="black" points="298,-28 298,-643 478,-643 478,-28 298,-28"/>
<text text-anchor="middle" x="388" y="-627.8" font-family="Times,serif" font-size="14.00">mem</text>
</a>
</g>
</g>
<!-- cluster_Top_clock -->
<g id="node1" class="node">
<title>cluster_Top_clock</title>
<polygon fill="#cccccc" stroke="black" points="70,-686 16,-686 16,-650 70,-650 70,-686"/>
<text text-anchor="middle" x="43" y="-664.3" font-family="Times,serif" font-size="14.00">clock</text>
</g>
<!-- cluster_Top_cpu_clock -->
<g id="node4" class="node">
<title>cluster_Top_cpu_clock</title>
<polygon fill="#cccccc" stroke="black" points="215,-666 161,-666 161,-630 215,-630 215,-666"/>
<text text-anchor="middle" x="188" y="-644.3" font-family="Times,serif" font-size="14.00">clock</text>
</g>
<!-- cluster_Top_clock&#45;&gt;cluster_Top_cpu_clock -->
<g id="edge2" class="edge">
<title>cluster_Top_clock&#45;&gt;cluster_Top_cpu_clock</title>
<path fill="none" stroke="black" d="M70.23,-664.33C92.8,-661.17 125.61,-656.59 150.71,-653.08"/>
<polygon fill="black" stroke="black" points="151.52,-656.5 160.94,-651.65 150.55,-649.56 151.52,-656.5"/>
</g>
<!-- cluster_Top_mem_clock -->
<g id="node15" class="node">
<title>cluster_Top_mem_clock</title>
<polygon fill="#cccccc" stroke="black" points="415,-612 361,-612 361,-576 415,-576 415,-612"/>
<text text-anchor="middle" x="388" y="-590.3" font-family="Times,serif" font-size="14.00">clock</text>
</g>
<!-- cluster_Top_clock&#45;&gt;cluster_Top_mem_clock -->
<g id="edge9" class="edge">
<title>cluster_Top_clock&#45;&gt;cluster_Top_mem_clock</title>
<path fill="none" stroke="black" d="M67.4,-686.16C76.45,-692.11 87.21,-697.96 98,-701 175.01,-722.67 203.95,-731.27 278,-701 317.47,-684.86 350.37,-646.77 369.37,-620.68"/>
<polygon fill="black" stroke="black" points="372.35,-622.53 375.27,-612.34 366.64,-618.48 372.35,-622.53"/>
</g>
<!-- cluster_Top_reset -->
<g id="node2" class="node">
<title>cluster_Top_reset</title>
<polygon fill="#cccccc" stroke="black" points="70,-379 16,-379 16,-343 70,-343 70,-379"/>
<text text-anchor="middle" x="43" y="-357.3" font-family="Times,serif" font-size="14.00">reset</text>
</g>
<!-- cluster_Top_cpu_reset -->
<g id="node5" class="node">
<title>cluster_Top_cpu_reset</title>
<polygon fill="#cccccc" stroke="black" points="215,-612 161,-612 161,-576 215,-576 215,-612"/>
<text text-anchor="middle" x="188" y="-590.3" font-family="Times,serif" font-size="14.00">reset</text>
</g>
<!-- cluster_Top_reset&#45;&gt;cluster_Top_cpu_reset -->
<g id="edge5" class="edge">
<title>cluster_Top_reset&#45;&gt;cluster_Top_cpu_reset</title>
<path fill="none" stroke="black" d="M43.25,-379.21C42.65,-418.92 46.98,-513.99 98,-567 111.73,-581.26 132.73,-588.06 150.88,-591.27"/>
<polygon fill="black" stroke="black" points="150.48,-594.74 160.88,-592.74 151.5,-587.82 150.48,-594.74"/>
</g>
<!-- cluster_Top_mem_reset -->
<g id="node16" class="node">
<title>cluster_Top_mem_reset</title>
<polygon fill="#cccccc" stroke="black" points="415,-72 361,-72 361,-36 415,-36 415,-72"/>
<text text-anchor="middle" x="388" y="-50.3" font-family="Times,serif" font-size="14.00">reset</text>
</g>
<!-- cluster_Top_reset&#45;&gt;cluster_Top_mem_reset -->
<g id="edge12" class="edge">
<title>cluster_Top_reset&#45;&gt;cluster_Top_mem_reset</title>
<path fill="none" stroke="black" d="M44.71,-342.74C47.31,-285.88 58.4,-113.63 98,-78 102.65,-73.82 274.11,-61.67 350.69,-56.44"/>
<polygon fill="black" stroke="black" points="351.1,-59.92 360.84,-55.75 350.63,-52.94 351.1,-59.92"/>
</g>
<!-- cluster_Top_io_success -->
<g id="node3" class="node">
<title>cluster_Top_io_success</title>
<polygon fill="#e0ffff" stroke="black" points="233.5,-52 142.5,-52 142.5,-16 233.5,-16 233.5,-52"/>
<text text-anchor="middle" x="188" y="-30.3" font-family="Times,serif" font-size="14.00">io_success</text>
</g>
<!-- cluster_Top_cpu_io_imem_instruction -->
<g id="node6" class="node">
<title>cluster_Top_cpu_io_imem_instruction</title>
<polygon fill="#cccccc" stroke="black" points="268.5,-558 107.5,-558 107.5,-522 268.5,-522 268.5,-558"/>
<text text-anchor="middle" x="188" y="-536.3" font-family="Times,serif" font-size="14.00">io_imem_instruction</text>
</g>
<!-- cluster_Top_cpu_io_dmem_readdata -->
<g id="node7" class="node">
<title>cluster_Top_cpu_io_dmem_readdata</title>
<polygon fill="#cccccc" stroke="black" points="263.5,-504 112.5,-504 112.5,-468 263.5,-468 263.5,-504"/>
<text text-anchor="middle" x="188" y="-482.3" font-family="Times,serif" font-size="14.00">io_dmem_readdata</text>
</g>
<!-- cluster_Top_cpu_io_imem_address -->
<g id="node8" class="node">
<title>cluster_Top_cpu_io_imem_address</title>
<polygon fill="#e0ffff" stroke="black" points="257.5,-450 118.5,-450 118.5,-414 257.5,-414 257.5,-450"/>
<text text-anchor="middle" x="188" y="-428.3" font-family="Times,serif" font-size="14.00">io_imem_address</text>
</g>
<!-- cluster_Top_mem_io_imem_address -->
<g id="node17" class="node">
<title>cluster_Top_mem_io_imem_address</title>
<polygon fill="#cccccc" stroke="black" points="457.5,-450 318.5,-450 318.5,-414 457.5,-414 457.5,-450"/>
<text text-anchor="middle" x="388" y="-428.3" font-family="Times,serif" font-size="14.00">io_imem_address</text>
</g>
<!-- cluster_Top_cpu_io_imem_address&#45;&gt;cluster_Top_mem_io_imem_address -->
<g id="edge6" class="edge">
<title>cluster_Top_cpu_io_imem_address&#45;&gt;cluster_Top_mem_io_imem_address</title>
<path fill="none" stroke="black" d="M257.7,-432C273.97,-432 291.46,-432 308.15,-432"/>
<polygon fill="black" stroke="black" points="308.43,-435.5 318.43,-432 308.43,-428.5 308.43,-435.5"/>
</g>
<!-- cluster_Top_cpu_io_dmem_address -->
<g id="node9" class="node">
<title>cluster_Top_cpu_io_dmem_address</title>
<polygon fill="#e0ffff" stroke="black" points="259.5,-396 116.5,-396 116.5,-360 259.5,-360 259.5,-396"/>
<text text-anchor="middle" x="188" y="-374.3" font-family="Times,serif" font-size="14.00">io_dmem_address</text>
</g>
<!-- cluster_Top_mem_io_dmem_address -->
<g id="node18" class="node">
<title>cluster_Top_mem_io_dmem_address</title>
<polygon fill="#cccccc" stroke="black" points="459.5,-396 316.5,-396 316.5,-360 459.5,-360 459.5,-396"/>
<text text-anchor="middle" x="388" y="-374.3" font-family="Times,serif" font-size="14.00">io_dmem_address</text>
</g>
<!-- cluster_Top_cpu_io_dmem_address&#45;&gt;cluster_Top_mem_io_dmem_address -->
<g id="edge8" class="edge">
<title>cluster_Top_cpu_io_dmem_address&#45;&gt;cluster_Top_mem_io_dmem_address</title>
<path fill="none" stroke="black" d="M259.64,-378C274.77,-378 290.85,-378 306.32,-378"/>
<polygon fill="black" stroke="black" points="306.38,-381.5 316.38,-378 306.38,-374.5 306.38,-381.5"/>
</g>
<!-- cluster_Top_cpu_io_dmem_writedata -->
<g id="node10" class="node">
<title>cluster_Top_cpu_io_dmem_writedata</title>
<polygon fill="#e0ffff" stroke="black" points="266,-342 110,-342 110,-306 266,-306 266,-342"/>
<text text-anchor="middle" x="188" y="-320.3" font-family="Times,serif" font-size="14.00">io_dmem_writedata</text>
</g>
<!-- cluster_Top_mem_io_dmem_writedata -->
<g id="node19" class="node">
<title>cluster_Top_mem_io_dmem_writedata</title>
<polygon fill="#cccccc" stroke="black" points="466,-342 310,-342 310,-306 466,-306 466,-342"/>
<text text-anchor="middle" x="388" y="-320.3" font-family="Times,serif" font-size="14.00">io_dmem_writedata</text>
</g>
<!-- cluster_Top_cpu_io_dmem_writedata&#45;&gt;cluster_Top_mem_io_dmem_writedata -->
<g id="edge4" class="edge">
<title>cluster_Top_cpu_io_dmem_writedata&#45;&gt;cluster_Top_mem_io_dmem_writedata</title>
<path fill="none" stroke="black" d="M266.12,-324C277.09,-324 288.44,-324 299.6,-324"/>
<polygon fill="black" stroke="black" points="299.77,-327.5 309.77,-324 299.77,-320.5 299.77,-327.5"/>
</g>
<!-- cluster_Top_cpu_io_dmem_memread -->
<g id="node11" class="node">
<title>cluster_Top_cpu_io_dmem_memread</title>
<polygon fill="#e0ffff" stroke="black" points="265.5,-288 110.5,-288 110.5,-252 265.5,-252 265.5,-288"/>
<text text-anchor="middle" x="188" y="-266.3" font-family="Times,serif" font-size="14.00">io_dmem_memread</text>
</g>
<!-- cluster_Top_mem_io_dmem_memread -->
<g id="node20" class="node">
<title>cluster_Top_mem_io_dmem_memread</title>
<polygon fill="#cccccc" stroke="black" points="465.5,-288 310.5,-288 310.5,-252 465.5,-252 465.5,-288"/>
<text text-anchor="middle" x="388" y="-266.3" font-family="Times,serif" font-size="14.00">io_dmem_memread</text>
</g>
<!-- cluster_Top_cpu_io_dmem_memread&#45;&gt;cluster_Top_mem_io_dmem_memread -->
<g id="edge14" class="edge">
<title>cluster_Top_cpu_io_dmem_memread&#45;&gt;cluster_Top_mem_io_dmem_memread</title>
<path fill="none" stroke="black" d="M265.55,-270C276.91,-270 288.69,-270 300.25,-270"/>
<polygon fill="black" stroke="black" points="300.33,-273.5 310.33,-270 300.33,-266.5 300.33,-273.5"/>
</g>
<!-- cluster_Top_cpu_io_dmem_memwrite -->
<g id="node12" class="node">
<title>cluster_Top_cpu_io_dmem_memwrite</title>
<polygon fill="#e0ffff" stroke="black" points="268,-234 108,-234 108,-198 268,-198 268,-234"/>
<text text-anchor="middle" x="188" y="-212.3" font-family="Times,serif" font-size="14.00">io_dmem_memwrite</text>
</g>
<!-- cluster_Top_mem_io_dmem_memwrite -->
<g id="node21" class="node">
<title>cluster_Top_mem_io_dmem_memwrite</title>
<polygon fill="#cccccc" stroke="black" points="468,-234 308,-234 308,-198 468,-198 468,-234"/>
<text text-anchor="middle" x="388" y="-212.3" font-family="Times,serif" font-size="14.00">io_dmem_memwrite</text>
</g>
<!-- cluster_Top_cpu_io_dmem_memwrite&#45;&gt;cluster_Top_mem_io_dmem_memwrite -->
<g id="edge10" class="edge">
<title>cluster_Top_cpu_io_dmem_memwrite&#45;&gt;cluster_Top_mem_io_dmem_memwrite</title>
<path fill="none" stroke="black" d="M268.11,-216C277.78,-216 287.72,-216 297.53,-216"/>
<polygon fill="black" stroke="black" points="297.69,-219.5 307.69,-216 297.69,-212.5 297.69,-219.5"/>
</g>
<!-- cluster_Top_cpu_io_dmem_maskmode -->
<g id="node13" class="node">
<title>cluster_Top_cpu_io_dmem_maskmode</title>
<polygon fill="#e0ffff" stroke="black" points="270,-180 106,-180 106,-144 270,-144 270,-180"/>
<text text-anchor="middle" x="188" y="-158.3" font-family="Times,serif" font-size="14.00">io_dmem_maskmode</text>
</g>
<!-- cluster_Top_mem_io_dmem_maskmode -->
<g id="node22" class="node">
<title>cluster_Top_mem_io_dmem_maskmode</title>
<polygon fill="#cccccc" stroke="black" points="470,-180 306,-180 306,-144 470,-144 470,-180"/>
<text text-anchor="middle" x="388" y="-158.3" font-family="Times,serif" font-size="14.00">io_dmem_maskmode</text>
</g>
<!-- cluster_Top_cpu_io_dmem_maskmode&#45;&gt;cluster_Top_mem_io_dmem_maskmode -->
<g id="edge13" class="edge">
<title>cluster_Top_cpu_io_dmem_maskmode&#45;&gt;cluster_Top_mem_io_dmem_maskmode</title>
<path fill="none" stroke="black" d="M270.11,-162C278.46,-162 286.99,-162 295.44,-162"/>
<polygon fill="black" stroke="black" points="295.7,-165.5 305.7,-162 295.7,-158.5 295.7,-165.5"/>
</g>
<!-- cluster_Top_cpu_io_dmem_sext -->
<g id="node14" class="node">
<title>cluster_Top_cpu_io_dmem_sext</title>
<polygon fill="#e0ffff" stroke="black" points="246.5,-126 129.5,-126 129.5,-90 246.5,-90 246.5,-126"/>
<text text-anchor="middle" x="188" y="-104.3" font-family="Times,serif" font-size="14.00">io_dmem_sext</text>
</g>
<!-- cluster_Top_mem_io_dmem_sext -->
<g id="node23" class="node">
<title>cluster_Top_mem_io_dmem_sext</title>
<polygon fill="#cccccc" stroke="black" points="446.5,-126 329.5,-126 329.5,-90 446.5,-90 446.5,-126"/>
<text text-anchor="middle" x="388" y="-104.3" font-family="Times,serif" font-size="14.00">io_dmem_sext</text>
</g>
<!-- cluster_Top_cpu_io_dmem_sext&#45;&gt;cluster_Top_mem_io_dmem_sext -->
<g id="edge1" class="edge">
<title>cluster_Top_cpu_io_dmem_sext&#45;&gt;cluster_Top_mem_io_dmem_sext</title>
<path fill="none" stroke="black" d="M246.54,-108C269.21,-108 295.43,-108 319.03,-108"/>
<polygon fill="black" stroke="black" points="319.32,-111.5 329.32,-108 319.32,-104.5 319.32,-111.5"/>
</g>
<!-- cluster_Top_mem_io_imem_instruction -->
<g id="node24" class="node">
<title>cluster_Top_mem_io_imem_instruction</title>
<polygon fill="#e0ffff" stroke="black" points="468.5,-558 307.5,-558 307.5,-522 468.5,-522 468.5,-558"/>
<text text-anchor="middle" x="388" y="-536.3" font-family="Times,serif" font-size="14.00">io_imem_instruction</text>
</g>
<!-- cluster_Top_mem_io_imem_instruction&#45;&gt;cluster_Top_cpu_io_imem_instruction -->
<g id="edge7" class="edge">
<title>cluster_Top_mem_io_imem_instruction&#45;&gt;cluster_Top_cpu_io_imem_instruction</title>
<path fill="none" stroke="black" d="M307.48,-540C298.1,-540 288.47,-540 278.95,-540"/>
<polygon fill="black" stroke="black" points="278.68,-536.5 268.68,-540 278.68,-543.5 278.68,-536.5"/>
</g>
<!-- cluster_Top_mem_io_dmem_readdata -->
<g id="node25" class="node">
<title>cluster_Top_mem_io_dmem_readdata</title>
<polygon fill="#e0ffff" stroke="black" points="463.5,-504 312.5,-504 312.5,-468 463.5,-468 463.5,-504"/>
<text text-anchor="middle" x="388" y="-482.3" font-family="Times,serif" font-size="14.00">io_dmem_readdata</text>
</g>
<!-- cluster_Top_mem_io_dmem_readdata&#45;&gt;cluster_Top_cpu_io_dmem_readdata -->
<g id="edge11" class="edge">
<title>cluster_Top_mem_io_dmem_readdata&#45;&gt;cluster_Top_cpu_io_dmem_readdata</title>
<path fill="none" stroke="black" d="M312.49,-486C299.87,-486 286.67,-486 273.81,-486"/>
<polygon fill="black" stroke="black" points="273.57,-482.5 263.57,-486 273.57,-489.5 273.57,-482.5"/>
</g>
<!-- cluster_Top_lit1 -->
<g id="node26" class="node">
<title>cluster_Top_lit1</title>
<ellipse fill="lightgrey" stroke="black" cx="43" cy="-34" rx="18" ry="18"/>
<text text-anchor="middle" x="43" y="-30.3" font-family="Times,serif" font-size="14.00">0</text>
</g>
<!-- cluster_Top_lit1&#45;&gt;cluster_Top_io_success -->
<g id="edge3" class="edge">
<title>cluster_Top_lit1&#45;&gt;cluster_Top_io_success</title>
<path fill="none" stroke="black" d="M61.25,-34C78.81,-34 106.97,-34 132.19,-34"/>
<polygon fill="black" stroke="black" points="132.41,-37.5 142.41,-34 132.41,-30.5 132.41,-37.5"/>
</g>
</g>
</svg>
