<?xml version="1.0" encoding="UTF-8" standalone="no"?>
<?xml-stylesheet href="styles.css" type="text/css"?>
<!DOCTYPE svg PUBLIC "-//W3C//DTD SVG 1.1//EN"
 "http://www.w3.org/Graphics/SVG/1.1/DTD/svg11.dtd">
<!-- Generated by graphviz version 2.44.0 (0)
 -->
<!-- Title: Top_hierarchy Pages: 1 -->
<svg width="502pt" height="530pt"
 viewBox="0.00 0.00 502.00 530.00" xmlns="http://www.w3.org/2000/svg" xmlns:xlink="http://www.w3.org/1999/xlink">
<g id="graph0" class="graph" transform="scale(1 1) rotate(0) translate(4 526)">
<title>Top_hierarchy</title>
<polygon fill="white" stroke="transparent" points="-4,4 -4,-526 498,-526 498,4 -4,4"/>
<!-- module_1 -->
<g id="node1" class="node">
<title>module_1</title>
<g id="a_node1"><a xlink:href="Top.dot.svg" xlink:title="&lt;TABLE&gt;">
<polygon fill="#ffdead" stroke="transparent" points="8,-388 8,-413 54,-413 54,-388 8,-388"/>
<polygon fill="none" stroke="black" points="8,-388 8,-413 54,-413 54,-388 8,-388"/>
<text text-anchor="start" x="13.5" y="-396.8" font-family="Times,serif" font-size="14.00"> Top </text>
<polygon fill="#fff8dc" stroke="transparent" points="8,-363 8,-388 54,-388 54,-363 8,-363"/>
<polygon fill="none" stroke="black" points="8,-363 8,-388 54,-388 54,-363 8,-363"/>
<text text-anchor="start" x="13" y="-371.8" font-family="Times,serif" font-size="14.00">mem</text>
<polygon fill="#fff8dc" stroke="transparent" points="8,-338 8,-363 54,-363 54,-338 8,-338"/>
<polygon fill="none" stroke="black" points="8,-338 8,-363 54,-363 54,-338 8,-338"/>
<text text-anchor="start" x="18" y="-346.8" font-family="Times,serif" font-size="14.00">cpu</text>
</a>
</g>
</g>
<!-- module_2 -->
<g id="node2" class="node">
<title>module_2</title>
<g id="a_node2"><a xlink:href="DualPortedMemory.dot.svg" xlink:title="&lt;TABLE&gt;">
<polygon fill="#ffdead" stroke="transparent" points="106.5,-439 106.5,-464 265.5,-464 265.5,-439 106.5,-439"/>
<polygon fill="none" stroke="black" points="106.5,-439 106.5,-464 265.5,-464 265.5,-439 106.5,-439"/>
<text text-anchor="start" x="111.5" y="-447.8" font-family="Times,serif" font-size="14.00"> DualPortedMemory </text>
</a>
</g>
</g>
<!-- module_1&#45;&gt;module_2 -->
<g id="edge1" class="edge">
<title>module_1:module_2&#45;&gt;module_2</title>
<path fill="none" stroke="black" d="M55,-375C84.31,-375 73.51,-408.9 98,-425 100.4,-426.58 102.9,-428.07 105.48,-429.48"/>
<polygon fill="black" stroke="black" points="103.95,-432.63 114.46,-433.95 107.07,-426.36 103.95,-432.63"/>
</g>
<!-- module_3 -->
<g id="node3" class="node">
<title>module_3</title>
<g id="a_node3"><a xlink:href="PipelinedCPU.dot.svg" xlink:title="&lt;TABLE&gt;">
<polygon fill="#ffdead" stroke="transparent" points="126.5,-386 126.5,-411 244.5,-411 244.5,-386 126.5,-386"/>
<polygon fill="none" stroke="black" points="126.5,-386 126.5,-411 244.5,-411 244.5,-386 126.5,-386"/>
<text text-anchor="start" x="131.5" y="-394.8" font-family="Times,serif" font-size="14.00"> PipelinedCPU </text>
<polygon fill="#fff8dc" stroke="transparent" points="126.5,-361 126.5,-386 244.5,-386 244.5,-361 126.5,-361"/>
<polygon fill="none" stroke="black" points="126.5,-361 126.5,-386 244.5,-386 244.5,-361 126.5,-361"/>
<text text-anchor="start" x="174.5" y="-369.8" font-family="Times,serif" font-size="14.00">alu</text>
<polygon fill="#fff8dc" stroke="transparent" points="126.5,-336 126.5,-361 244.5,-361 244.5,-336 126.5,-336"/>
<polygon fill="none" stroke="black" points="126.5,-336 126.5,-361 244.5,-361 244.5,-336 126.5,-336"/>
<text text-anchor="start" x="147.5" y="-344.8" font-family="Times,serif" font-size="14.00">aluControl</text>
<polygon fill="#fff8dc" stroke="transparent" points="126.5,-311 126.5,-336 244.5,-336 244.5,-311 126.5,-311"/>
<polygon fill="none" stroke="black" points="126.5,-311 126.5,-336 244.5,-336 244.5,-311 126.5,-311"/>
<text text-anchor="start" x="146.5" y="-319.8" font-family="Times,serif" font-size="14.00">branchAdd</text>
<polygon fill="#fff8dc" stroke="transparent" points="126.5,-286 126.5,-311 244.5,-311 244.5,-286 126.5,-286"/>
<polygon fill="none" stroke="black" points="126.5,-286 126.5,-311 244.5,-311 244.5,-286 126.5,-286"/>
<text text-anchor="start" x="145" y="-294.8" font-family="Times,serif" font-size="14.00">pcPlusFour</text>
<polygon fill="#fff8dc" stroke="transparent" points="126.5,-261 126.5,-286 244.5,-286 244.5,-261 126.5,-261"/>
<polygon fill="none" stroke="black" points="126.5,-261 126.5,-286 244.5,-286 244.5,-261 126.5,-261"/>
<text text-anchor="start" x="146.5" y="-269.8" font-family="Times,serif" font-size="14.00">branchCtrl</text>
<polygon fill="#fff8dc" stroke="transparent" points="126.5,-236 126.5,-261 244.5,-261 244.5,-236 126.5,-236"/>
<polygon fill="none" stroke="black" points="126.5,-236 126.5,-261 244.5,-261 244.5,-236 126.5,-236"/>
<text text-anchor="start" x="160" y="-244.8" font-family="Times,serif" font-size="14.00">control</text>
<polygon fill="#fff8dc" stroke="transparent" points="126.5,-211 126.5,-236 244.5,-236 244.5,-211 126.5,-211"/>
<polygon fill="none" stroke="black" points="126.5,-211 126.5,-236 244.5,-236 244.5,-211 126.5,-211"/>
<text text-anchor="start" x="146" y="-219.8" font-family="Times,serif" font-size="14.00">forwarding</text>
<polygon fill="#fff8dc" stroke="transparent" points="126.5,-186 126.5,-211 244.5,-211 244.5,-186 126.5,-186"/>
<polygon fill="none" stroke="black" points="126.5,-186 126.5,-211 244.5,-211 244.5,-186 126.5,-186"/>
<text text-anchor="start" x="161" y="-194.8" font-family="Times,serif" font-size="14.00">hazard</text>
<polygon fill="#fff8dc" stroke="transparent" points="126.5,-161 126.5,-186 244.5,-186 244.5,-161 126.5,-161"/>
<polygon fill="none" stroke="black" points="126.5,-161 126.5,-186 244.5,-186 244.5,-161 126.5,-161"/>
<text text-anchor="start" x="155" y="-169.8" font-family="Times,serif" font-size="14.00">immGen</text>
<polygon fill="#fff8dc" stroke="transparent" points="126.5,-136 126.5,-161 244.5,-161 244.5,-136 126.5,-136"/>
<polygon fill="none" stroke="black" points="126.5,-136 126.5,-161 244.5,-161 244.5,-136 126.5,-136"/>
<text text-anchor="start" x="153" y="-144.8" font-family="Times,serif" font-size="14.00">registers</text>
</a>
</g>
</g>
<!-- module_1&#45;&gt;module_3 -->
<g id="edge12" class="edge">
<title>module_1:module_3&#45;&gt;module_3</title>
<path fill="none" stroke="black" d="M55,-350C73.81,-350 92.3,-343.96 109.16,-335.3"/>
<polygon fill="black" stroke="black" points="111.28,-338.12 118.35,-330.23 107.9,-331.99 111.28,-338.12"/>
</g>
<!-- module_4 -->
<g id="node4" class="node">
<title>module_4</title>
<g id="a_node4"><a xlink:href="Adder.dot.svg" xlink:title="&lt;TABLE&gt;">
<polygon fill="#ffdead" stroke="transparent" points="370.5,-329 370.5,-354 432.5,-354 432.5,-329 370.5,-329"/>
<polygon fill="none" stroke="black" points="370.5,-329 370.5,-354 432.5,-354 432.5,-329 370.5,-329"/>
<text text-anchor="start" x="375.5" y="-337.8" font-family="Times,serif" font-size="14.00"> Adder </text>
</a>
</g>
</g>
<!-- module_3&#45;&gt;module_4 -->
<g id="edge2" class="edge">
<title>module_3:module_4&#45;&gt;module_4</title>
<path fill="none" stroke="black" d="M245.5,-299C251.02,-299 308.9,-315.42 352.32,-327.96"/>
<polygon fill="black" stroke="black" points="351.59,-331.4 362.17,-330.81 353.54,-324.67 351.59,-331.4"/>
</g>
<!-- module_5 -->
<g id="node5" class="node">
<title>module_5</title>
<g id="a_node5"><a xlink:href="BranchControl.dot.svg" xlink:title="&lt;TABLE&gt;">
<polygon fill="#ffdead" stroke="transparent" points="339.5,-275 339.5,-300 463.5,-300 463.5,-275 339.5,-275"/>
<polygon fill="none" stroke="black" points="339.5,-275 339.5,-300 463.5,-300 463.5,-275 339.5,-275"/>
<text text-anchor="start" x="344.5" y="-283.8" font-family="Times,serif" font-size="14.00"> BranchControl </text>
</a>
</g>
</g>
<!-- module_3&#45;&gt;module_5 -->
<g id="edge3" class="edge">
<title>module_3:module_5&#45;&gt;module_5</title>
<path fill="none" stroke="black" d="M245.5,-273C270.1,-273 296.8,-274.9 320.99,-277.34"/>
<polygon fill="black" stroke="black" points="320.88,-280.85 331.2,-278.42 321.62,-273.89 320.88,-280.85"/>
</g>
<!-- module_6 -->
<g id="node6" class="node">
<title>module_6</title>
<g id="a_node6"><a xlink:href="ALU.dot.svg" xlink:title="&lt;TABLE&gt;">
<polygon fill="#ffdead" stroke="transparent" points="376.5,-491 376.5,-516 426.5,-516 426.5,-491 376.5,-491"/>
<polygon fill="none" stroke="black" points="376.5,-491 376.5,-516 426.5,-516 426.5,-491 376.5,-491"/>
<text text-anchor="start" x="381.5" y="-499.8" font-family="Times,serif" font-size="14.00"> ALU </text>
</a>
</g>
</g>
<!-- module_3&#45;&gt;module_6 -->
<g id="edge4" class="edge">
<title>module_3:module_6&#45;&gt;module_6</title>
<path fill="none" stroke="black" d="M245.5,-374C299.28,-374 266.27,-444.34 309,-477 323.17,-487.83 341.6,-494.32 358.21,-498.22"/>
<polygon fill="black" stroke="black" points="357.75,-501.7 368.25,-500.32 359.18,-494.85 357.75,-501.7"/>
</g>
<!-- module_7 -->
<g id="node7" class="node">
<title>module_7</title>
<g id="a_node7"><a xlink:href="ForwardingUnit.dot.svg" xlink:title="&lt;TABLE&gt;">
<polygon fill="#ffdead" stroke="transparent" points="334.5,-167 334.5,-192 468.5,-192 468.5,-167 334.5,-167"/>
<polygon fill="none" stroke="black" points="334.5,-167 334.5,-192 468.5,-192 468.5,-167 334.5,-167"/>
<text text-anchor="start" x="339.5" y="-175.8" font-family="Times,serif" font-size="14.00"> ForwardingUnit </text>
</a>
</g>
</g>
<!-- module_3&#45;&gt;module_7 -->
<g id="edge5" class="edge">
<title>module_3:module_7&#45;&gt;module_7</title>
<path fill="none" stroke="black" d="M245.5,-223C250.05,-223 290.21,-211.84 328.51,-200.88"/>
<polygon fill="black" stroke="black" points="329.53,-204.23 338.18,-198.11 327.6,-197.5 329.53,-204.23"/>
</g>
<!-- module_8 -->
<g id="node8" class="node">
<title>module_8</title>
<g id="a_node8"><a xlink:href="ImmediateGenerator.dot.svg" xlink:title="&lt;TABLE&gt;">
<polygon fill="#ffdead" stroke="transparent" points="317.5,-59 317.5,-84 486.5,-84 486.5,-59 317.5,-59"/>
<polygon fill="none" stroke="black" points="317.5,-59 317.5,-84 486.5,-84 486.5,-59 317.5,-59"/>
<text text-anchor="start" x="322.5" y="-67.8" font-family="Times,serif" font-size="14.00"> ImmediateGenerator </text>
</a>
</g>
</g>
<!-- module_3&#45;&gt;module_8 -->
<g id="edge6" class="edge">
<title>module_3:module_8&#45;&gt;module_8</title>
<path fill="none" stroke="black" d="M245.5,-173C288.84,-173 272.61,-122.54 309,-99 311.41,-97.44 313.92,-95.97 316.49,-94.58"/>
<polygon fill="black" stroke="black" points="318.05,-97.71 325.48,-90.16 314.96,-91.43 318.05,-97.71"/>
</g>
<!-- module_9 -->
<g id="node9" class="node">
<title>module_9</title>
<g id="a_node9"><a xlink:href="Control.dot.svg" xlink:title="&lt;TABLE&gt;">
<polygon fill="#ffdead" stroke="transparent" points="365.5,-221 365.5,-246 438.5,-246 438.5,-221 365.5,-221"/>
<polygon fill="none" stroke="black" points="365.5,-221 365.5,-246 438.5,-246 438.5,-221 365.5,-221"/>
<text text-anchor="start" x="370.5" y="-229.8" font-family="Times,serif" font-size="14.00"> Control </text>
</a>
</g>
</g>
<!-- module_3&#45;&gt;module_9 -->
<g id="edge7" class="edge">
<title>module_3:module_9&#45;&gt;module_9</title>
<path fill="none" stroke="black" d="M245.5,-248C279.22,-248 316.89,-244.67 346.66,-241.26"/>
<polygon fill="black" stroke="black" points="347.31,-244.71 356.83,-240.06 346.49,-237.76 347.31,-244.71"/>
</g>
<!-- module_10 -->
<g id="node10" class="node">
<title>module_10</title>
<g id="a_node10"><a xlink:href="HazardUnit.dot.svg" xlink:title="&lt;TABLE&gt;">
<polygon fill="#ffdead" stroke="transparent" points="350.5,-113 350.5,-138 453.5,-138 453.5,-113 350.5,-113"/>
<polygon fill="none" stroke="black" points="350.5,-113 350.5,-138 453.5,-138 453.5,-113 350.5,-113"/>
<text text-anchor="start" x="355.5" y="-121.8" font-family="Times,serif" font-size="14.00"> HazardUnit </text>
</a>
</g>
</g>
<!-- module_3&#45;&gt;module_10 -->
<g id="edge8" class="edge">
<title>module_3:module_10&#45;&gt;module_10</title>
<path fill="none" stroke="black" d="M245.5,-198C280.09,-198 277.88,-168.1 309,-153 316.31,-149.45 324.18,-146.27 332.12,-143.45"/>
<polygon fill="black" stroke="black" points="333.46,-146.7 341.82,-140.19 331.22,-140.06 333.46,-146.7"/>
</g>
<!-- module_11 -->
<g id="node11" class="node">
<title>module_11</title>
<g id="a_node11"><a xlink:href="RegisterFile.dot.svg" xlink:title="&lt;TABLE&gt;">
<polygon fill="#ffdead" stroke="transparent" points="348.5,-5 348.5,-30 455.5,-30 455.5,-5 348.5,-5"/>
<polygon fill="none" stroke="black" points="348.5,-5 348.5,-30 455.5,-30 455.5,-5 348.5,-5"/>
<text text-anchor="start" x="353.5" y="-13.8" font-family="Times,serif" font-size="14.00"> RegisterFile </text>
</a>
</g>
</g>
<!-- module_3&#45;&gt;module_11 -->
<g id="edge9" class="edge">
<title>module_3:module_11&#45;&gt;module_11</title>
<path fill="none" stroke="black" d="M245.5,-148C299.28,-148 266.27,-77.66 309,-45 315.45,-40.07 322.8,-36.03 330.45,-32.73"/>
<polygon fill="black" stroke="black" points="331.84,-35.95 339.89,-29.06 329.3,-29.42 331.84,-35.95"/>
</g>
<!-- module_12 -->
<g id="node12" class="node">
<title>module_12</title>
<g id="a_node12"><a xlink:href="Adder.dot.svg" xlink:title="&lt;TABLE&gt;">
<polygon fill="#ffdead" stroke="transparent" points="370.5,-383 370.5,-408 432.5,-408 432.5,-383 370.5,-383"/>
<polygon fill="none" stroke="black" points="370.5,-383 370.5,-408 432.5,-408 432.5,-383 370.5,-383"/>
<text text-anchor="start" x="375.5" y="-391.8" font-family="Times,serif" font-size="14.00"> Adder </text>
</a>
</g>
</g>
<!-- module_3&#45;&gt;module_12 -->
<g id="edge10" class="edge">
<title>module_3:module_12&#45;&gt;module_12</title>
<path fill="none" stroke="black" d="M245.5,-324C280.09,-324 277.88,-353.9 309,-369 322.56,-375.58 338.04,-380.89 352.37,-385.01"/>
<polygon fill="black" stroke="black" points="351.49,-388.4 362.06,-387.67 353.34,-381.65 351.49,-388.4"/>
</g>
<!-- module_13 -->
<g id="node13" class="node">
<title>module_13</title>
<g id="a_node13"><a xlink:href="ALUControl.dot.svg" xlink:title="&lt;TABLE&gt;">
<polygon fill="#ffdead" stroke="transparent" points="350.5,-437 350.5,-462 453.5,-462 453.5,-437 350.5,-437"/>
<polygon fill="none" stroke="black" points="350.5,-437 350.5,-462 453.5,-462 453.5,-437 350.5,-437"/>
<text text-anchor="start" x="355.5" y="-445.8" font-family="Times,serif" font-size="14.00"> ALUControl </text>
</a>
</g>
</g>
<!-- module_3&#45;&gt;module_13 -->
<g id="edge11" class="edge">
<title>module_3:module_13&#45;&gt;module_13</title>
<path fill="none" stroke="black" d="M245.5,-349C288.84,-349 272.61,-399.46 309,-423 316.1,-427.59 324,-431.43 332.11,-434.62"/>
<polygon fill="black" stroke="black" points="331.08,-437.97 341.68,-438.09 333.47,-431.39 331.08,-437.97"/>
</g>
</g>
</svg>
